<?xml version="1.0" standalone="no"?>
<!DOCTYPE svg PUBLIC "-//W3C//DTD SVG 1.1//EN" "http://www.w3.org/Graphics/SVG/1.1/DTD/svg11.dtd" >
<svg xmlns="http://www.w3.org/2000/svg" xmlns:xlink="http://www.w3.org/1999/xlink" version="1.1">
<metadata>
Created by FontForge 20170812 at Fri Jun 23 12:58:42 2017
 By www-data
Copyright 2011 The Paytone Project Authors (https://github.com/googlefonts/paytoneFont)
</metadata>
<defs>
<font id="PaytoneOne" horiz-adv-x="0" >
  <font-face 
    font-family="Paytone One"
    font-weight="400"
    font-stretch="normal"
    units-per-em="1000"
    panose-1="0 0 5 0 0 0 0 0 0 0"
    ascent="800"
    descent="-200"
    x-height="501"
    cap-height="688"
    bbox="-584 -371 1364 1271"
    underline-thickness="50"
    underline-position="-100"
    unicode-range="U+000D-FB02"
  />
<missing-glyph horiz-adv-x="365" 
d="M33 667h266v-667h-266v667zM266 33v600h-200v-600h200z" />
    <glyph glyph-name="fi" unicode="fi" horiz-adv-x="800" 
d="M509.5 605.5q-32.5 29.5 -32.5 72.5t34 72t78 29q46 0 79.5 -30t33.5 -71q0 -44 -34 -73t-79 -29q-47 0 -79.5 29.5zM530 46q-47 54 -47 147v184h-184v-377h-211v377h-63v124h63v42q0 111 53.5 168t149.5 57q77 0 143 -39l-7 -135q-58 23 -97 23q-30 0 -46 -14.5
t-16 -41.5q0 -26 17 -60h410v-299q0 -23 12.5 -35.5t32.5 -12.5t41 12l11 -139q-22 -17 -57.5 -26t-73.5 -9q-84 0 -131 54z" />
    <glyph glyph-name="fl" unicode="fl" horiz-adv-x="791" 
d="M523 38q-47 54 -47 147v405q-39 18 -93 18q-84 0 -84 -80v-27h126v-124h-126v-377h-211v377h-63v124h63v34q0 113 74 163.5t218 50.5q150 0 307 -58v-492q0 -53 47 -53q22 0 43 12l12 -139q-65 -35 -137 -35q-82 0 -129 54z" />
    <glyph glyph-name=".notdef" horiz-adv-x="365" 
d="M33 667h266v-667h-266v667zM266 33v600h-200v-600h200z" />
    <glyph glyph-name="NULL" 
 />
    <glyph glyph-name="nonmarkingreturn" unicode="&#xd;" horiz-adv-x="333" 
 />
    <glyph glyph-name="space" unicode=" " horiz-adv-x="187" 
 />
    <glyph glyph-name="A" unicode="A" horiz-adv-x="699" 
d="M195 688h304l199 -688h-235l-26 132h-178l-29 -132h-225zM413 255l-65 301l-68 -301h133z" />
    <glyph glyph-name="Aacute" unicode="&#xc1;" horiz-adv-x="699" 
d="M195 688h304l199 -688h-235l-26 132h-178l-29 -132h-225zM413 255l-65 301l-68 -301h133zM225 870l293 205l101 -179l-333 -133z" />
    <glyph glyph-name="Abreve" unicode="&#x102;" horiz-adv-x="699" 
d="M195 688h304l199 -688h-235l-26 132h-178l-29 -132h-225zM413 255l-65 301l-68 -301h133zM206.5 827.5q-52.5 64.5 -56.5 193.5h141q0 -133 56 -133q26 0 39.5 30.5t13.5 102.5h143q-4 -131 -56 -194.5t-140 -63.5t-140.5 64.5z" />
    <glyph glyph-name="uni1EAE" unicode="&#x1eae;" horiz-adv-x="699" 
d="M195 688h304l199 -688h-235l-26 132h-178l-29 -132h-225zM413 255l-65 301l-68 -301h133zM165 1096l293 175l85 -161l-333 -103zM207 816.5q-53 53.5 -57 154.5h138q1 -44 17 -66t42 -22q54 0 58 88h138q-4 -103 -56.5 -155.5t-139.5 -52.5t-140 53.5z" />
    <glyph glyph-name="uni1EB6" unicode="&#x1eb6;" horiz-adv-x="699" 
d="M195 688h304l199 -688h-235l-26 132h-178l-29 -132h-225zM413 255l-65 301l-68 -301h133zM272.5 -248.5q-32.5 29.5 -32.5 72.5t34 72t78 29q46 0 79.5 -30t33.5 -71q0 -44 -34 -73t-79 -29q-47 0 -79.5 29.5zM206.5 827.5q-52.5 64.5 -56.5 193.5h141q0 -133 56 -133
q26 0 39.5 30.5t13.5 102.5h143q-4 -131 -56 -194.5t-140 -63.5t-140.5 64.5z" />
    <glyph glyph-name="uni1EB0" unicode="&#x1eb0;" horiz-adv-x="699" 
d="M195 688h304l199 -688h-235l-26 132h-178l-29 -132h-225zM413 255l-65 301l-68 -301h133zM151 1110l85 161l293 -175l-45 -89zM207.5 815.5q-52.5 52.5 -56.5 155.5h138q4 -88 58 -88q26 0 42 22t17 66h138q-4 -101 -57 -154.5t-140 -53.5t-139.5 52.5z" />
    <glyph glyph-name="uni1EB2" unicode="&#x1eb2;" horiz-adv-x="699" 
d="M195 688h304l199 -688h-235l-26 132h-178l-29 -132h-225zM413 255l-65 301l-68 -301h133zM283 1057q0 18 9 29.5t27 26.5q16 11 24 21t8 24q0 11 -10 18t-31 7q-27 0 -70 -15l-8 83q57 20 123 20q69 0 101 -24t32 -66q0 -32 -12 -50.5t-35 -38.5q-17 -15 -25 -26t-8 -27
v-17h-122q-3 17 -3 35zM207.5 815.5q-52.5 52.5 -56.5 155.5h138q4 -88 58 -88q26 0 42 22t17 66h138q-4 -101 -57 -154.5t-140 -53.5t-139.5 52.5z" />
    <glyph glyph-name="uni1EB4" unicode="&#x1eb4;" horiz-adv-x="699" 
d="M195 688h304l199 -688h-235l-26 132h-178l-29 -132h-225zM413 255l-65 301l-68 -301h133zM141 1057q24 66 62 99.5t84 33.5q18 0 33.5 -5t34.5 -15q21 -10 32 -14t24 -4q14 0 25.5 9.5t24.5 29.5l92 -40q-24 -66 -61.5 -100t-84.5 -34q-18 0 -33.5 5t-34.5 15
q-21 10 -32 14t-24 4q-14 0 -25.5 -9.5t-24.5 -29.5zM207.5 815.5q-52.5 52.5 -56.5 155.5h138q4 -88 58 -88q26 0 42 22t17 66h138q-4 -101 -57 -154.5t-140 -53.5t-139.5 52.5z" />
    <glyph glyph-name="Acircumflex" unicode="&#xc2;" horiz-adv-x="699" 
d="M195 688h304l199 -688h-235l-26 132h-178l-29 -132h-225zM413 255l-65 301l-68 -301h133zM254 1022h185l123 -249h-166l-38 106l-12 38l-10 -38l-39 -106h-166z" />
    <glyph glyph-name="uni1EA4" unicode="&#x1ea4;" horiz-adv-x="699" 
d="M195 688h304l199 -688h-235l-26 132h-178l-29 -132h-225zM413 255l-65 301l-68 -301h133zM165 1096l293 175l85 -161l-333 -103zM254 971h185l123 -198h-163l-53 101l-52 -101h-163z" />
    <glyph glyph-name="uni1EAC" unicode="&#x1eac;" horiz-adv-x="699" 
d="M195 688h304l199 -688h-235l-26 132h-178l-29 -132h-225zM413 255l-65 301l-68 -301h133zM272.5 -248.5q-32.5 29.5 -32.5 72.5t34 72t78 29q46 0 79.5 -30t33.5 -71q0 -44 -34 -73t-79 -29q-47 0 -79.5 29.5zM254 1022h185l123 -249h-166l-38 106l-12 38l-10 -38
l-39 -106h-166z" />
    <glyph glyph-name="uni1EA6" unicode="&#x1ea6;" horiz-adv-x="699" 
d="M195 688h304l199 -688h-235l-26 132h-178l-29 -132h-225zM413 255l-65 301l-68 -301h133zM151 1110l85 161l293 -175l-45 -89zM255 971h185l123 -198h-163l-52 101l-53 -101h-163z" />
    <glyph glyph-name="uni1EA8" unicode="&#x1ea8;" horiz-adv-x="699" 
d="M195 688h304l199 -688h-235l-26 132h-178l-29 -132h-225zM413 255l-65 301l-68 -301h133zM283 1057q0 18 9 29.5t27 26.5q16 11 24 21t8 24q0 11 -10 18t-31 7q-27 0 -70 -15l-8 83q57 20 123 20q69 0 101 -24t32 -66q0 -32 -12 -50.5t-35 -38.5q-17 -15 -25 -26t-8 -27
v-17h-122q-3 17 -3 35zM255 971h185l123 -198h-163l-52 101l-53 -101h-163z" />
    <glyph glyph-name="uni1EAA" unicode="&#x1eaa;" horiz-adv-x="699" 
d="M195 688h304l199 -688h-235l-26 132h-178l-29 -132h-225zM413 255l-65 301l-68 -301h133zM141 1057q24 66 62 99.5t84 33.5q18 0 33.5 -5t34.5 -15q21 -10 32 -14t24 -4q14 0 25.5 9.5t24.5 29.5l92 -40q-24 -66 -61.5 -100t-84.5 -34q-18 0 -33.5 5t-34.5 15
q-21 10 -32 14t-24 4q-14 0 -25.5 -9.5t-24.5 -29.5zM255 971h185l123 -198h-163l-52 101l-53 -101h-163z" />
    <glyph glyph-name="uni0200" unicode="&#x200;" horiz-adv-x="699" 
d="M195 688h304l199 -688h-235l-26 132h-178l-29 -132h-225zM413 255l-65 301l-68 -301h133zM63 1013l157 64l104 -276l-107 -38zM290 1035l166 40l61 -288l-113 -23z" />
    <glyph glyph-name="Adieresis" unicode="&#xc4;" horiz-adv-x="699" 
d="M195 688h304l199 -688h-235l-26 132h-178l-29 -132h-225zM413 255l-65 301l-68 -301h133zM126.5 792q-32.5 29 -32.5 71q0 43 34 72.5t78 29.5q46 0 79.5 -30.5t33.5 -71.5q0 -43 -34 -71.5t-79 -28.5q-47 0 -79.5 29zM408 793q-32 30 -32 70q0 44 34.5 73t78.5 29
q33 0 58 -15t39 -38.5t14 -48.5q0 -43 -33 -71.5t-78 -28.5q-49 0 -81 30z" />
    <glyph glyph-name="uni1EA0" unicode="&#x1ea0;" horiz-adv-x="699" 
d="M195 688h304l199 -688h-235l-26 132h-178l-29 -132h-225zM413 255l-65 301l-68 -301h133zM272.5 -248.5q-32.5 29.5 -32.5 72.5t34 72t78 29q46 0 79.5 -30t33.5 -71q0 -44 -34 -73t-79 -29q-47 0 -79.5 29.5z" />
    <glyph glyph-name="Agrave" unicode="&#xc0;" horiz-adv-x="699" 
d="M195 688h304l199 -688h-235l-26 132h-178l-29 -132h-225zM413 255l-65 301l-68 -301h133zM75 896l101 179l293 -205l-61 -107z" />
    <glyph glyph-name="uni1EA2" unicode="&#x1ea2;" horiz-adv-x="699" 
d="M195 688h304l199 -688h-235l-26 132h-178l-29 -132h-225zM413 255l-65 301l-68 -301h133zM283 808q0 23 10 37t29 29q15 13 22 22.5t7 22.5q0 11 -10 18t-31 7q-27 0 -70 -15l-8 83q57 20 123 20q69 0 101 -24t32 -66q0 -31 -11.5 -49.5t-32.5 -38.5q-19 -18 -27.5 -31
t-8.5 -33v-17h-122q-3 17 -3 35z" />
    <glyph glyph-name="uni0202" unicode="&#x202;" horiz-adv-x="699" 
d="M195 688h304l199 -688h-235l-26 132h-178l-29 -132h-225zM413 255l-65 301l-68 -301h133zM206 967.5q52 63.5 140 63.5t140.5 -64.5t56.5 -193.5h-141q0 133 -56 133q-26 0 -39.5 -30.5t-13.5 -102.5h-143q4 131 56 194.5z" />
    <glyph glyph-name="Amacron" unicode="&#x100;" horiz-adv-x="699" 
d="M195 688h304l199 -688h-235l-26 132h-178l-29 -132h-225zM413 255l-65 301l-68 -301h133zM173 901h348v-128h-348v128z" />
    <glyph glyph-name="Aogonek" unicode="&#x104;" horiz-adv-x="699" 
d="M694 -172l1 -58q-43 -18 -93 -18q-63 0 -97 24.5t-34 65.5q0 43 35.5 83.5t102.5 74.5h-146l-26 132h-178l-29 -132h-225l190 688h304l199 -688q-99 -82 -99 -140q0 -41 48 -41q20 0 47 9zM413 255l-65 301l-68 -301h133z" />
    <glyph glyph-name="Aring" unicode="&#xc5;" horiz-adv-x="699" 
d="M195 688q-20 40 -20 83q0 51 22.5 90.5t62 61t88.5 21.5q53 0 92 -23t59.5 -62.5t20.5 -87.5q0 -47 -21 -84l199 -687h-235l-26 132h-178l-29 -132h-225zM390.5 723.5q15.5 17.5 15.5 47.5q0 31 -16.5 49t-43.5 18t-43 -18t-16 -49q0 -29 17 -47t44 -18t42.5 17.5z
M413 255l-65 301l-68 -301h133z" />
    <glyph glyph-name="Aringacute" unicode="&#x1fa;" horiz-adv-x="699" 
d="M195 688h304l199 -688h-235l-26 132h-178l-29 -132h-225zM413 255l-65 301l-68 -301h133zM223 810.5q-48 47.5 -48 122.5q0 78 48.5 125.5t123.5 47.5q60 0 103 -30l159 111l81 -144l-176 -70q4 -17 4 -40q0 -77 -47.5 -123.5t-123.5 -46.5t-124 47.5zM390 889
q15 16 15 44t-16.5 45.5t-43.5 17.5q-26 0 -42.5 -17.5t-16.5 -45.5q0 -27 17 -43.5t44 -16.5q28 0 43 16z" />
    <glyph glyph-name="Atilde" unicode="&#xc3;" horiz-adv-x="699" 
d="M195 688h304l199 -688h-235l-26 132h-178l-29 -132h-225zM413 255l-65 301l-68 -301h133zM104 813q28 78 72.5 117.5t99.5 39.5q21 0 39 -6.5t41 -19.5q21 -11 35.5 -16.5t30.5 -5.5q15 0 28.5 12t30.5 37l108 -47q-28 -78 -72.5 -118t-99.5 -40q-21 0 -39 6.5t-41 19.5
q-21 11 -35.5 16.5t-30.5 5.5q-15 0 -28.5 -12t-30.5 -37z" />
    <glyph glyph-name="AE" unicode="&#xc6;" horiz-adv-x="937" 
d="M232 688h577l26 -152h-268l21 -125h246l21 -126h-245l22 -133h269l26 -152h-479l-22 132h-169l-41 -132h-219zM402 255l-41 251l-67 -251h108z" />
    <glyph glyph-name="AEacute" unicode="&#x1fc;" horiz-adv-x="937" 
d="M232 688h577l26 -152h-268l21 -125h246l21 -126h-245l22 -133h269l26 -152h-479l-22 132h-169l-41 -132h-219zM402 255l-41 251l-67 -251h108zM346 870l293 205l101 -179l-333 -133z" />
    <glyph glyph-name="B" unicode="B" horiz-adv-x="721" 
d="M210 -10q-53 2 -145 9v689h344q73 0 131.5 -20.5t91.5 -58.5t33 -88q0 -62 -27 -97.5t-82 -49.5q140 -22 140 -165q0 -99 -90.5 -160t-280.5 -61q-62 0 -115 2zM367 416q39 0 64.5 19t25.5 49q0 71 -88 71h-81v-139h79zM447.5 165.5q29.5 20.5 29.5 57.5q0 40 -27 61.5
t-77 21.5h-86v-158q45 -3 76 -3q55 0 84.5 20.5z" />
    <glyph glyph-name="C" unicode="C" horiz-adv-x="604" 
d="M207.5 31.5q-81.5 47.5 -129 130t-47.5 182.5q0 102 46 184t126 128.5t180 46.5q54 0 106 -13t89 -37l-27 -155q-72 27 -130 27q-80 0 -123 -46.5t-43 -133.5q0 -85 45.5 -132.5t126.5 -47.5q31 0 58 6t66 22l28 -158q-87 -51 -190 -51q-100 0 -181.5 47.5z" />
    <glyph glyph-name="Cacute" unicode="&#x106;" horiz-adv-x="604" 
d="M207.5 31.5q-81.5 47.5 -129 130t-47.5 182.5q0 102 46 184t126 128.5t180 46.5q54 0 106 -13t89 -37l-27 -155q-72 27 -130 27q-80 0 -123 -46.5t-43 -133.5q0 -85 45.5 -132.5t126.5 -47.5q31 0 58 6t66 22l28 -158q-87 -51 -190 -51q-100 0 -181.5 47.5zM233 870
l293 205l101 -179l-333 -133z" />
    <glyph glyph-name="Ccaron" unicode="&#x10c;" horiz-adv-x="604" 
d="M207.5 31.5q-81.5 47.5 -129 130t-47.5 182.5q0 102 46 184t126 128.5t180 46.5q54 0 106 -13t89 -37l-27 -155q-72 27 -130 27q-80 0 -123 -46.5t-43 -133.5q0 -85 45.5 -132.5t126.5 -47.5q31 0 58 6t66 22l28 -158q-87 -51 -190 -51q-100 0 -181.5 47.5zM139 1022h166
l39 -107l10 -39q13 41 27 78q8 22 13.5 39t9.5 29h166l-123 -249h-185z" />
    <glyph glyph-name="Ccedilla" unicode="&#xc7;" horiz-adv-x="604" 
d="M446.5 -80.5q21.5 -23.5 21.5 -59.5q0 -49 -37 -78.5t-100 -29.5q-52 0 -91 18l1 57q24 -8 47 -8q27 0 42 12t15 35q0 19 -16 31t-42 16l27 78q-82 17 -146 67t-100.5 124.5t-36.5 161.5q0 102 46 184t126 128.5t180 46.5q54 0 106 -13t89 -37l-27 -155q-72 27 -130 27
q-80 0 -123 -46.5t-43 -133.5q0 -85 45.5 -132.5t126.5 -47.5q31 0 58 6t66 22l28 -158q-87 -51 -190 -51h-1l-10 -29q47 -12 68.5 -35.5z" />
    <glyph glyph-name="Ccircumflex" unicode="&#x108;" horiz-adv-x="604" 
d="M207.5 31.5q-81.5 47.5 -129 130t-47.5 182.5q0 102 46 184t126 128.5t180 46.5q54 0 106 -13t89 -37l-27 -155q-72 27 -130 27q-80 0 -123 -46.5t-43 -133.5q0 -85 45.5 -132.5t126.5 -47.5q31 0 58 6t66 22l28 -158q-87 -51 -190 -51q-100 0 -181.5 47.5zM262 1022h185
l123 -249h-166l-38 106l-12 38l-10 -38l-39 -106h-166z" />
    <glyph glyph-name="Cdotaccent" unicode="&#x10a;" horiz-adv-x="604" 
d="M207.5 31.5q-81.5 47.5 -129 130t-47.5 182.5q0 102 46 184t126 128.5t180 46.5q54 0 106 -13t89 -37l-27 -155q-72 27 -130 27q-80 0 -123 -46.5t-43 -133.5q0 -85 45.5 -132.5t126.5 -47.5q31 0 58 6t66 22l28 -158q-87 -51 -190 -51q-100 0 -181.5 47.5zM275.5 792.5
q-32.5 29.5 -32.5 72.5t34 72t78 29q46 0 79.5 -30t33.5 -71q0 -44 -34 -73t-79 -29q-47 0 -79.5 29.5z" />
    <glyph glyph-name="D" unicode="D" horiz-adv-x="764" 
d="M65 688h299q108 0 191.5 -43t130 -120t46.5 -176q0 -104 -45.5 -183t-129 -122.5t-193.5 -43.5h-299v688zM354 180q75 0 114.5 47.5t39.5 123.5q0 72 -38.5 114.5t-115.5 42.5h-68v-328h68z" />
    <glyph glyph-name="uni01C4" unicode="&#x1c4;" horiz-adv-x="1295" 
d="M65 688h299q108 0 191.5 -43t130 -120t46.5 -176q0 -104 -45.5 -183t-129 -122.5t-193.5 -43.5h-299v688zM354 180q75 0 114.5 47.5t39.5 123.5q0 72 -38.5 114.5t-115.5 42.5h-68v-328h68zM790 145l235 397h-226v146h450v-146l-230 -396h240v-146h-469v145zM808 1022
h166l39 -107l10 -39q13 41 27 78q8 22 13.5 39t9.5 29h166l-123 -249h-185z" />
    <glyph glyph-name="Eth" unicode="&#xd0;" horiz-adv-x="790" 
d="M91 302h-91v85h91v301h299q109 0 192.5 -43.5t129.5 -120.5t46 -175q0 -104 -45.5 -183t-129 -122.5t-193.5 -43.5h-299v302zM379 180q75 0 114.5 47.5t39.5 123.5q0 72 -38.5 114.5t-115.5 42.5h-68v-121h79v-85h-79v-122h68z" />
    <glyph glyph-name="Dcaron" unicode="&#x10e;" horiz-adv-x="764" 
d="M65 688h299q108 0 191.5 -43t130 -120t46.5 -176q0 -104 -45.5 -183t-129 -122.5t-193.5 -43.5h-299v688zM354 180q75 0 114.5 47.5t39.5 123.5q0 72 -38.5 114.5t-115.5 42.5h-68v-328h68zM166 1022h166l39 -107l10 -39q13 41 27 78q8 22 13.5 39t9.5 29h166l-123 -249
h-185z" />
    <glyph glyph-name="Dcroat" unicode="&#x110;" horiz-adv-x="790" 
d="M91 302h-91v85h91v301h299q109 0 192.5 -43.5t129.5 -120.5t46 -175q0 -104 -45.5 -183t-129 -122.5t-193.5 -43.5h-299v302zM379 180q75 0 114.5 47.5t39.5 123.5q0 72 -38.5 114.5t-115.5 42.5h-68v-121h79v-85h-79v-122h68z" />
    <glyph glyph-name="uni01C5" unicode="&#x1c5;" horiz-adv-x="1254" 
d="M65 688h299q108 0 191.5 -43t130 -120t46.5 -176q0 -104 -45.5 -183t-129 -122.5t-193.5 -43.5h-299v688zM354 180q75 0 114.5 47.5t39.5 123.5q0 72 -38.5 114.5t-115.5 42.5h-68v-328h68zM795 107l176 266h-169v128h416v-108l-167 -265h171v-128h-427v107zM794 835h166
l39 -107l10 -39q13 41 27 78q8 22 13.5 39t9.5 29h166l-123 -249h-185z" />
    <glyph glyph-name="E" unicode="E" horiz-adv-x="595" 
d="M65 688h483v-152h-240v-125h219v-126h-219v-133h240v-152h-483v688z" />
    <glyph glyph-name="Eacute" unicode="&#xc9;" horiz-adv-x="595" 
d="M65 688h483v-152h-240v-125h219v-126h-219v-133h240v-152h-483v688zM185 870l293 205l101 -179l-333 -133z" />
    <glyph glyph-name="Ebreve" unicode="&#x114;" horiz-adv-x="595" 
d="M65 688h483v-152h-240v-125h219v-126h-219v-133h240v-152h-483v688zM166.5 827.5q-52.5 64.5 -56.5 193.5h141q0 -133 56 -133q26 0 39.5 30.5t13.5 102.5h143q-4 -131 -56 -194.5t-140 -63.5t-140.5 64.5z" />
    <glyph glyph-name="Ecaron" unicode="&#x11a;" horiz-adv-x="595" 
d="M65 688h483v-152h-240v-125h219v-126h-219v-133h240v-152h-483v688zM91 1022h166l39 -107l10 -39q13 41 27 78q8 22 13.5 39t9.5 29h166l-123 -249h-185z" />
    <glyph glyph-name="Ecircumflex" unicode="&#xca;" horiz-adv-x="595" 
d="M65 688h483v-152h-240v-125h219v-126h-219v-133h240v-152h-483v688zM214 1022h185l123 -249h-166l-38 106l-12 38l-10 -38l-39 -106h-166z" />
    <glyph glyph-name="uni1EBE" unicode="&#x1ebe;" horiz-adv-x="595" 
d="M65 688h483v-152h-240v-125h219v-126h-219v-133h240v-152h-483v688zM125 1096l293 175l85 -161l-333 -103zM214 971h185l123 -198h-163l-53 101l-52 -101h-163z" />
    <glyph glyph-name="uni1EC6" unicode="&#x1ec6;" horiz-adv-x="595" 
d="M65 688h483v-152h-240v-125h219v-126h-219v-133h240v-152h-483v688zM227.5 -248.5q-32.5 29.5 -32.5 72.5t34 72t78 29q46 0 79.5 -30t33.5 -71q0 -44 -34 -73t-79 -29q-47 0 -79.5 29.5zM214 1022h185l123 -249h-166l-38 106l-12 38l-10 -38l-39 -106h-166z" />
    <glyph glyph-name="uni1EC0" unicode="&#x1ec0;" horiz-adv-x="595" 
d="M65 688h483v-152h-240v-125h219v-126h-219v-133h240v-152h-483v688zM111 1110l85 161l293 -175l-45 -89zM215 971h185l123 -198h-163l-52 101l-53 -101h-163z" />
    <glyph glyph-name="uni1EC2" unicode="&#x1ec2;" horiz-adv-x="595" 
d="M65 688h483v-152h-240v-125h219v-126h-219v-133h240v-152h-483v688zM243 1057q0 18 9 29.5t27 26.5q16 11 24 21t8 24q0 11 -10 18t-31 7q-27 0 -70 -15l-8 83q57 20 123 20q69 0 101 -24t32 -66q0 -32 -12 -50.5t-35 -38.5q-17 -15 -25 -26t-8 -27v-17h-122q-3 17 -3 35
zM215 971h185l123 -198h-163l-52 101l-53 -101h-163z" />
    <glyph glyph-name="uni1EC4" unicode="&#x1ec4;" horiz-adv-x="595" 
d="M65 688h483v-152h-240v-125h219v-126h-219v-133h240v-152h-483v688zM101 1057q24 66 62 99.5t84 33.5q18 0 33.5 -5t34.5 -15q21 -10 32 -14t24 -4q14 0 25.5 9.5t24.5 29.5l92 -40q-24 -66 -61.5 -100t-84.5 -34q-18 0 -33.5 5t-34.5 15q-21 10 -32 14t-24 4
q-14 0 -25.5 -9.5t-24.5 -29.5zM215 971h185l123 -198h-163l-52 101l-53 -101h-163z" />
    <glyph glyph-name="uni0204" unicode="&#x204;" horiz-adv-x="595" 
d="M65 688h483v-152h-240v-125h219v-126h-219v-133h240v-152h-483v688zM23 1013l157 64l104 -276l-107 -38zM250 1035l166 40l61 -288l-113 -23z" />
    <glyph glyph-name="Edieresis" unicode="&#xcb;" horiz-adv-x="595" 
d="M65 688h483v-152h-240v-125h219v-126h-219v-133h240v-152h-483v688zM86.5 792q-32.5 29 -32.5 71q0 43 34 72.5t78 29.5q46 0 79.5 -30.5t33.5 -71.5q0 -43 -34 -71.5t-79 -28.5q-47 0 -79.5 29zM368 793q-32 30 -32 70q0 44 34.5 73t78.5 29q33 0 58 -15t39 -38.5
t14 -48.5q0 -43 -33 -71.5t-78 -28.5q-49 0 -81 30z" />
    <glyph glyph-name="Edotaccent" unicode="&#x116;" horiz-adv-x="595" 
d="M65 688h483v-152h-240v-125h219v-126h-219v-133h240v-152h-483v688zM227.5 792.5q-32.5 29.5 -32.5 72.5t34 72t78 29q46 0 79.5 -30t33.5 -71q0 -44 -34 -73t-79 -29q-47 0 -79.5 29.5z" />
    <glyph glyph-name="uni1EB8" unicode="&#x1eb8;" horiz-adv-x="595" 
d="M65 688h483v-152h-240v-125h219v-126h-219v-133h240v-152h-483v688zM227.5 -248.5q-32.5 29.5 -32.5 72.5t34 72t78 29q46 0 79.5 -30t33.5 -71q0 -44 -34 -73t-79 -29q-47 0 -79.5 29.5z" />
    <glyph glyph-name="Egrave" unicode="&#xc8;" horiz-adv-x="595" 
d="M65 688h483v-152h-240v-125h219v-126h-219v-133h240v-152h-483v688zM35 896l101 179l293 -205l-61 -107z" />
    <glyph glyph-name="uni1EBA" unicode="&#x1eba;" horiz-adv-x="595" 
d="M65 688h483v-152h-240v-125h219v-126h-219v-133h240v-152h-483v688zM243 808q0 23 10 37t29 29q15 13 22 22.5t7 22.5q0 11 -10 18t-31 7q-27 0 -70 -15l-8 83q57 20 123 20q69 0 101 -24t32 -66q0 -31 -11.5 -49.5t-32.5 -38.5q-19 -18 -27.5 -31t-8.5 -33v-17h-122
q-3 17 -3 35z" />
    <glyph glyph-name="uni0206" unicode="&#x206;" horiz-adv-x="595" 
d="M65 688h483v-152h-240v-125h219v-126h-219v-133h240v-152h-483v688zM166 967.5q52 63.5 140 63.5t140.5 -64.5t56.5 -193.5h-141q0 133 -56 133q-26 0 -39.5 -30.5t-13.5 -102.5h-143q4 131 56 194.5z" />
    <glyph glyph-name="Emacron" unicode="&#x112;" horiz-adv-x="595" 
d="M65 688h483v-152h-240v-125h219v-126h-219v-133h240v-152h-483v688zM133 901h348v-128h-348v128z" />
    <glyph glyph-name="Eogonek" unicode="&#x118;" horiz-adv-x="595" 
d="M308 536v-125h219v-126h-219v-133h240v-152q-99 -82 -99 -140q0 -41 48 -41q20 0 47 9l1 -58q-43 -18 -93 -18q-63 0 -97 24.5t-34 65.5q0 43 35.5 83.5t102.5 74.5h-394v688h483v-152h-240z" />
    <glyph glyph-name="uni1EBC" unicode="&#x1ebc;" horiz-adv-x="595" 
d="M65 688h483v-152h-240v-125h219v-126h-219v-133h240v-152h-483v688zM64 813q28 78 72.5 117.5t99.5 39.5q21 0 39 -6.5t41 -19.5q21 -11 35.5 -16.5t30.5 -5.5q15 0 28.5 12t30.5 37l108 -47q-28 -78 -72.5 -118t-99.5 -40q-21 0 -39 6.5t-41 19.5q-21 11 -35.5 16.5
t-30.5 5.5q-15 0 -28.5 -12t-30.5 -37z" />
    <glyph glyph-name="F" unicode="F" horiz-adv-x="570" 
d="M65 688h474v-152h-259v-139h240v-126h-240v-271h-215v688z" />
    <glyph glyph-name="G" unicode="G" horiz-adv-x="659" 
d="M203 32.5q-81 48.5 -127 132.5t-46 185q0 97 46.5 178t129.5 128t189 47q58 0 112.5 -13t98.5 -37l-66 -155q-68 28 -127 28q-77 0 -119 -49.5t-42 -129.5q0 -52 19 -93.5t53.5 -65.5t78.5 -24q24 0 40 4v161l173 20v-313q-113 -52 -231 -52q-101 0 -182 48.5z" />
    <glyph glyph-name="Gbreve" unicode="&#x11e;" horiz-adv-x="659" 
d="M203 32.5q-81 48.5 -127 132.5t-46 185q0 97 46.5 178t129.5 128t189 47q58 0 112.5 -13t98.5 -37l-66 -155q-68 28 -127 28q-77 0 -119 -49.5t-42 -129.5q0 -52 19 -93.5t53.5 -65.5t78.5 -24q24 0 40 4v161l173 20v-313q-113 -52 -231 -52q-101 0 -182 48.5z
M214.5 827.5q-52.5 64.5 -56.5 193.5h141q0 -133 56 -133q26 0 39.5 30.5t13.5 102.5h143q-4 -131 -56 -194.5t-140 -63.5t-140.5 64.5z" />
    <glyph glyph-name="Gcaron" unicode="&#x1e6;" horiz-adv-x="659" 
d="M203 32.5q-81 48.5 -127 132.5t-46 185q0 97 46.5 178t129.5 128t189 47q58 0 112.5 -13t98.5 -37l-66 -155q-68 28 -127 28q-77 0 -119 -49.5t-42 -129.5q0 -52 19 -93.5t53.5 -65.5t78.5 -24q24 0 40 4v161l173 20v-313q-113 -52 -231 -52q-101 0 -182 48.5zM139 1022
h166l39 -107l10 -39q13 41 27 78q8 22 13.5 39t9.5 29h166l-123 -249h-185z" />
    <glyph glyph-name="Gcircumflex" unicode="&#x11c;" horiz-adv-x="659" 
d="M203 32.5q-81 48.5 -127 132.5t-46 185q0 97 46.5 178t129.5 128t189 47q58 0 112.5 -13t98.5 -37l-66 -155q-68 28 -127 28q-77 0 -119 -49.5t-42 -129.5q0 -52 19 -93.5t53.5 -65.5t78.5 -24q24 0 40 4v161l173 20v-313q-113 -52 -231 -52q-101 0 -182 48.5zM262 1022
h185l123 -249h-166l-38 106l-12 38l-10 -38l-39 -106h-166z" />
    <glyph glyph-name="Gcommaaccent" unicode="&#x122;" horiz-adv-x="659" 
d="M203 32.5q-81 48.5 -127 132.5t-46 185q0 97 46.5 178t129.5 128t189 47q58 0 112.5 -13t98.5 -37l-66 -155q-68 28 -127 28q-77 0 -119 -49.5t-42 -129.5q0 -52 19 -93.5t53.5 -65.5t78.5 -24q24 0 40 4v161l173 20v-313q-113 -52 -231 -52q-101 0 -182 48.5zM262 -290
q42 0 59.5 10.5t20.5 34.5h-80v160h185v-87q0 -107 -42 -153t-143 -46v81z" />
    <glyph glyph-name="Gdotaccent" unicode="&#x120;" horiz-adv-x="659" 
d="M203 32.5q-81 48.5 -127 132.5t-46 185q0 97 46.5 178t129.5 128t189 47q58 0 112.5 -13t98.5 -37l-66 -155q-68 28 -127 28q-77 0 -119 -49.5t-42 -129.5q0 -52 19 -93.5t53.5 -65.5t78.5 -24q24 0 40 4v161l173 20v-313q-113 -52 -231 -52q-101 0 -182 48.5z
M275.5 792.5q-32.5 29.5 -32.5 72.5t34 72t78 29q46 0 79.5 -30t33.5 -71q0 -44 -34 -73t-79 -29q-47 0 -79.5 29.5z" />
    <glyph glyph-name="H" unicode="H" horiz-adv-x="794" 
d="M65 688h225v-274h213v274h226v-688h-226v270h-213v-270h-225v688z" />
    <glyph glyph-name="Hbar" unicode="&#x126;" horiz-adv-x="804" 
d="M70 478h-28v85h28v109h225v-109h213v109h225v-109h30v-85h-30v-478h-225v270h-213v-270h-225v478zM508 414v64h-213v-64h213z" />
    <glyph glyph-name="Hcircumflex" unicode="&#x124;" horiz-adv-x="794" 
d="M65 688h225v-274h213v274h226v-688h-226v270h-213v-270h-225v688zM304 1022h185l123 -249h-166l-38 106l-12 38l-10 -38l-39 -106h-166z" />
    <glyph glyph-name="I" unicode="I" horiz-adv-x="361" 
d="M65 688h231v-688h-231v688z" />
    <glyph glyph-name="IJ" unicode="&#x132;" horiz-adv-x="758" 
d="M133 34l46 155q52 -20 82 -29t65 -9q62 0 95.5 12.5t49.5 48.5t16 108v13q-21 -56 -64.5 -82.5t-113.5 -26.5q-69 0 -126 31.5t-90.5 90.5t-33.5 139v203h226v-203q0 -52 24.5 -81t65.5 -29q40 0 63.5 22.5t34.5 67.5v223h226v-371q0 -91 -39 -166.5t-117 -121
t-189 -45.5q-135 0 -221 50z" />
    <glyph glyph-name="Iacute" unicode="&#xcd;" horiz-adv-x="361" 
d="M65 688h231v-688h-231v688zM59 870l293 205l101 -179l-333 -133z" />
    <glyph glyph-name="Ibreve" unicode="&#x12c;" horiz-adv-x="361" 
d="M65 688h231v-688h-231v688zM40.5 827.5q-52.5 64.5 -56.5 193.5h141q0 -133 56 -133q26 0 39.5 30.5t13.5 102.5h143q-4 -131 -56 -194.5t-140 -63.5t-140.5 64.5z" />
    <glyph glyph-name="Icircumflex" unicode="&#xce;" horiz-adv-x="361" 
d="M65 688h231v-688h-231v688zM88 1022h185l123 -249h-166l-38 106l-12 38l-10 -38l-39 -106h-166z" />
    <glyph glyph-name="uni0208" unicode="&#x208;" horiz-adv-x="361" 
d="M65 688h231v-688h-231v688zM-103 1013l157 64l104 -276l-107 -38zM124 1035l166 40l61 -288l-113 -23z" />
    <glyph glyph-name="Idieresis" unicode="&#xcf;" horiz-adv-x="361" 
d="M65 688h231v-688h-231v688zM-39.5 792q-32.5 29 -32.5 71q0 43 34 72.5t78 29.5q46 0 79.5 -30.5t33.5 -71.5q0 -43 -34 -71.5t-79 -28.5q-47 0 -79.5 29zM242 793q-32 30 -32 70q0 44 34.5 73t78.5 29q33 0 58 -15t39 -38.5t14 -48.5q0 -43 -33 -71.5t-78 -28.5
q-49 0 -81 30z" />
    <glyph glyph-name="Idotaccent" unicode="&#x130;" horiz-adv-x="361" 
d="M65 688h231v-688h-231v688zM101.5 792.5q-32.5 29.5 -32.5 72.5t34 72t78 29q46 0 79.5 -30t33.5 -71q0 -44 -34 -73t-79 -29q-47 0 -79.5 29.5z" />
    <glyph glyph-name="uni1ECA" unicode="&#x1eca;" horiz-adv-x="361" 
d="M65 688h231v-688h-231v688zM101.5 -248.5q-32.5 29.5 -32.5 72.5t34 72t78 29q46 0 79.5 -30t33.5 -71q0 -44 -34 -73t-79 -29q-47 0 -79.5 29.5z" />
    <glyph glyph-name="Igrave" unicode="&#xcc;" horiz-adv-x="361" 
d="M65 688h231v-688h-231v688zM-91 896l101 179l293 -205l-61 -107z" />
    <glyph glyph-name="uni1EC8" unicode="&#x1ec8;" horiz-adv-x="361" 
d="M65 688h231v-688h-231v688zM117 808q0 23 10 37t29 29q15 13 22 22.5t7 22.5q0 11 -10 18t-31 7q-27 0 -70 -15l-8 83q57 20 123 20q69 0 101 -24t32 -66q0 -31 -11.5 -49.5t-32.5 -38.5q-19 -18 -27.5 -31t-8.5 -33v-17h-122q-3 17 -3 35z" />
    <glyph glyph-name="uni020A" unicode="&#x20a;" horiz-adv-x="361" 
d="M65 688h231v-688h-231v688zM40 967.5q52 63.5 140 63.5t140.5 -64.5t56.5 -193.5h-141q0 133 -56 133q-26 0 -39.5 -30.5t-13.5 -102.5h-143q4 131 56 194.5z" />
    <glyph glyph-name="Imacron" unicode="&#x12a;" horiz-adv-x="361" 
d="M65 688h231v-688h-231v688zM7 901h348v-128h-348v128z" />
    <glyph glyph-name="Iogonek" unicode="&#x12e;" horiz-adv-x="361" 
d="M197 -140q0 -41 48 -41q20 0 47 9l1 -58q-43 -18 -93 -18q-63 0 -97 24.5t-34 65.5q0 43 35.5 83.5t102.5 74.5h-142v688h231v-688q-99 -82 -99 -140z" />
    <glyph glyph-name="Itilde" unicode="&#x128;" horiz-adv-x="361" 
d="M65 688h231v-688h-231v688zM-62 813q28 78 72.5 117.5t99.5 39.5q21 0 39 -6.5t41 -19.5q21 -11 35.5 -16.5t30.5 -5.5q15 0 28.5 12t30.5 37l108 -47q-28 -78 -72.5 -118t-99.5 -40q-21 0 -39 6.5t-41 19.5q-21 11 -35.5 16.5t-30.5 5.5q-15 0 -28.5 -12t-30.5 -37z" />
    <glyph glyph-name="J" unicode="J" horiz-adv-x="461" 
d="M-1 8l47 124q40 -14 68 -14q67 0 67 83v487h215v-487q0 -115 -60 -180.5t-165 -65.5q-92 0 -172 53z" />
    <glyph glyph-name="Jcircumflex" unicode="&#x134;" horiz-adv-x="461" 
d="M-1 8l47 124q40 -14 68 -14q67 0 67 83v487h215v-487q0 -115 -60 -180.5t-165 -65.5q-92 0 -172 53zM196 1022h185l123 -249h-166l-38 106l-12 38l-10 -38l-39 -106h-166z" />
    <glyph glyph-name="K" unicode="K" horiz-adv-x="767" 
d="M65 688h232v-281h72l133 281h231v-45l-158 -296l181 -302v-45h-243l-148 273h-68v-273h-232v688z" />
    <glyph glyph-name="Kcommaaccent" unicode="&#x136;" horiz-adv-x="767" 
d="M65 688h232v-281h72l133 281h231v-45l-158 -296l181 -302v-45h-243l-148 273h-68v-273h-232v688zM301 -290q42 0 59.5 10.5t20.5 34.5h-80v160h185v-87q0 -107 -42 -153t-143 -46v81z" />
    <glyph glyph-name="L" unicode="L" horiz-adv-x="538" 
d="M65 688h216v-536h239v-152h-455v688z" />
    <glyph glyph-name="uni01C7" unicode="&#x1c7;" horiz-adv-x="999" 
d="M65 688h216v-536h239v-152h-455v688zM537 8l47 124q40 -14 68 -14q67 0 67 83v487h215v-487q0 -115 -60 -180.5t-165 -65.5q-92 0 -172 53z" />
    <glyph glyph-name="Lacute" unicode="&#x139;" horiz-adv-x="538" 
d="M65 688h216v-536h239v-152h-455v688zM51 870l293 205l101 -179l-333 -133z" />
    <glyph glyph-name="Lcaron" unicode="&#x13d;" horiz-adv-x="538" 
d="M65 688h216v-536h239v-152h-455v688zM341 483q42 0 59.5 10.5t20.5 34.5h-80v160h185v-87q0 -107 -42 -153t-143 -46v81z" />
    <glyph glyph-name="Lcommaaccent" unicode="&#x13b;" horiz-adv-x="538" 
d="M65 688h216v-536h239v-152h-455v688zM200 -290q42 0 59.5 10.5t20.5 34.5h-80v160h185v-87q0 -107 -42 -153t-143 -46v81z" />
    <glyph glyph-name="Ldot" unicode="&#x13f;" horiz-adv-x="538" 
d="M65 688h216v-536h239v-152h-455v688zM363 346.5q-30 26.5 -30 70.5q0 40 30.5 69t72.5 29q43 0 72.5 -27.5t29.5 -70.5q0 -42 -29.5 -69.5t-72.5 -27.5t-73 26.5z" />
    <glyph glyph-name="uni01C8" unicode="&#x1c8;" horiz-adv-x="853" 
d="M65 688h216v-536h239v-152h-455v688zM612.5 595q-32.5 30 -32.5 72t34 71.5t78 29.5q33 0 58.5 -14.5t40 -38t14.5 -48.5q0 -44 -33.5 -73t-79.5 -29q-47 0 -79.5 30zM409 -163l46 124q45 -15 69 -15q66 0 66 83v472h211v-472q0 -114 -59 -179.5t-162 -65.5
q-92 0 -171 53z" />
    <glyph glyph-name="Lslash" unicode="&#x141;" horiz-adv-x="564" 
d="M93 323l-90 -23v85l90 23v280h215v-226l149 39v-85l-149 -39v-225h239v-152h-454v323z" />
    <glyph glyph-name="M" unicode="M" horiz-adv-x="887" 
d="M65 688h208l172 -334l168 334h208v-688h-208v367l-127 -240h-85l-128 240v-367h-208v688z" />
    <glyph glyph-name="N" unicode="N" horiz-adv-x="784" 
d="M65 688h201l274 -371v371h179v-688h-200l-276 358v-358h-178v688z" />
    <glyph glyph-name="uni01CA" unicode="&#x1ca;" horiz-adv-x="1245" 
d="M65 688h201l274 -371v371h179v-688h-200l-276 358v-358h-178v688zM783 8l47 124q40 -14 68 -14q67 0 67 83v487h215v-487q0 -115 -60 -180.5t-165 -65.5q-92 0 -172 53z" />
    <glyph glyph-name="Nacute" unicode="&#x143;" horiz-adv-x="784" 
d="M65 688h201l274 -371v371h179v-688h-200l-276 358v-358h-178v688zM270 870l293 205l101 -179l-333 -133z" />
    <glyph glyph-name="Ncaron" unicode="&#x147;" horiz-adv-x="784" 
d="M65 688h201l274 -371v371h179v-688h-200l-276 358v-358h-178v688zM176 1022h166l39 -107l10 -39q13 41 27 78q8 22 13.5 39t9.5 29h166l-123 -249h-185z" />
    <glyph glyph-name="Ncommaaccent" unicode="&#x145;" horiz-adv-x="784" 
d="M65 688h201l274 -371v371h179v-688h-200l-276 358v-358h-178v688zM299 -290q42 0 59.5 10.5t20.5 34.5h-80v160h185v-87q0 -107 -42 -153t-143 -46v81z" />
    <glyph glyph-name="Eng" unicode="&#x14a;" horiz-adv-x="784" 
d="M363 -207l43 126q20 -8 37 -11.5t41 -3.5q52 0 56 70l-297 384v-358h-178v688h201l274 -371v371h179v-691q0 -114 -50 -179.5t-137 -65.5q-96 0 -169 41z" />
    <glyph glyph-name="uni01CB" unicode="&#x1cb;" horiz-adv-x="1125" 
d="M65 688h201l274 -371v371h179v-688h-200l-276 358v-358h-178v688zM884.5 595q-32.5 30 -32.5 72t34 71.5t78 29.5q33 0 58.5 -14.5t40 -38t14.5 -48.5q0 -44 -33.5 -73t-79.5 -29q-47 0 -79.5 30zM681 -163l46 124q45 -15 69 -15q66 0 66 83v472h211v-472
q0 -114 -59 -179.5t-162 -65.5q-92 0 -171 53z" />
    <glyph glyph-name="Ntilde" unicode="&#xd1;" horiz-adv-x="784" 
d="M65 688h201l274 -371v371h179v-688h-200l-276 358v-358h-178v688zM149 813q28 78 72.5 117.5t99.5 39.5q21 0 39 -6.5t41 -19.5q21 -11 35.5 -16.5t30.5 -5.5q15 0 28.5 12t30.5 37l108 -47q-28 -78 -72.5 -118t-99.5 -40q-21 0 -39 6.5t-41 19.5q-21 11 -35.5 16.5
t-30.5 5.5q-15 0 -28.5 -12t-30.5 -37z" />
    <glyph glyph-name="O" unicode="O" horiz-adv-x="798" 
d="M207.5 30q-83.5 46 -130 127.5t-46.5 185.5q0 105 46.5 187t130 127.5t191.5 45.5t191.5 -45.5t130 -127t46.5 -187.5q0 -104 -46.5 -185.5t-130.5 -127.5t-191 -46q-108 0 -191.5 46zM502.5 215q40.5 49 40.5 129q0 53 -18.5 94.5t-51.5 65t-75 23.5q-41 0 -74 -23.5
t-51 -65t-18 -94.5q0 -80 40 -129t104 -49q63 0 103.5 49z" />
    <glyph glyph-name="Oacute" unicode="&#xd3;" horiz-adv-x="798" 
d="M207.5 30q-83.5 46 -130 127.5t-46.5 185.5q0 105 46.5 187t130 127.5t191.5 45.5t191.5 -45.5t130 -127t46.5 -187.5q0 -104 -46.5 -185.5t-130.5 -127.5t-191 -46q-108 0 -191.5 46zM502.5 215q40.5 49 40.5 129q0 53 -18.5 94.5t-51.5 65t-75 23.5q-41 0 -74 -23.5
t-51 -65t-18 -94.5q0 -80 40 -129t104 -49q63 0 103.5 49zM277 870l293 205l101 -179l-333 -133z" />
    <glyph glyph-name="Obreve" unicode="&#x14e;" horiz-adv-x="798" 
d="M207.5 30q-83.5 46 -130 127.5t-46.5 185.5q0 105 46.5 187t130 127.5t191.5 45.5t191.5 -45.5t130 -127t46.5 -187.5q0 -104 -46.5 -185.5t-130.5 -127.5t-191 -46q-108 0 -191.5 46zM502.5 215q40.5 49 40.5 129q0 53 -18.5 94.5t-51.5 65t-75 23.5q-41 0 -74 -23.5
t-51 -65t-18 -94.5q0 -80 40 -129t104 -49q63 0 103.5 49zM258.5 827.5q-52.5 64.5 -56.5 193.5h141q0 -133 56 -133q26 0 39.5 30.5t13.5 102.5h143q-4 -131 -56 -194.5t-140 -63.5t-140.5 64.5z" />
    <glyph glyph-name="Ocircumflex" unicode="&#xd4;" horiz-adv-x="798" 
d="M207.5 30q-83.5 46 -130 127.5t-46.5 185.5q0 105 46.5 187t130 127.5t191.5 45.5t191.5 -45.5t130 -127t46.5 -187.5q0 -104 -46.5 -185.5t-130.5 -127.5t-191 -46q-108 0 -191.5 46zM502.5 215q40.5 49 40.5 129q0 53 -18.5 94.5t-51.5 65t-75 23.5q-41 0 -74 -23.5
t-51 -65t-18 -94.5q0 -80 40 -129t104 -49q63 0 103.5 49zM306 1022h185l123 -249h-166l-38 106l-12 38l-10 -38l-39 -106h-166z" />
    <glyph glyph-name="uni1ED0" unicode="&#x1ed0;" horiz-adv-x="798" 
d="M207.5 30q-83.5 46 -130 127.5t-46.5 185.5q0 105 46.5 187t130 127.5t191.5 45.5t191.5 -45.5t130 -127t46.5 -187.5q0 -104 -46.5 -185.5t-130.5 -127.5t-191 -46q-108 0 -191.5 46zM502.5 215q40.5 49 40.5 129q0 53 -18.5 94.5t-51.5 65t-75 23.5q-41 0 -74 -23.5
t-51 -65t-18 -94.5q0 -80 40 -129t104 -49q63 0 103.5 49zM217 1096l293 175l85 -161l-333 -103zM306 971h185l123 -198h-163l-53 101l-52 -101h-163z" />
    <glyph glyph-name="uni1ED8" unicode="&#x1ed8;" horiz-adv-x="798" 
d="M207.5 30q-83.5 46 -130 127.5t-46.5 185.5q0 105 46.5 187t130 127.5t191.5 45.5t191.5 -45.5t130 -127t46.5 -187.5q0 -104 -46.5 -185.5t-130.5 -127.5t-191 -46q-108 0 -191.5 46zM502.5 215q40.5 49 40.5 129q0 53 -18.5 94.5t-51.5 65t-75 23.5q-41 0 -74 -23.5
t-51 -65t-18 -94.5q0 -80 40 -129t104 -49q63 0 103.5 49zM319.5 -248.5q-32.5 29.5 -32.5 72.5t34 72t78 29q46 0 79.5 -30t33.5 -71q0 -44 -34 -73t-79 -29q-47 0 -79.5 29.5zM306 1022h185l123 -249h-166l-38 106l-12 38l-10 -38l-39 -106h-166z" />
    <glyph glyph-name="uni1ED2" unicode="&#x1ed2;" horiz-adv-x="798" 
d="M207.5 30q-83.5 46 -130 127.5t-46.5 185.5q0 105 46.5 187t130 127.5t191.5 45.5t191.5 -45.5t130 -127t46.5 -187.5q0 -104 -46.5 -185.5t-130.5 -127.5t-191 -46q-108 0 -191.5 46zM502.5 215q40.5 49 40.5 129q0 53 -18.5 94.5t-51.5 65t-75 23.5q-41 0 -74 -23.5
t-51 -65t-18 -94.5q0 -80 40 -129t104 -49q63 0 103.5 49zM203 1110l85 161l293 -175l-45 -89zM307 971h185l123 -198h-163l-52 101l-53 -101h-163z" />
    <glyph glyph-name="uni1ED4" unicode="&#x1ed4;" horiz-adv-x="798" 
d="M207.5 30q-83.5 46 -130 127.5t-46.5 185.5q0 105 46.5 187t130 127.5t191.5 45.5t191.5 -45.5t130 -127t46.5 -187.5q0 -104 -46.5 -185.5t-130.5 -127.5t-191 -46q-108 0 -191.5 46zM502.5 215q40.5 49 40.5 129q0 53 -18.5 94.5t-51.5 65t-75 23.5q-41 0 -74 -23.5
t-51 -65t-18 -94.5q0 -80 40 -129t104 -49q63 0 103.5 49zM335 1057q0 18 9 29.5t27 26.5q16 11 24 21t8 24q0 11 -10 18t-31 7q-27 0 -70 -15l-8 83q57 20 123 20q69 0 101 -24t32 -66q0 -32 -12 -50.5t-35 -38.5q-17 -15 -25 -26t-8 -27v-17h-122q-3 17 -3 35zM307 971
h185l123 -198h-163l-52 101l-53 -101h-163z" />
    <glyph glyph-name="uni1ED6" unicode="&#x1ed6;" horiz-adv-x="798" 
d="M207.5 30q-83.5 46 -130 127.5t-46.5 185.5q0 105 46.5 187t130 127.5t191.5 45.5t191.5 -45.5t130 -127t46.5 -187.5q0 -104 -46.5 -185.5t-130.5 -127.5t-191 -46q-108 0 -191.5 46zM502.5 215q40.5 49 40.5 129q0 53 -18.5 94.5t-51.5 65t-75 23.5q-41 0 -74 -23.5
t-51 -65t-18 -94.5q0 -80 40 -129t104 -49q63 0 103.5 49zM193 1057q24 66 62 99.5t84 33.5q18 0 33.5 -5t34.5 -15q21 -10 32 -14t24 -4q14 0 25.5 9.5t24.5 29.5l92 -40q-24 -66 -61.5 -100t-84.5 -34q-18 0 -33.5 5t-34.5 15q-21 10 -32 14t-24 4q-14 0 -25.5 -9.5
t-24.5 -29.5zM307 971h185l123 -198h-163l-52 101l-53 -101h-163z" />
    <glyph glyph-name="uni020C" unicode="&#x20c;" horiz-adv-x="798" 
d="M207.5 30q-83.5 46 -130 127.5t-46.5 185.5q0 105 46.5 187t130 127.5t191.5 45.5t191.5 -45.5t130 -127t46.5 -187.5q0 -104 -46.5 -185.5t-130.5 -127.5t-191 -46q-108 0 -191.5 46zM502.5 215q40.5 49 40.5 129q0 53 -18.5 94.5t-51.5 65t-75 23.5q-41 0 -74 -23.5
t-51 -65t-18 -94.5q0 -80 40 -129t104 -49q63 0 103.5 49zM115 1013l157 64l104 -276l-107 -38zM342 1035l166 40l61 -288l-113 -23z" />
    <glyph glyph-name="Odieresis" unicode="&#xd6;" horiz-adv-x="798" 
d="M207.5 30q-83.5 46 -130 127.5t-46.5 185.5q0 105 46.5 187t130 127.5t191.5 45.5t191.5 -45.5t130 -127t46.5 -187.5q0 -104 -46.5 -185.5t-130.5 -127.5t-191 -46q-108 0 -191.5 46zM502.5 215q40.5 49 40.5 129q0 53 -18.5 94.5t-51.5 65t-75 23.5q-41 0 -74 -23.5
t-51 -65t-18 -94.5q0 -80 40 -129t104 -49q63 0 103.5 49zM178.5 792q-32.5 29 -32.5 71q0 43 34 72.5t78 29.5q46 0 79.5 -30.5t33.5 -71.5q0 -43 -34 -71.5t-79 -28.5q-47 0 -79.5 29zM460 793q-32 30 -32 70q0 44 34.5 73t78.5 29q33 0 58 -15t39 -38.5t14 -48.5
q0 -43 -33 -71.5t-78 -28.5q-49 0 -81 30z" />
    <glyph glyph-name="uni022A" unicode="&#x22a;" horiz-adv-x="798" 
d="M207.5 30q-83.5 46 -130 127.5t-46.5 185.5q0 105 46.5 187t130 127.5t191.5 45.5t191.5 -45.5t130 -127t46.5 -187.5q0 -104 -46.5 -185.5t-130.5 -127.5t-191 -46q-108 0 -191.5 46zM502.5 215q40.5 49 40.5 129q0 53 -18.5 94.5t-51.5 65t-75 23.5q-41 0 -74 -23.5
t-51 -65t-18 -94.5q0 -80 40 -129t104 -49q63 0 103.5 49zM178.5 792q-32.5 29 -32.5 71q0 43 34 72.5t78 29.5q46 0 79.5 -30.5t33.5 -71.5q0 -43 -34 -71.5t-79 -28.5q-47 0 -79.5 29zM460 793q-32 30 -32 70q0 44 34.5 73t78.5 29q33 0 58 -15t39 -38.5t14 -48.5
q0 -43 -33 -71.5t-78 -28.5q-49 0 -81 30zM225 1145h348v-128h-348v128z" />
    <glyph glyph-name="uni0230" unicode="&#x230;" horiz-adv-x="798" 
d="M207.5 30q-83.5 46 -130 127.5t-46.5 185.5q0 105 46.5 187t130 127.5t191.5 45.5t191.5 -45.5t130 -127t46.5 -187.5q0 -104 -46.5 -185.5t-130.5 -127.5t-191 -46q-108 0 -191.5 46zM502.5 215q40.5 49 40.5 129q0 53 -18.5 94.5t-51.5 65t-75 23.5q-41 0 -74 -23.5
t-51 -65t-18 -94.5q0 -80 40 -129t104 -49q63 0 103.5 49zM319.5 792.5q-32.5 29.5 -32.5 72.5t34 72t78 29q46 0 79.5 -30t33.5 -71q0 -44 -34 -73t-79 -29q-47 0 -79.5 29.5zM225 1145h348v-128h-348v128z" />
    <glyph glyph-name="uni1ECC" unicode="&#x1ecc;" horiz-adv-x="798" 
d="M207.5 30q-83.5 46 -130 127.5t-46.5 185.5q0 105 46.5 187t130 127.5t191.5 45.5t191.5 -45.5t130 -127t46.5 -187.5q0 -104 -46.5 -185.5t-130.5 -127.5t-191 -46q-108 0 -191.5 46zM502.5 215q40.5 49 40.5 129q0 53 -18.5 94.5t-51.5 65t-75 23.5q-41 0 -74 -23.5
t-51 -65t-18 -94.5q0 -80 40 -129t104 -49q63 0 103.5 49zM319.5 -248.5q-32.5 29.5 -32.5 72.5t34 72t78 29q46 0 79.5 -30t33.5 -71q0 -44 -34 -73t-79 -29q-47 0 -79.5 29.5z" />
    <glyph glyph-name="Ograve" unicode="&#xd2;" horiz-adv-x="798" 
d="M207.5 30q-83.5 46 -130 127.5t-46.5 185.5q0 105 46.5 187t130 127.5t191.5 45.5t191.5 -45.5t130 -127t46.5 -187.5q0 -104 -46.5 -185.5t-130.5 -127.5t-191 -46q-108 0 -191.5 46zM502.5 215q40.5 49 40.5 129q0 53 -18.5 94.5t-51.5 65t-75 23.5q-41 0 -74 -23.5
t-51 -65t-18 -94.5q0 -80 40 -129t104 -49q63 0 103.5 49zM127 896l101 179l293 -205l-61 -107z" />
    <glyph glyph-name="uni1ECE" unicode="&#x1ece;" horiz-adv-x="798" 
d="M207.5 30q-83.5 46 -130 127.5t-46.5 185.5q0 105 46.5 187t130 127.5t191.5 45.5t191.5 -45.5t130 -127t46.5 -187.5q0 -104 -46.5 -185.5t-130.5 -127.5t-191 -46q-108 0 -191.5 46zM502.5 215q40.5 49 40.5 129q0 53 -18.5 94.5t-51.5 65t-75 23.5q-41 0 -74 -23.5
t-51 -65t-18 -94.5q0 -80 40 -129t104 -49q63 0 103.5 49zM335 808q0 23 10 37t29 29q15 13 22 22.5t7 22.5q0 11 -10 18t-31 7q-27 0 -70 -15l-8 83q57 20 123 20q69 0 101 -24t32 -66q0 -31 -11.5 -49.5t-32.5 -38.5q-19 -18 -27.5 -31t-8.5 -33v-17h-122q-3 17 -3 35z
" />
    <glyph glyph-name="Ohorn" unicode="&#x1a0;" horiz-adv-x="798" 
d="M207.5 30q-83.5 46 -130 127.5t-46.5 185.5q0 105 46.5 187t130 127.5t191.5 45.5q32 0 102 -7q47 -7 85 -7q35 0 52 7.5t24.5 29t7.5 66.5h117q0 -98 -27 -141.5t-91 -51.5q98 -104 98 -256q0 -104 -46.5 -185.5t-130.5 -127.5t-191 -46q-108 0 -191.5 46zM502.5 215
q40.5 49 40.5 129q0 53 -18.5 94.5t-51.5 65t-75 23.5q-41 0 -74 -23.5t-51 -65t-18 -94.5q0 -80 40 -129t104 -49q63 0 103.5 49z" />
    <glyph glyph-name="uni1EDA" unicode="&#x1eda;" horiz-adv-x="798" 
d="M207.5 30q-83.5 46 -130 127.5t-46.5 185.5q0 105 46.5 187t130 127.5t191.5 45.5q32 0 102 -7q47 -7 85 -7q35 0 52 7.5t24.5 29t7.5 66.5h117q0 -98 -27 -141.5t-91 -51.5q98 -104 98 -256q0 -104 -46.5 -185.5t-130.5 -127.5t-191 -46q-108 0 -191.5 46zM502.5 215
q40.5 49 40.5 129q0 53 -18.5 94.5t-51.5 65t-75 23.5q-41 0 -74 -23.5t-51 -65t-18 -94.5q0 -80 40 -129t104 -49q63 0 103.5 49zM276 870l293 205l101 -179l-333 -133z" />
    <glyph glyph-name="uni1EE2" unicode="&#x1ee2;" horiz-adv-x="798" 
d="M207.5 30q-83.5 46 -130 127.5t-46.5 185.5q0 105 46.5 187t130 127.5t191.5 45.5q32 0 102 -7q47 -7 85 -7q35 0 52 7.5t24.5 29t7.5 66.5h117q0 -98 -27 -141.5t-91 -51.5q98 -104 98 -256q0 -104 -46.5 -185.5t-130.5 -127.5t-191 -46q-108 0 -191.5 46zM502.5 215
q40.5 49 40.5 129q0 53 -18.5 94.5t-51.5 65t-75 23.5q-41 0 -74 -23.5t-51 -65t-18 -94.5q0 -80 40 -129t104 -49q63 0 103.5 49zM319.5 -248.5q-32.5 29.5 -32.5 72.5t34 72t78 29q46 0 79.5 -30t33.5 -71q0 -44 -34 -73t-79 -29q-47 0 -79.5 29.5z" />
    <glyph glyph-name="uni1EDC" unicode="&#x1edc;" horiz-adv-x="798" 
d="M207.5 30q-83.5 46 -130 127.5t-46.5 185.5q0 105 46.5 187t130 127.5t191.5 45.5q32 0 102 -7q47 -7 85 -7q35 0 52 7.5t24.5 29t7.5 66.5h117q0 -98 -27 -141.5t-91 -51.5q98 -104 98 -256q0 -104 -46.5 -185.5t-130.5 -127.5t-191 -46q-108 0 -191.5 46zM502.5 215
q40.5 49 40.5 129q0 53 -18.5 94.5t-51.5 65t-75 23.5q-41 0 -74 -23.5t-51 -65t-18 -94.5q0 -80 40 -129t104 -49q63 0 103.5 49zM126 896l101 179l293 -205l-61 -107z" />
    <glyph glyph-name="uni1EDE" unicode="&#x1ede;" horiz-adv-x="798" 
d="M207.5 30q-83.5 46 -130 127.5t-46.5 185.5q0 105 46.5 187t130 127.5t191.5 45.5q32 0 102 -7q47 -7 85 -7q35 0 52 7.5t24.5 29t7.5 66.5h117q0 -98 -27 -141.5t-91 -51.5q98 -104 98 -256q0 -104 -46.5 -185.5t-130.5 -127.5t-191 -46q-108 0 -191.5 46zM502.5 215
q40.5 49 40.5 129q0 53 -18.5 94.5t-51.5 65t-75 23.5q-41 0 -74 -23.5t-51 -65t-18 -94.5q0 -80 40 -129t104 -49q63 0 103.5 49zM334 808q0 23 10 37t29 29q15 13 22 22.5t7 22.5q0 11 -10 18t-31 7q-27 0 -70 -15l-8 83q57 20 123 20q69 0 101 -24t32 -66
q0 -31 -11.5 -49.5t-32.5 -38.5q-19 -18 -27.5 -31t-8.5 -33v-17h-122q-3 17 -3 35z" />
    <glyph glyph-name="uni1EE0" unicode="&#x1ee0;" horiz-adv-x="798" 
d="M207.5 30q-83.5 46 -130 127.5t-46.5 185.5q0 105 46.5 187t130 127.5t191.5 45.5q32 0 102 -7q47 -7 85 -7q35 0 52 7.5t24.5 29t7.5 66.5h117q0 -98 -27 -141.5t-91 -51.5q98 -104 98 -256q0 -104 -46.5 -185.5t-130.5 -127.5t-191 -46q-108 0 -191.5 46zM502.5 215
q40.5 49 40.5 129q0 53 -18.5 94.5t-51.5 65t-75 23.5q-41 0 -74 -23.5t-51 -65t-18 -94.5q0 -80 40 -129t104 -49q63 0 103.5 49zM155 813q28 78 72.5 117.5t99.5 39.5q21 0 39 -6.5t41 -19.5q21 -11 35.5 -16.5t30.5 -5.5q15 0 28.5 12t30.5 37l108 -47
q-28 -78 -72.5 -118t-99.5 -40q-21 0 -39 6.5t-41 19.5q-21 11 -35.5 16.5t-30.5 5.5q-15 0 -28.5 -12t-30.5 -37z" />
    <glyph glyph-name="Ohungarumlaut" unicode="&#x150;" horiz-adv-x="798" 
d="M207.5 30q-83.5 46 -130 127.5t-46.5 185.5q0 105 46.5 187t130 127.5t191.5 45.5t191.5 -45.5t130 -127t46.5 -187.5q0 -104 -46.5 -185.5t-130.5 -127.5t-191 -46q-108 0 -191.5 46zM502.5 215q40.5 49 40.5 129q0 53 -18.5 94.5t-51.5 65t-75 23.5q-41 0 -74 -23.5
t-51 -65t-18 -94.5q0 -80 40 -129t104 -49q63 0 103.5 49zM422 801l104 276l157 -64l-154 -250zM229 787l61 288l166 -40l-114 -271z" />
    <glyph glyph-name="uni020E" unicode="&#x20e;" horiz-adv-x="798" 
d="M207.5 30q-83.5 46 -130 127.5t-46.5 185.5q0 105 46.5 187t130 127.5t191.5 45.5t191.5 -45.5t130 -127t46.5 -187.5q0 -104 -46.5 -185.5t-130.5 -127.5t-191 -46q-108 0 -191.5 46zM502.5 215q40.5 49 40.5 129q0 53 -18.5 94.5t-51.5 65t-75 23.5q-41 0 -74 -23.5
t-51 -65t-18 -94.5q0 -80 40 -129t104 -49q63 0 103.5 49zM258 967.5q52 63.5 140 63.5t140.5 -64.5t56.5 -193.5h-141q0 133 -56 133q-26 0 -39.5 -30.5t-13.5 -102.5h-143q4 131 56 194.5z" />
    <glyph glyph-name="Omacron" unicode="&#x14c;" horiz-adv-x="798" 
d="M207.5 30q-83.5 46 -130 127.5t-46.5 185.5q0 105 46.5 187t130 127.5t191.5 45.5t191.5 -45.5t130 -127t46.5 -187.5q0 -104 -46.5 -185.5t-130.5 -127.5t-191 -46q-108 0 -191.5 46zM502.5 215q40.5 49 40.5 129q0 53 -18.5 94.5t-51.5 65t-75 23.5q-41 0 -74 -23.5
t-51 -65t-18 -94.5q0 -80 40 -129t104 -49q63 0 103.5 49zM225 901h348v-128h-348v128z" />
    <glyph glyph-name="uni01EA" unicode="&#x1ea;" horiz-adv-x="798" 
d="M353 -213.5q-34 24.5 -34 65.5q0 77 101 132h-21q-108 0 -191.5 46t-130 127.5t-46.5 185.5q0 105 46.5 187t130 127.5t191.5 45.5t191.5 -45.5t130 -127t46.5 -187.5q0 -99 -43 -179t-120 -126q-91 -54 -124 -94t-33 -74q0 -41 48 -41q20 0 47 9l1 -58q-43 -18 -93 -18
q-63 0 -97 24.5zM502.5 215q40.5 49 40.5 129q0 53 -18.5 94.5t-51.5 65t-75 23.5q-41 0 -74 -23.5t-51 -65t-18 -94.5q0 -80 40 -129t104 -49q63 0 103.5 49z" />
    <glyph glyph-name="Oslash" unicode="&#xd8;" horiz-adv-x="799" 
d="M260 7q-106 37 -167.5 126.5t-61.5 209.5q0 105 46.5 187t130 127.5t191.5 45.5q35 0 60 -4l33 114h85l-38 -133q106 -36 167 -125.5t61 -211.5q0 -104 -46.5 -185.5t-130.5 -127.5t-191 -46q-34 0 -59 4l-33 -114h-85zM410 527h-12q-41 0 -74 -23.5t-51 -65t-18 -94.5
q0 -49 15.5 -87t43.5 -62zM399 166q63 0 103.5 49t40.5 129q0 48 -15.5 87t-42.5 63l-94 -328h8z" />
    <glyph glyph-name="Oslashacute" unicode="&#x1fe;" horiz-adv-x="799" 
d="M260 7q-106 37 -167.5 126.5t-61.5 209.5q0 105 46.5 187t130 127.5t191.5 45.5q35 0 60 -4l33 114h85l-38 -133q106 -36 167 -125.5t61 -211.5q0 -104 -46.5 -185.5t-130.5 -127.5t-191 -46q-34 0 -59 4l-33 -114h-85zM410 527h-12q-41 0 -74 -23.5t-51 -65t-18 -94.5
q0 -49 15.5 -87t43.5 -62zM399 166q63 0 103.5 49t40.5 129q0 48 -15.5 87t-42.5 63l-94 -328h8zM278 870l293 205l101 -179l-333 -133z" />
    <glyph glyph-name="Otilde" unicode="&#xd5;" horiz-adv-x="798" 
d="M207.5 30q-83.5 46 -130 127.5t-46.5 185.5q0 105 46.5 187t130 127.5t191.5 45.5t191.5 -45.5t130 -127t46.5 -187.5q0 -104 -46.5 -185.5t-130.5 -127.5t-191 -46q-108 0 -191.5 46zM502.5 215q40.5 49 40.5 129q0 53 -18.5 94.5t-51.5 65t-75 23.5q-41 0 -74 -23.5
t-51 -65t-18 -94.5q0 -80 40 -129t104 -49q63 0 103.5 49zM156 813q28 78 72.5 117.5t99.5 39.5q21 0 39 -6.5t41 -19.5q21 -11 35.5 -16.5t30.5 -5.5q15 0 28.5 12t30.5 37l108 -47q-28 -78 -72.5 -118t-99.5 -40q-21 0 -39 6.5t-41 19.5q-21 11 -35.5 16.5t-30.5 5.5
q-15 0 -28.5 -12t-30.5 -37z" />
    <glyph glyph-name="uni022C" unicode="&#x22c;" horiz-adv-x="798" 
d="M207.5 30q-83.5 46 -130 127.5t-46.5 185.5q0 105 46.5 187t130 127.5t191.5 45.5t191.5 -45.5t130 -127t46.5 -187.5q0 -104 -46.5 -185.5t-130.5 -127.5t-191 -46q-108 0 -191.5 46zM502.5 215q40.5 49 40.5 129q0 53 -18.5 94.5t-51.5 65t-75 23.5q-41 0 -74 -23.5
t-51 -65t-18 -94.5q0 -80 40 -129t104 -49q63 0 103.5 49zM156 813q28 78 72.5 117.5t99.5 39.5q21 0 39 -6.5t41 -19.5q21 -11 35.5 -16.5t30.5 -5.5q15 0 28.5 12t30.5 37l108 -47q-28 -78 -72.5 -118t-99.5 -40q-21 0 -39 6.5t-41 19.5q-21 11 -35.5 16.5t-30.5 5.5
q-15 0 -28.5 -12t-30.5 -37zM225 1145h348v-128h-348v128z" />
    <glyph glyph-name="OE" unicode="&#x152;" horiz-adv-x="1023" 
d="M181.5 30.5q-70.5 46.5 -110.5 128.5t-40 183q0 102 40.5 184t113 129.5t163.5 47.5q87 0 150 -48v33h478v-152h-240v-125h219v-126h-219v-135h240v-150h-481v33q-32 -23 -74.5 -36t-80.5 -13q-88 0 -158.5 46.5zM495 191v309q-56 26 -108 26q-60 0 -96 -49t-36 -133
q0 -83 36 -131t96 -48q55 0 108 26z" />
    <glyph glyph-name="P" unicode="P" horiz-adv-x="649" 
d="M65 688h248q154 0 238.5 -60t84.5 -168q0 -68 -41.5 -119t-113 -78.5t-158.5 -27.5h-42v-235h-216v688zM406 396q29 22 29 64t-28.5 63t-82.5 21h-43v-168q20 -2 43 -2q53 0 82 22z" />
    <glyph glyph-name="Thorn" unicode="&#xde;" horiz-adv-x="651" 
d="M65 688h215v-70h33q154 0 238.5 -59.5t84.5 -167.5q0 -68 -41 -119t-112.5 -78.5t-160.5 -27.5h-42v-166h-215v688zM405 327q30 22 30 64q0 39 -32 61.5t-80 22.5h-43v-168q11 -2 43 -2q52 0 82 22z" />
    <glyph glyph-name="Q" unicode="Q" horiz-adv-x="798" 
d="M420 -14q-12 -2 -22 -2q-107 0 -190.5 46t-130 127.5t-46.5 185.5q0 105 46.5 187t130 127.5t191.5 45.5t191.5 -45.5t130 -127t46.5 -187.5q0 -83 -33 -156.5t-95 -125.5l128 -84v-38l-126 -98zM502.5 215q40.5 49 40.5 129q0 53 -18.5 94.5t-51.5 65t-75 23.5
q-41 0 -74 -23.5t-51 -65t-18 -94.5q0 -80 40 -129t104 -49q63 0 103.5 49z" />
    <glyph glyph-name="R" unicode="R" horiz-adv-x="698" 
d="M356 158l-25 103h-47v-261h-219v688h303q86 0 151.5 -25.5t101.5 -71.5t36 -106q0 -67 -32.5 -112.5t-100.5 -74.5q7 -38 16 -69q12 -38 33 -53t61 -15q14 0 44 4v-163q-47 -18 -92 -18q-188 0 -230 174zM322 401q74 0 104.5 16.5t30.5 56.5q0 34 -25 49.5t-79 15.5h-69
v-138h38z" />
    <glyph glyph-name="Racute" unicode="&#x154;" horiz-adv-x="698" 
d="M356 158l-25 103h-47v-261h-219v688h303q86 0 151.5 -25.5t101.5 -71.5t36 -106q0 -67 -32.5 -112.5t-100.5 -74.5q7 -38 16 -69q12 -38 33 -53t61 -15q14 0 44 4v-163q-47 -18 -92 -18q-188 0 -230 174zM322 401q74 0 104.5 16.5t30.5 56.5q0 34 -25 49.5t-79 15.5h-69
v-138h38zM227 870l293 205l101 -179l-333 -133z" />
    <glyph glyph-name="Rcaron" unicode="&#x158;" horiz-adv-x="698" 
d="M356 158l-25 103h-47v-261h-219v688h303q86 0 151.5 -25.5t101.5 -71.5t36 -106q0 -67 -32.5 -112.5t-100.5 -74.5q7 -38 16 -69q12 -38 33 -53t61 -15q14 0 44 4v-163q-47 -18 -92 -18q-188 0 -230 174zM322 401q74 0 104.5 16.5t30.5 56.5q0 34 -25 49.5t-79 15.5h-69
v-138h38zM133 1022h166l39 -107l10 -39q13 41 27 78q8 22 13.5 39t9.5 29h166l-123 -249h-185z" />
    <glyph glyph-name="Rcommaaccent" unicode="&#x156;" horiz-adv-x="698" 
d="M356 158l-25 103h-47v-261h-219v688h303q86 0 151.5 -25.5t101.5 -71.5t36 -106q0 -67 -32.5 -112.5t-100.5 -74.5q7 -38 16 -69q12 -38 33 -53t61 -15q14 0 44 4v-163q-47 -18 -92 -18q-188 0 -230 174zM322 401q74 0 104.5 16.5t30.5 56.5q0 34 -25 49.5t-79 15.5h-69
v-138h38zM256 -290q42 0 59.5 10.5t20.5 34.5h-80v160h185v-87q0 -107 -42 -153t-143 -46v81z" />
    <glyph glyph-name="uni0210" unicode="&#x210;" horiz-adv-x="698" 
d="M356 158l-25 103h-47v-261h-219v688h303q86 0 151.5 -25.5t101.5 -71.5t36 -106q0 -67 -32.5 -112.5t-100.5 -74.5q7 -38 16 -69q12 -38 33 -53t61 -15q14 0 44 4v-163q-47 -18 -92 -18q-188 0 -230 174zM322 401q74 0 104.5 16.5t30.5 56.5q0 34 -25 49.5t-79 15.5h-69
v-138h38zM65 1013l157 64l104 -276l-107 -38zM292 1035l166 40l61 -288l-113 -23z" />
    <glyph glyph-name="uni0212" unicode="&#x212;" horiz-adv-x="698" 
d="M356 158l-25 103h-47v-261h-219v688h303q86 0 151.5 -25.5t101.5 -71.5t36 -106q0 -67 -32.5 -112.5t-100.5 -74.5q7 -38 16 -69q12 -38 33 -53t61 -15q14 0 44 4v-163q-47 -18 -92 -18q-188 0 -230 174zM322 401q74 0 104.5 16.5t30.5 56.5q0 34 -25 49.5t-79 15.5h-69
v-138h38zM208 967.5q52 63.5 140 63.5t140.5 -64.5t56.5 -193.5h-141q0 133 -56 133q-26 0 -39.5 -30.5t-13.5 -102.5h-143q4 131 56 194.5z" />
    <glyph glyph-name="S" unicode="S" horiz-adv-x="592" 
d="M40 36l50 155q103 -37 184 -37q44 0 64.5 10.5t20.5 31.5q0 14 -11 24.5t-44 23.5t-99 32q-81 24 -126 78.5t-45 125.5q0 110 72.5 166.5t195.5 56.5q64 0 126 -13.5t110 -39.5l-54 -151q-56 19 -97.5 27.5t-80.5 8.5q-66 0 -66 -36q0 -18 21.5 -30.5t88.5 -31.5
q105 -28 159 -85.5t54 -137.5q0 -111 -72 -170.5t-213 -59.5t-238 52z" />
    <glyph glyph-name="Sacute" unicode="&#x15a;" horiz-adv-x="592" 
d="M40 36l50 155q103 -37 184 -37q44 0 64.5 10.5t20.5 31.5q0 14 -11 24.5t-44 23.5t-99 32q-81 24 -126 78.5t-45 125.5q0 110 72.5 166.5t195.5 56.5q64 0 126 -13.5t110 -39.5l-54 -151q-56 19 -97.5 27.5t-80.5 8.5q-66 0 -66 -36q0 -18 21.5 -30.5t88.5 -31.5
q105 -28 159 -85.5t54 -137.5q0 -111 -72 -170.5t-213 -59.5t-238 52zM174 870l293 205l101 -179l-333 -133z" />
    <glyph glyph-name="Scaron" unicode="&#x160;" horiz-adv-x="592" 
d="M40 36l50 155q103 -37 184 -37q44 0 64.5 10.5t20.5 31.5q0 14 -11 24.5t-44 23.5t-99 32q-81 24 -126 78.5t-45 125.5q0 110 72.5 166.5t195.5 56.5q64 0 126 -13.5t110 -39.5l-54 -151q-56 19 -97.5 27.5t-80.5 8.5q-66 0 -66 -36q0 -18 21.5 -30.5t88.5 -31.5
q105 -28 159 -85.5t54 -137.5q0 -111 -72 -170.5t-213 -59.5t-238 52zM80 1022h166l39 -107l10 -39q13 41 27 78q8 22 13.5 39t9.5 29h166l-123 -249h-185z" />
    <glyph glyph-name="Scedilla" unicode="&#x15e;" horiz-adv-x="592" 
d="M504 55q-59 -59 -175 -69l-10 -31q47 -12 68.5 -35.5t21.5 -59.5q0 -49 -37 -78.5t-100 -29.5q-52 0 -91 18l1 57q24 -8 47 -8q27 0 42 12t15 35q0 19 -16 31t-42 16l24 71q-125 5 -212 52l50 155q103 -37 184 -37q44 0 64.5 10.5t20.5 31.5q0 14 -11 24.5t-44 23.5
t-99 32q-81 24 -126 78.5t-45 125.5q0 110 72.5 166.5t195.5 56.5q64 0 126 -13.5t110 -39.5l-54 -151q-56 19 -97.5 27.5t-80.5 8.5q-66 0 -66 -36q0 -18 21.5 -30.5t88.5 -31.5q105 -28 159 -85.5t54 -137.5q0 -100 -59 -159z" />
    <glyph glyph-name="Scircumflex" unicode="&#x15c;" horiz-adv-x="592" 
d="M40 36l50 155q103 -37 184 -37q44 0 64.5 10.5t20.5 31.5q0 14 -11 24.5t-44 23.5t-99 32q-81 24 -126 78.5t-45 125.5q0 110 72.5 166.5t195.5 56.5q64 0 126 -13.5t110 -39.5l-54 -151q-56 19 -97.5 27.5t-80.5 8.5q-66 0 -66 -36q0 -18 21.5 -30.5t88.5 -31.5
q105 -28 159 -85.5t54 -137.5q0 -111 -72 -170.5t-213 -59.5t-238 52zM203 1022h185l123 -249h-166l-38 106l-12 38l-10 -38l-39 -106h-166z" />
    <glyph glyph-name="Scommaaccent" unicode="&#x218;" horiz-adv-x="592" 
d="M40 36l50 155q103 -37 184 -37q44 0 64.5 10.5t20.5 31.5q0 14 -11 24.5t-44 23.5t-99 32q-81 24 -126 78.5t-45 125.5q0 110 72.5 166.5t195.5 56.5q64 0 126 -13.5t110 -39.5l-54 -151q-56 19 -97.5 27.5t-80.5 8.5q-66 0 -66 -36q0 -18 21.5 -30.5t88.5 -31.5
q105 -28 159 -85.5t54 -137.5q0 -111 -72 -170.5t-213 -59.5t-238 52zM203 -290q42 0 59.5 10.5t20.5 34.5h-80v160h185v-87q0 -107 -42 -153t-143 -46v81z" />
    <glyph glyph-name="uni1E9E" unicode="&#x1e9e;" horiz-adv-x="746" 
d="M337 -18v156q34 -7 66 -7q43 0 68.5 20.5t25.5 56.5q0 46 -37 76t-103 37v102q40 24 56 43t16 44q0 18 -18 29t-52 11q-39 0 -71 -9v-541h-223v661q150 42 289 42q83 0 147 -18.5t99.5 -52.5t35.5 -78q0 -46 -25 -81.5t-82 -70.5q89 -32 140.5 -89.5t51.5 -124.5
q0 -63 -36 -112.5t-99.5 -77t-141.5 -27.5q-68 0 -107 11z" />
    <glyph glyph-name="uni018F" unicode="&#x18f;" horiz-adv-x="771" 
d="M190 29q-77 46 -118 124t-41 172q0 25 3 36l471 55q-15 55 -59.5 80.5t-117.5 25.5q-44 0 -79.5 -7t-89.5 -26l-38 154q106 60 240 60q113 0 199 -45t133 -127t47 -188q0 -104 -47 -186t-131 -128t-192 -46q-103 0 -180 46zM478 181q36 39 37 106l-278 -47
q8 -45 44 -71.5t89 -26.5q72 0 108 39z" />
    <glyph glyph-name="T" unicode="T" horiz-adv-x="577" 
d="M172 536h-143v152h519v-152h-143v-536h-233v536z" />
    <glyph glyph-name="Tbar" unicode="&#x166;" horiz-adv-x="577" 
d="M172 283h-90v85h90v168h-143v152h519v-152h-143v-168h90v-85h-90v-283h-233v283z" />
    <glyph glyph-name="Tcaron" unicode="&#x164;" horiz-adv-x="577" 
d="M172 536h-143v152h519v-152h-143v-536h-233v536zM73 1022h166l39 -107l10 -39q13 41 27 78q8 22 13.5 39t9.5 29h166l-123 -249h-185z" />
    <glyph glyph-name="uni0162" unicode="&#x162;" horiz-adv-x="577" 
d="M172 536h-143v152h519v-152h-143v-536h-233v536zM196 -290q42 0 59.5 10.5t20.5 34.5h-80v160h185v-87q0 -107 -42 -153t-143 -46v81z" />
    <glyph glyph-name="uni021A" unicode="&#x21a;" horiz-adv-x="577" 
d="M172 536h-143v152h519v-152h-143v-536h-233v536zM196 -290q42 0 59.5 10.5t20.5 34.5h-80v160h185v-87q0 -107 -42 -153t-143 -46v81z" />
    <glyph glyph-name="U" unicode="U" horiz-adv-x="798" 
d="M222.5 22q-77.5 38 -120.5 106.5t-43 156.5v403h226v-403q0 -60 29 -90t85 -30t85 30.5t29 89.5v403h226v-403q0 -88 -43 -156.5t-120.5 -106.5t-176.5 -38t-176.5 38z" />
    <glyph glyph-name="Uacute" unicode="&#xda;" horiz-adv-x="798" 
d="M222.5 22q-77.5 38 -120.5 106.5t-43 156.5v403h226v-403q0 -60 29 -90t85 -30t85 30.5t29 89.5v403h226v-403q0 -88 -43 -156.5t-120.5 -106.5t-176.5 -38t-176.5 38zM277 870l293 205l101 -179l-333 -133z" />
    <glyph glyph-name="Ubreve" unicode="&#x16c;" horiz-adv-x="798" 
d="M222.5 22q-77.5 38 -120.5 106.5t-43 156.5v403h226v-403q0 -60 29 -90t85 -30t85 30.5t29 89.5v403h226v-403q0 -88 -43 -156.5t-120.5 -106.5t-176.5 -38t-176.5 38zM258.5 827.5q-52.5 64.5 -56.5 193.5h141q0 -133 56 -133q26 0 39.5 30.5t13.5 102.5h143
q-4 -131 -56 -194.5t-140 -63.5t-140.5 64.5z" />
    <glyph glyph-name="Ucircumflex" unicode="&#xdb;" horiz-adv-x="798" 
d="M222.5 22q-77.5 38 -120.5 106.5t-43 156.5v403h226v-403q0 -60 29 -90t85 -30t85 30.5t29 89.5v403h226v-403q0 -88 -43 -156.5t-120.5 -106.5t-176.5 -38t-176.5 38zM306 1022h185l123 -249h-166l-38 106l-12 38l-10 -38l-39 -106h-166z" />
    <glyph glyph-name="uni0214" unicode="&#x214;" horiz-adv-x="798" 
d="M222.5 22q-77.5 38 -120.5 106.5t-43 156.5v403h226v-403q0 -60 29 -90t85 -30t85 30.5t29 89.5v403h226v-403q0 -88 -43 -156.5t-120.5 -106.5t-176.5 -38t-176.5 38zM115 1013l157 64l104 -276l-107 -38zM342 1035l166 40l61 -288l-113 -23z" />
    <glyph glyph-name="Udieresis" unicode="&#xdc;" horiz-adv-x="798" 
d="M222.5 22q-77.5 38 -120.5 106.5t-43 156.5v403h226v-403q0 -60 29 -90t85 -30t85 30.5t29 89.5v403h226v-403q0 -88 -43 -156.5t-120.5 -106.5t-176.5 -38t-176.5 38zM178.5 792q-32.5 29 -32.5 71q0 43 34 72.5t78 29.5q46 0 79.5 -30.5t33.5 -71.5q0 -43 -34 -71.5
t-79 -28.5q-47 0 -79.5 29zM460 793q-32 30 -32 70q0 44 34.5 73t78.5 29q33 0 58 -15t39 -38.5t14 -48.5q0 -43 -33 -71.5t-78 -28.5q-49 0 -81 30z" />
    <glyph glyph-name="uni1EE4" unicode="&#x1ee4;" horiz-adv-x="798" 
d="M222.5 22q-77.5 38 -120.5 106.5t-43 156.5v403h226v-403q0 -60 29 -90t85 -30t85 30.5t29 89.5v403h226v-403q0 -88 -43 -156.5t-120.5 -106.5t-176.5 -38t-176.5 38zM319.5 -248.5q-32.5 29.5 -32.5 72.5t34 72t78 29q46 0 79.5 -30t33.5 -71q0 -44 -34 -73t-79 -29
q-47 0 -79.5 29.5z" />
    <glyph glyph-name="Ugrave" unicode="&#xd9;" horiz-adv-x="798" 
d="M222.5 22q-77.5 38 -120.5 106.5t-43 156.5v403h226v-403q0 -60 29 -90t85 -30t85 30.5t29 89.5v403h226v-403q0 -88 -43 -156.5t-120.5 -106.5t-176.5 -38t-176.5 38zM127 896l101 179l293 -205l-61 -107z" />
    <glyph glyph-name="uni1EE6" unicode="&#x1ee6;" horiz-adv-x="798" 
d="M222.5 22q-77.5 38 -120.5 106.5t-43 156.5v403h226v-403q0 -60 29 -90t85 -30t85 30.5t29 89.5v403h226v-403q0 -88 -43 -156.5t-120.5 -106.5t-176.5 -38t-176.5 38zM335 808q0 23 10 37t29 29q15 13 22 22.5t7 22.5q0 11 -10 18t-31 7q-27 0 -70 -15l-8 83
q57 20 123 20q69 0 101 -24t32 -66q0 -31 -11.5 -49.5t-32.5 -38.5q-19 -18 -27.5 -31t-8.5 -33v-17h-122q-3 17 -3 35z" />
    <glyph glyph-name="Uhorn" unicode="&#x1af;" horiz-adv-x="798" 
d="M222.5 22q-77.5 38 -120.5 106.5t-43 156.5v403h226v-403q0 -60 29 -90t85 -30t85 30.5t29 89.5v403h110q43 0 63.5 5.5t30.5 27.5t10 70h117q0 -95 -25.5 -142t-79.5 -63v-301q0 -88 -43 -156.5t-120.5 -106.5t-176.5 -38t-176.5 38z" />
    <glyph glyph-name="uni1EE8" unicode="&#x1ee8;" horiz-adv-x="798" 
d="M222.5 22q-77.5 38 -120.5 106.5t-43 156.5v403h226v-403q0 -60 29 -90t85 -30t85 30.5t29 89.5v403h110q43 0 63.5 5.5t30.5 27.5t10 70h117q0 -95 -25.5 -142t-79.5 -63v-301q0 -88 -43 -156.5t-120.5 -106.5t-176.5 -38t-176.5 38zM277 870l293 205l101 -179
l-333 -133z" />
    <glyph glyph-name="uni1EF0" unicode="&#x1ef0;" horiz-adv-x="798" 
d="M222.5 22q-77.5 38 -120.5 106.5t-43 156.5v403h226v-403q0 -60 29 -90t85 -30t85 30.5t29 89.5v403h110q43 0 63.5 5.5t30.5 27.5t10 70h117q0 -95 -25.5 -142t-79.5 -63v-301q0 -88 -43 -156.5t-120.5 -106.5t-176.5 -38t-176.5 38zM319.5 -248.5
q-32.5 29.5 -32.5 72.5t34 72t78 29q46 0 79.5 -30t33.5 -71q0 -44 -34 -73t-79 -29q-47 0 -79.5 29.5z" />
    <glyph glyph-name="uni1EEA" unicode="&#x1eea;" horiz-adv-x="798" 
d="M222.5 22q-77.5 38 -120.5 106.5t-43 156.5v403h226v-403q0 -60 29 -90t85 -30t85 30.5t29 89.5v403h110q43 0 63.5 5.5t30.5 27.5t10 70h117q0 -95 -25.5 -142t-79.5 -63v-301q0 -88 -43 -156.5t-120.5 -106.5t-176.5 -38t-176.5 38zM127 896l101 179l293 -205l-61 -107
z" />
    <glyph glyph-name="uni1EEC" unicode="&#x1eec;" horiz-adv-x="798" 
d="M222.5 22q-77.5 38 -120.5 106.5t-43 156.5v403h226v-403q0 -60 29 -90t85 -30t85 30.5t29 89.5v403h110q43 0 63.5 5.5t30.5 27.5t10 70h117q0 -95 -25.5 -142t-79.5 -63v-301q0 -88 -43 -156.5t-120.5 -106.5t-176.5 -38t-176.5 38zM335 808q0 23 10 37t29 29
q15 13 22 22.5t7 22.5q0 11 -10 18t-31 7q-27 0 -70 -15l-8 83q57 20 123 20q69 0 101 -24t32 -66q0 -31 -11.5 -49.5t-32.5 -38.5q-19 -18 -27.5 -31t-8.5 -33v-17h-122q-3 17 -3 35z" />
    <glyph glyph-name="uni1EEE" unicode="&#x1eee;" horiz-adv-x="798" 
d="M222.5 22q-77.5 38 -120.5 106.5t-43 156.5v403h226v-403q0 -60 29 -90t85 -30t85 30.5t29 89.5v403h110q43 0 63.5 5.5t30.5 27.5t10 70h117q0 -95 -25.5 -142t-79.5 -63v-301q0 -88 -43 -156.5t-120.5 -106.5t-176.5 -38t-176.5 38zM156 813q28 78 72.5 117.5
t99.5 39.5q21 0 39 -6.5t41 -19.5q21 -11 35.5 -16.5t30.5 -5.5q15 0 28.5 12t30.5 37l108 -47q-28 -78 -72.5 -118t-99.5 -40q-21 0 -39 6.5t-41 19.5q-21 11 -35.5 16.5t-30.5 5.5q-15 0 -28.5 -12t-30.5 -37z" />
    <glyph glyph-name="Uhungarumlaut" unicode="&#x170;" horiz-adv-x="798" 
d="M222.5 22q-77.5 38 -120.5 106.5t-43 156.5v403h226v-403q0 -60 29 -90t85 -30t85 30.5t29 89.5v403h226v-403q0 -88 -43 -156.5t-120.5 -106.5t-176.5 -38t-176.5 38zM422 801l104 276l157 -64l-154 -250zM229 787l61 288l166 -40l-114 -271z" />
    <glyph glyph-name="uni0216" unicode="&#x216;" horiz-adv-x="798" 
d="M222.5 22q-77.5 38 -120.5 106.5t-43 156.5v403h226v-403q0 -60 29 -90t85 -30t85 30.5t29 89.5v403h226v-403q0 -88 -43 -156.5t-120.5 -106.5t-176.5 -38t-176.5 38zM258 967.5q52 63.5 140 63.5t140.5 -64.5t56.5 -193.5h-141q0 133 -56 133q-26 0 -39.5 -30.5
t-13.5 -102.5h-143q4 131 56 194.5z" />
    <glyph glyph-name="Umacron" unicode="&#x16a;" horiz-adv-x="798" 
d="M222.5 22q-77.5 38 -120.5 106.5t-43 156.5v403h226v-403q0 -60 29 -90t85 -30t85 30.5t29 89.5v403h226v-403q0 -88 -43 -156.5t-120.5 -106.5t-176.5 -38t-176.5 38zM225 901h348v-128h-348v128z" />
    <glyph glyph-name="Uogonek" unicode="&#x172;" horiz-adv-x="798" 
d="M354 -213.5q-34 24.5 -34 65.5q0 74 97 132h-18q-99 0 -176.5 38t-120.5 106.5t-43 156.5v403h226v-403q0 -60 29 -90t85 -30t85 30.5t29 89.5v403h226v-403q0 -85 -40 -151t-104 -101q-81 -45 -114 -87t-33 -76q0 -41 48 -41q20 0 47 9l1 -58q-43 -18 -93 -18
q-63 0 -97 24.5z" />
    <glyph glyph-name="Uring" unicode="&#x16e;" horiz-adv-x="798" 
d="M222.5 22q-77.5 38 -120.5 106.5t-43 156.5v403h226v-403q0 -60 29 -90t85 -30t85 30.5t29 89.5v403h226v-403q0 -88 -43 -156.5t-120.5 -106.5t-176.5 -38t-176.5 38zM275 810.5q-48 47.5 -48 122.5q0 78 48.5 125.5t123.5 47.5q53 0 91.5 -23t59 -62.5t20.5 -87.5
q0 -77 -47.5 -123.5t-123.5 -46.5t-124 47.5zM442 889q15 16 15 44t-16.5 45.5t-43.5 17.5q-26 0 -42.5 -17.5t-16.5 -45.5q0 -27 17 -43.5t44 -16.5q28 0 43 16z" />
    <glyph glyph-name="Utilde" unicode="&#x168;" horiz-adv-x="798" 
d="M222.5 22q-77.5 38 -120.5 106.5t-43 156.5v403h226v-403q0 -60 29 -90t85 -30t85 30.5t29 89.5v403h226v-403q0 -88 -43 -156.5t-120.5 -106.5t-176.5 -38t-176.5 38zM156 813q28 78 72.5 117.5t99.5 39.5q21 0 39 -6.5t41 -19.5q21 -11 35.5 -16.5t30.5 -5.5
q15 0 28.5 12t30.5 37l108 -47q-28 -78 -72.5 -118t-99.5 -40q-21 0 -39 6.5t-41 19.5q-21 11 -35.5 16.5t-30.5 5.5q-15 0 -28.5 -12t-30.5 -37z" />
    <glyph glyph-name="V" unicode="V" horiz-adv-x="672" 
d="M2 688h226l106 -429l106 429h236l-215 -688h-255z" />
    <glyph glyph-name="W" unicode="W" horiz-adv-x="990" 
d="M21 688h225l65 -439l67 322h233l68 -322l65 439h225l-156 -688h-233l-85 370l-85 -370h-233z" />
    <glyph glyph-name="Wacute" unicode="&#x1e82;" horiz-adv-x="990" 
d="M21 688h225l65 -439l67 322h233l68 -322l65 439h225l-156 -688h-233l-85 370l-85 -370h-233zM373 870l293 205l101 -179l-333 -133z" />
    <glyph glyph-name="Wcircumflex" unicode="&#x174;" horiz-adv-x="990" 
d="M21 688h225l65 -439l67 322h233l68 -322l65 439h225l-156 -688h-233l-85 370l-85 -370h-233zM402 1022h185l123 -249h-166l-38 106l-12 38l-10 -38l-39 -106h-166z" />
    <glyph glyph-name="Wdieresis" unicode="&#x1e84;" horiz-adv-x="990" 
d="M21 688h225l65 -439l67 322h233l68 -322l65 439h225l-156 -688h-233l-85 370l-85 -370h-233zM274.5 792q-32.5 29 -32.5 71q0 43 34 72.5t78 29.5q46 0 79.5 -30.5t33.5 -71.5q0 -43 -34 -71.5t-79 -28.5q-47 0 -79.5 29zM556 793q-32 30 -32 70q0 44 34.5 73t78.5 29
q33 0 58 -15t39 -38.5t14 -48.5q0 -43 -33 -71.5t-78 -28.5q-49 0 -81 30z" />
    <glyph glyph-name="Wgrave" unicode="&#x1e80;" horiz-adv-x="990" 
d="M21 688h225l65 -439l67 322h233l68 -322l65 439h225l-156 -688h-233l-85 370l-85 -370h-233zM223 896l101 179l293 -205l-61 -107z" />
    <glyph glyph-name="X" unicode="X" horiz-adv-x="633" 
d="M191 342l-185 346h227l81 -174l81 174h231l-186 -346l192 -342h-231l-87 171l-87 -171h-227z" />
    <glyph glyph-name="Y" unicode="Y" horiz-adv-x="612" 
d="M195 191l-198 497h209l97 -309l95 309h220l-208 -497v-191h-215v191z" />
    <glyph glyph-name="Yacute" unicode="&#xdd;" horiz-adv-x="612" 
d="M195 191l-198 497h209l97 -309l95 309h220l-208 -497v-191h-215v191zM184 870l293 205l101 -179l-333 -133z" />
    <glyph glyph-name="Ycircumflex" unicode="&#x176;" horiz-adv-x="612" 
d="M195 191l-198 497h209l97 -309l95 309h220l-208 -497v-191h-215v191zM213 1022h185l123 -249h-166l-38 106l-12 38l-10 -38l-39 -106h-166z" />
    <glyph glyph-name="Ydieresis" unicode="&#x178;" horiz-adv-x="612" 
d="M195 191l-198 497h209l97 -309l95 309h220l-208 -497v-191h-215v191zM85.5 792q-32.5 29 -32.5 71q0 43 34 72.5t78 29.5q46 0 79.5 -30.5t33.5 -71.5q0 -43 -34 -71.5t-79 -28.5q-47 0 -79.5 29zM367 793q-32 30 -32 70q0 44 34.5 73t78.5 29q33 0 58 -15t39 -38.5
t14 -48.5q0 -43 -33 -71.5t-78 -28.5q-49 0 -81 30z" />
    <glyph glyph-name="uni1EF4" unicode="&#x1ef4;" horiz-adv-x="612" 
d="M195 191l-198 497h209l97 -309l95 309h220l-208 -497v-191h-215v191zM226.5 -248.5q-32.5 29.5 -32.5 72.5t34 72t78 29q46 0 79.5 -30t33.5 -71q0 -44 -34 -73t-79 -29q-47 0 -79.5 29.5z" />
    <glyph glyph-name="Ygrave" unicode="&#x1ef2;" horiz-adv-x="612" 
d="M195 191l-198 497h209l97 -309l95 309h220l-208 -497v-191h-215v191zM34 896l101 179l293 -205l-61 -107z" />
    <glyph glyph-name="uni1EF6" unicode="&#x1ef6;" horiz-adv-x="612" 
d="M195 191l-198 497h209l97 -309l95 309h220l-208 -497v-191h-215v191zM242 808q0 23 10 37t29 29q15 13 22 22.5t7 22.5q0 11 -10 18t-31 7q-27 0 -70 -15l-8 83q57 20 123 20q69 0 101 -24t32 -66q0 -31 -11.5 -49.5t-32.5 -38.5q-19 -18 -27.5 -31t-8.5 -33v-17h-122
q-3 17 -3 35z" />
    <glyph glyph-name="uni0232" unicode="&#x232;" horiz-adv-x="612" 
d="M195 191l-198 497h209l97 -309l95 309h220l-208 -497v-191h-215v191zM132 901h348v-128h-348v128z" />
    <glyph glyph-name="uni1EF8" unicode="&#x1ef8;" horiz-adv-x="612" 
d="M195 191l-198 497h209l97 -309l95 309h220l-208 -497v-191h-215v191zM63 813q28 78 72.5 117.5t99.5 39.5q21 0 39 -6.5t41 -19.5q21 -11 35.5 -16.5t30.5 -5.5q15 0 28.5 12t30.5 37l108 -47q-28 -78 -72.5 -118t-99.5 -40q-21 0 -39 6.5t-41 19.5q-21 11 -35.5 16.5
t-30.5 5.5q-15 0 -28.5 -12t-30.5 -37z" />
    <glyph glyph-name="Z" unicode="Z" horiz-adv-x="541" 
d="M36 145l235 397h-226v146h450v-146l-230 -396h240v-146h-469v145z" />
    <glyph glyph-name="Zacute" unicode="&#x179;" horiz-adv-x="541" 
d="M36 145l235 397h-226v146h450v-146l-230 -396h240v-146h-469v145zM148 870l293 205l101 -179l-333 -133z" />
    <glyph glyph-name="Zcaron" unicode="&#x17d;" horiz-adv-x="541" 
d="M36 145l235 397h-226v146h450v-146l-230 -396h240v-146h-469v145zM54 1022h166l39 -107l10 -39q13 41 27 78q8 22 13.5 39t9.5 29h166l-123 -249h-185z" />
    <glyph glyph-name="Zdotaccent" unicode="&#x17b;" horiz-adv-x="541" 
d="M36 145l235 397h-226v146h450v-146l-230 -396h240v-146h-469v145zM190.5 792.5q-32.5 29.5 -32.5 72.5t34 72t78 29q46 0 79.5 -30t33.5 -71q0 -44 -34 -73t-79 -29q-47 0 -79.5 29.5z" />
    <glyph glyph-name="a" unicode="a" horiz-adv-x="696" 
d="M149.5 26.5q-56.5 34.5 -90.5 94t-34 132.5q0 72 34 130.5t91 91.5t121 33q52 0 96.5 -29t67.5 -87v116h210v-508h-210v93q-50 -101 -164 -101q-65 0 -121.5 34.5zM404.5 178.5q28.5 28.5 30.5 67.5v8q-2 40 -31.5 68t-67.5 28q-42 0 -71.5 -29.5t-29.5 -70.5
q0 -42 30 -71t71 -29q40 0 68.5 28.5z" />
    <glyph glyph-name="aacute" unicode="&#xe1;" horiz-adv-x="696" 
d="M149.5 26.5q-56.5 34.5 -90.5 94t-34 132.5q0 72 34 130.5t91 91.5t121 33q52 0 96.5 -29t67.5 -87v116h210v-508h-210v93q-50 -101 -164 -101q-65 0 -121.5 34.5zM404.5 178.5q28.5 28.5 30.5 67.5v8q-2 40 -31.5 68t-67.5 28q-42 0 -71.5 -29.5t-29.5 -70.5
q0 -42 30 -71t71 -29q40 0 68.5 28.5zM176 683l293 205l101 -179l-333 -133z" />
    <glyph glyph-name="abreve" unicode="&#x103;" horiz-adv-x="696" 
d="M149.5 26.5q-56.5 34.5 -90.5 94t-34 132.5q0 72 34 130.5t91 91.5t121 33q52 0 96.5 -29t67.5 -87v116h210v-508h-210v93q-50 -101 -164 -101q-65 0 -121.5 34.5zM404.5 178.5q28.5 28.5 30.5 67.5v8q-2 40 -31.5 68t-67.5 28q-42 0 -71.5 -29.5t-29.5 -70.5
q0 -42 30 -71t71 -29q40 0 68.5 28.5zM207.5 640.5q-52.5 64.5 -56.5 193.5h141q0 -133 56 -133q26 0 39.5 30.5t13.5 102.5h143q-4 -131 -56 -194.5t-140 -63.5t-140.5 64.5z" />
    <glyph glyph-name="uni1EAF" unicode="&#x1eaf;" horiz-adv-x="696" 
d="M149.5 26.5q-56.5 34.5 -90.5 94t-34 132.5q0 72 34 130.5t91 91.5t121 33q52 0 96.5 -29t67.5 -87v116h210v-508h-210v93q-50 -101 -164 -101q-65 0 -121.5 34.5zM404.5 178.5q28.5 28.5 30.5 67.5v8q-2 40 -31.5 68t-67.5 28q-42 0 -71.5 -29.5t-29.5 -70.5
q0 -42 30 -71t71 -29q40 0 68.5 28.5zM166 909l293 175l85 -161l-333 -103zM208 629.5q-53 53.5 -57 154.5h138q1 -44 17 -66t42 -22q54 0 58 88h138q-4 -103 -56.5 -155.5t-139.5 -52.5t-140 53.5z" />
    <glyph glyph-name="uni1EB7" unicode="&#x1eb7;" horiz-adv-x="696" 
d="M149.5 26.5q-56.5 34.5 -90.5 94t-34 132.5q0 72 34 130.5t91 91.5t121 33q52 0 96.5 -29t67.5 -87v116h210v-508h-210v93q-50 -101 -164 -101q-65 0 -121.5 34.5zM404.5 178.5q28.5 28.5 30.5 67.5v8q-2 40 -31.5 68t-67.5 28q-42 0 -71.5 -29.5t-29.5 -70.5
q0 -42 30 -71t71 -29q40 0 68.5 28.5zM268.5 -248.5q-32.5 29.5 -32.5 72.5t34 72t78 29q46 0 79.5 -30t33.5 -71q0 -44 -34 -73t-79 -29q-47 0 -79.5 29.5zM207.5 640.5q-52.5 64.5 -56.5 193.5h141q0 -133 56 -133q26 0 39.5 30.5t13.5 102.5h143q-4 -131 -56 -194.5
t-140 -63.5t-140.5 64.5z" />
    <glyph glyph-name="uni1EB1" unicode="&#x1eb1;" horiz-adv-x="696" 
d="M149.5 26.5q-56.5 34.5 -90.5 94t-34 132.5q0 72 34 130.5t91 91.5t121 33q52 0 96.5 -29t67.5 -87v116h210v-508h-210v93q-50 -101 -164 -101q-65 0 -121.5 34.5zM404.5 178.5q28.5 28.5 30.5 67.5v8q-2 40 -31.5 68t-67.5 28q-42 0 -71.5 -29.5t-29.5 -70.5
q0 -42 30 -71t71 -29q40 0 68.5 28.5zM152 923l85 161l293 -175l-45 -89zM208.5 628.5q-52.5 52.5 -56.5 155.5h138q4 -88 58 -88q26 0 42 22t17 66h138q-4 -101 -57 -154.5t-140 -53.5t-139.5 52.5z" />
    <glyph glyph-name="uni1EB3" unicode="&#x1eb3;" horiz-adv-x="696" 
d="M149.5 26.5q-56.5 34.5 -90.5 94t-34 132.5q0 72 34 130.5t91 91.5t121 33q52 0 96.5 -29t67.5 -87v116h210v-508h-210v93q-50 -101 -164 -101q-65 0 -121.5 34.5zM404.5 178.5q28.5 28.5 30.5 67.5v8q-2 40 -31.5 68t-67.5 28q-42 0 -71.5 -29.5t-29.5 -70.5
q0 -42 30 -71t71 -29q40 0 68.5 28.5zM284 870q0 18 9 29.5t27 26.5q16 11 24 21t8 24q0 11 -10 18t-31 7q-27 0 -70 -15l-8 83q57 20 123 20q69 0 101 -24t32 -66q0 -32 -12 -50.5t-35 -38.5q-17 -15 -25 -26t-8 -27v-17h-122q-3 17 -3 35zM208.5 628.5
q-52.5 52.5 -56.5 155.5h138q4 -88 58 -88q26 0 42 22t17 66h138q-4 -101 -57 -154.5t-140 -53.5t-139.5 52.5z" />
    <glyph glyph-name="uni1EB5" unicode="&#x1eb5;" horiz-adv-x="696" 
d="M149.5 26.5q-56.5 34.5 -90.5 94t-34 132.5q0 72 34 130.5t91 91.5t121 33q52 0 96.5 -29t67.5 -87v116h210v-508h-210v93q-50 -101 -164 -101q-65 0 -121.5 34.5zM404.5 178.5q28.5 28.5 30.5 67.5v8q-2 40 -31.5 68t-67.5 28q-42 0 -71.5 -29.5t-29.5 -70.5
q0 -42 30 -71t71 -29q40 0 68.5 28.5zM142 870q24 66 62 99.5t84 33.5q18 0 33.5 -5t34.5 -15q21 -10 32 -14t24 -4q14 0 25.5 9.5t24.5 29.5l92 -40q-24 -66 -61.5 -100t-84.5 -34q-18 0 -33.5 5t-34.5 15q-21 10 -32 14t-24 4q-14 0 -25.5 -9.5t-24.5 -29.5zM208.5 628.5
q-52.5 52.5 -56.5 155.5h138q4 -88 58 -88q26 0 42 22t17 66h138q-4 -101 -57 -154.5t-140 -53.5t-139.5 52.5z" />
    <glyph glyph-name="acircumflex" unicode="&#xe2;" horiz-adv-x="696" 
d="M149.5 26.5q-56.5 34.5 -90.5 94t-34 132.5q0 72 34 130.5t91 91.5t121 33q52 0 96.5 -29t67.5 -87v116h210v-508h-210v93q-50 -101 -164 -101q-65 0 -121.5 34.5zM404.5 178.5q28.5 28.5 30.5 67.5v8q-2 40 -31.5 68t-67.5 28q-42 0 -71.5 -29.5t-29.5 -70.5
q0 -42 30 -71t71 -29q40 0 68.5 28.5zM255 835h185l123 -249h-166l-38 106l-12 38l-10 -38l-39 -106h-166z" />
    <glyph glyph-name="uni1EA5" unicode="&#x1ea5;" horiz-adv-x="696" 
d="M149.5 26.5q-56.5 34.5 -90.5 94t-34 132.5q0 72 34 130.5t91 91.5t121 33q52 0 96.5 -29t67.5 -87v116h210v-508h-210v93q-50 -101 -164 -101q-65 0 -121.5 34.5zM404.5 178.5q28.5 28.5 30.5 67.5v8q-2 40 -31.5 68t-67.5 28q-42 0 -71.5 -29.5t-29.5 -70.5
q0 -42 30 -71t71 -29q40 0 68.5 28.5zM166 909l293 175l85 -161l-333 -103zM255 784h185l123 -198h-163l-53 101l-52 -101h-163z" />
    <glyph glyph-name="uni1EAD" unicode="&#x1ead;" horiz-adv-x="696" 
d="M149.5 26.5q-56.5 34.5 -90.5 94t-34 132.5q0 72 34 130.5t91 91.5t121 33q52 0 96.5 -29t67.5 -87v116h210v-508h-210v93q-50 -101 -164 -101q-65 0 -121.5 34.5zM404.5 178.5q28.5 28.5 30.5 67.5v8q-2 40 -31.5 68t-67.5 28q-42 0 -71.5 -29.5t-29.5 -70.5
q0 -42 30 -71t71 -29q40 0 68.5 28.5zM268.5 -248.5q-32.5 29.5 -32.5 72.5t34 72t78 29q46 0 79.5 -30t33.5 -71q0 -44 -34 -73t-79 -29q-47 0 -79.5 29.5zM255 835h185l123 -249h-166l-38 106l-12 38l-10 -38l-39 -106h-166z" />
    <glyph glyph-name="uni1EA7" unicode="&#x1ea7;" horiz-adv-x="696" 
d="M149.5 26.5q-56.5 34.5 -90.5 94t-34 132.5q0 72 34 130.5t91 91.5t121 33q52 0 96.5 -29t67.5 -87v116h210v-508h-210v93q-50 -101 -164 -101q-65 0 -121.5 34.5zM404.5 178.5q28.5 28.5 30.5 67.5v8q-2 40 -31.5 68t-67.5 28q-42 0 -71.5 -29.5t-29.5 -70.5
q0 -42 30 -71t71 -29q40 0 68.5 28.5zM152 923l85 161l293 -175l-45 -89zM256 784h185l123 -198h-163l-52 101l-53 -101h-163z" />
    <glyph glyph-name="uni1EA9" unicode="&#x1ea9;" horiz-adv-x="696" 
d="M149.5 26.5q-56.5 34.5 -90.5 94t-34 132.5q0 72 34 130.5t91 91.5t121 33q52 0 96.5 -29t67.5 -87v116h210v-508h-210v93q-50 -101 -164 -101q-65 0 -121.5 34.5zM404.5 178.5q28.5 28.5 30.5 67.5v8q-2 40 -31.5 68t-67.5 28q-42 0 -71.5 -29.5t-29.5 -70.5
q0 -42 30 -71t71 -29q40 0 68.5 28.5zM284 870q0 18 9 29.5t27 26.5q16 11 24 21t8 24q0 11 -10 18t-31 7q-27 0 -70 -15l-8 83q57 20 123 20q69 0 101 -24t32 -66q0 -32 -12 -50.5t-35 -38.5q-17 -15 -25 -26t-8 -27v-17h-122q-3 17 -3 35zM256 784h185l123 -198h-163
l-52 101l-53 -101h-163z" />
    <glyph glyph-name="uni1EAB" unicode="&#x1eab;" horiz-adv-x="696" 
d="M149.5 26.5q-56.5 34.5 -90.5 94t-34 132.5q0 72 34 130.5t91 91.5t121 33q52 0 96.5 -29t67.5 -87v116h210v-508h-210v93q-50 -101 -164 -101q-65 0 -121.5 34.5zM404.5 178.5q28.5 28.5 30.5 67.5v8q-2 40 -31.5 68t-67.5 28q-42 0 -71.5 -29.5t-29.5 -70.5
q0 -42 30 -71t71 -29q40 0 68.5 28.5zM142 870q24 66 62 99.5t84 33.5q18 0 33.5 -5t34.5 -15q21 -10 32 -14t24 -4q14 0 25.5 9.5t24.5 29.5l92 -40q-24 -66 -61.5 -100t-84.5 -34q-18 0 -33.5 5t-34.5 15q-21 10 -32 14t-24 4q-14 0 -25.5 -9.5t-24.5 -29.5zM256 784h185
l123 -198h-163l-52 101l-53 -101h-163z" />
    <glyph glyph-name="uni0201" unicode="&#x201;" horiz-adv-x="696" 
d="M149.5 26.5q-56.5 34.5 -90.5 94t-34 132.5q0 72 34 130.5t91 91.5t121 33q52 0 96.5 -29t67.5 -87v116h210v-508h-210v93q-50 -101 -164 -101q-65 0 -121.5 34.5zM404.5 178.5q28.5 28.5 30.5 67.5v8q-2 40 -31.5 68t-67.5 28q-42 0 -71.5 -29.5t-29.5 -70.5
q0 -42 30 -71t71 -29q40 0 68.5 28.5zM64 826l157 64l104 -276l-107 -38zM291 848l166 40l61 -288l-113 -23z" />
    <glyph glyph-name="adieresis" unicode="&#xe4;" horiz-adv-x="696" 
d="M149.5 26.5q-56.5 34.5 -90.5 94t-34 132.5q0 72 34 130.5t91 91.5t121 33q52 0 96.5 -29t67.5 -87v116h210v-508h-210v93q-50 -101 -164 -101q-65 0 -121.5 34.5zM404.5 178.5q28.5 28.5 30.5 67.5v8q-2 40 -31.5 68t-67.5 28q-42 0 -71.5 -29.5t-29.5 -70.5
q0 -42 30 -71t71 -29q40 0 68.5 28.5zM127.5 605q-32.5 29 -32.5 71q0 43 34 72.5t78 29.5q46 0 79.5 -30.5t33.5 -71.5q0 -43 -34 -71.5t-79 -28.5q-47 0 -79.5 29zM409 606q-32 30 -32 70q0 44 34.5 73t78.5 29q33 0 58 -15t39 -38.5t14 -48.5q0 -43 -33 -71.5t-78 -28.5
q-49 0 -81 30z" />
    <glyph glyph-name="uni1EA1" unicode="&#x1ea1;" horiz-adv-x="696" 
d="M149.5 26.5q-56.5 34.5 -90.5 94t-34 132.5q0 72 34 130.5t91 91.5t121 33q52 0 96.5 -29t67.5 -87v116h210v-508h-210v93q-50 -101 -164 -101q-65 0 -121.5 34.5zM404.5 178.5q28.5 28.5 30.5 67.5v8q-2 40 -31.5 68t-67.5 28q-42 0 -71.5 -29.5t-29.5 -70.5
q0 -42 30 -71t71 -29q40 0 68.5 28.5zM268.5 -248.5q-32.5 29.5 -32.5 72.5t34 72t78 29q46 0 79.5 -30t33.5 -71q0 -44 -34 -73t-79 -29q-47 0 -79.5 29.5z" />
    <glyph glyph-name="agrave" unicode="&#xe0;" horiz-adv-x="696" 
d="M149.5 26.5q-56.5 34.5 -90.5 94t-34 132.5q0 72 34 130.5t91 91.5t121 33q52 0 96.5 -29t67.5 -87v116h210v-508h-210v93q-50 -101 -164 -101q-65 0 -121.5 34.5zM404.5 178.5q28.5 28.5 30.5 67.5v8q-2 40 -31.5 68t-67.5 28q-42 0 -71.5 -29.5t-29.5 -70.5
q0 -42 30 -71t71 -29q40 0 68.5 28.5zM126 709l101 179l293 -205l-61 -107z" />
    <glyph glyph-name="uni1EA3" unicode="&#x1ea3;" horiz-adv-x="696" 
d="M149.5 26.5q-56.5 34.5 -90.5 94t-34 132.5q0 72 34 130.5t91 91.5t121 33q52 0 96.5 -29t67.5 -87v116h210v-508h-210v93q-50 -101 -164 -101q-65 0 -121.5 34.5zM404.5 178.5q28.5 28.5 30.5 67.5v8q-2 40 -31.5 68t-67.5 28q-42 0 -71.5 -29.5t-29.5 -70.5
q0 -42 30 -71t71 -29q40 0 68.5 28.5zM284 621q0 23 10 37t29 29q15 13 22 22.5t7 22.5q0 11 -10 18t-31 7q-27 0 -70 -15l-8 83q57 20 123 20q69 0 101 -24t32 -66q0 -31 -11.5 -49.5t-32.5 -38.5q-19 -18 -27.5 -31t-8.5 -33v-17h-122q-3 17 -3 35z" />
    <glyph glyph-name="uni0203" unicode="&#x203;" horiz-adv-x="696" 
d="M149.5 26.5q-56.5 34.5 -90.5 94t-34 132.5q0 72 34 130.5t91 91.5t121 33q52 0 96.5 -29t67.5 -87v116h210v-508h-210v93q-50 -101 -164 -101q-65 0 -121.5 34.5zM404.5 178.5q28.5 28.5 30.5 67.5v8q-2 40 -31.5 68t-67.5 28q-42 0 -71.5 -29.5t-29.5 -70.5
q0 -42 30 -71t71 -29q40 0 68.5 28.5zM207 780.5q52 63.5 140 63.5t140.5 -64.5t56.5 -193.5h-141q0 133 -56 133q-26 0 -39.5 -30.5t-13.5 -102.5h-143q4 131 56 194.5z" />
    <glyph glyph-name="amacron" unicode="&#x101;" horiz-adv-x="696" 
d="M149.5 26.5q-56.5 34.5 -90.5 94t-34 132.5q0 72 34 130.5t91 91.5t121 33q52 0 96.5 -29t67.5 -87v116h210v-508h-210v93q-50 -101 -164 -101q-65 0 -121.5 34.5zM404.5 178.5q28.5 28.5 30.5 67.5v8q-2 40 -31.5 68t-67.5 28q-42 0 -71.5 -29.5t-29.5 -70.5
q0 -42 30 -71t71 -29q40 0 68.5 28.5zM174 714h348v-128h-348v128z" />
    <glyph glyph-name="aogonek" unicode="&#x105;" horiz-adv-x="696" 
d="M546 -140q0 -41 48 -41q20 0 47 9l1 -58q-43 -18 -93 -18q-63 0 -97 24.5t-34 65.5q0 43 35.5 83.5t102.5 74.5h-121v93q-50 -101 -164 -101q-65 0 -121.5 34.5t-90.5 94t-34 132.5q0 72 34 130.5t91 91.5t121 33q52 0 96.5 -29t67.5 -87v116h210v-508q-99 -82 -99 -140z
M435 254q-2 40 -31.5 68t-67.5 28q-42 0 -71.5 -29.5t-29.5 -70.5q0 -42 30 -71t71 -29q40 0 68.5 28.5t30.5 67.5v8z" />
    <glyph glyph-name="aring" unicode="&#xe5;" horiz-adv-x="696" 
d="M149.5 26.5q-56.5 34.5 -90.5 94t-34 132.5q0 72 34 130.5t91 91.5t121 33q52 0 96.5 -29t67.5 -87v116h210v-508h-210v93q-50 -101 -164 -101q-65 0 -121.5 34.5zM404.5 178.5q28.5 28.5 30.5 67.5v8q-2 40 -31.5 68t-67.5 28q-42 0 -71.5 -29.5t-29.5 -70.5
q0 -42 30 -71t71 -29q40 0 68.5 28.5zM224 623.5q-48 47.5 -48 122.5q0 78 48.5 125.5t123.5 47.5q53 0 91.5 -23t59 -62.5t20.5 -87.5q0 -77 -47.5 -123.5t-123.5 -46.5t-124 47.5zM391 702q15 16 15 44t-16.5 45.5t-43.5 17.5q-26 0 -42.5 -17.5t-16.5 -45.5
q0 -27 17 -43.5t44 -16.5q28 0 43 16z" />
    <glyph glyph-name="aringacute" unicode="&#x1fb;" horiz-adv-x="696" 
d="M149.5 26.5q-56.5 34.5 -90.5 94t-34 132.5q0 72 34 130.5t91 91.5t121 33q52 0 96.5 -29t67.5 -87v116h210v-508h-210v93q-50 -101 -164 -101q-65 0 -121.5 34.5zM404.5 178.5q28.5 28.5 30.5 67.5v8q-2 40 -31.5 68t-67.5 28q-42 0 -71.5 -29.5t-29.5 -70.5
q0 -42 30 -71t71 -29q40 0 68.5 28.5zM224 623.5q-48 47.5 -48 122.5q0 78 48.5 125.5t123.5 47.5q60 0 103 -30l159 111l81 -144l-176 -70q4 -17 4 -40q0 -77 -47.5 -123.5t-123.5 -46.5t-124 47.5zM391 702q15 16 15 44t-16.5 45.5t-43.5 17.5q-26 0 -42.5 -17.5
t-16.5 -45.5q0 -27 17 -43.5t44 -16.5q28 0 43 16z" />
    <glyph glyph-name="atilde" unicode="&#xe3;" horiz-adv-x="696" 
d="M149.5 26.5q-56.5 34.5 -90.5 94t-34 132.5q0 72 34 130.5t91 91.5t121 33q52 0 96.5 -29t67.5 -87v116h210v-508h-210v93q-50 -101 -164 -101q-65 0 -121.5 34.5zM404.5 178.5q28.5 28.5 30.5 67.5v8q-2 40 -31.5 68t-67.5 28q-42 0 -71.5 -29.5t-29.5 -70.5
q0 -42 30 -71t71 -29q40 0 68.5 28.5zM105 626q28 78 72.5 117.5t99.5 39.5q21 0 39 -6.5t41 -19.5q21 -11 35.5 -16.5t30.5 -5.5q15 0 28.5 12t30.5 37l108 -47q-28 -78 -72.5 -118t-99.5 -40q-21 0 -39 6.5t-41 19.5q-21 11 -35.5 16.5t-30.5 5.5q-15 0 -28.5 -12
t-30.5 -37z" />
    <glyph glyph-name="ae" unicode="&#xe6;" horiz-adv-x="1057" 
d="M435 93q-50 -101 -164 -101q-65 0 -121.5 34.5t-90.5 94t-34 132.5q0 72 34 130.5t91 91.5t121 33q52 0 96.5 -29t67.5 -87v124l195 -15v-44q64 59 158 59q74 0 129.5 -32t86 -89.5t30.5 -131.5q0 -10 -2 -26l-329 -39q27 -70 124 -70q75 0 162 35l24 -138
q-91 -41 -193 -41q-65 0 -110.5 15t-79.5 45v-44l-195 -16v109zM878 324q-10 30 -33 46.5t-57 16.5q-43 0 -67.5 -26t-26.5 -71zM404.5 178.5q28.5 28.5 30.5 67.5v8q-2 40 -31.5 68t-67.5 28q-42 0 -71.5 -29.5t-29.5 -70.5q0 -42 30 -71t71 -29q40 0 68.5 28.5z" />
    <glyph glyph-name="aeacute" unicode="&#x1fd;" horiz-adv-x="1057" 
d="M435 93q-50 -101 -164 -101q-65 0 -121.5 34.5t-90.5 94t-34 132.5q0 72 34 130.5t91 91.5t121 33q52 0 96.5 -29t67.5 -87v124l195 -15v-44q64 59 158 59q74 0 129.5 -32t86 -89.5t30.5 -131.5q0 -10 -2 -26l-329 -39q27 -70 124 -70q75 0 162 35l24 -138
q-91 -41 -193 -41q-65 0 -110.5 15t-79.5 45v-44l-195 -16v109zM878 324q-10 30 -33 46.5t-57 16.5q-43 0 -67.5 -26t-26.5 -71zM404.5 178.5q28.5 28.5 30.5 67.5v8q-2 40 -31.5 68t-67.5 28q-42 0 -71.5 -29.5t-29.5 -70.5q0 -42 30 -71t71 -29q40 0 68.5 28.5zM361 683
l293 205l101 -179l-333 -133z" />
    <glyph glyph-name="b" unicode="b" horiz-adv-x="697" 
d="M264 93v-93h-212v659l212 31v-283q25 53 65 77t97 24q67 0 123.5 -33.5t89 -92.5t32.5 -132q0 -72 -33.5 -131t-90 -93t-120.5 -34q-115 0 -163 101zM433 180q29 30 29 70q0 42 -29.5 71t-69.5 29q-41 0 -70 -28.5t-29 -67.5v-4q0 -42 29.5 -71t69.5 -29q41 0 70 30z" />
    <glyph glyph-name="c" unicode="c" horiz-adv-x="472" 
d="M155.5 24.5q-61.5 32.5 -96 91.5t-34.5 134q0 72 36 131t98 93t138 34q97 0 153 -40l-19 -133q-57 17 -94 17q-48 0 -76 -27.5t-28 -74.5t28 -75t74 -28q40 0 94 17l19 -140q-34 -17 -69 -24.5t-82 -7.5q-80 0 -141.5 32.5z" />
    <glyph glyph-name="cacute" unicode="&#x107;" horiz-adv-x="472" 
d="M155.5 24.5q-61.5 32.5 -96 91.5t-34.5 134q0 72 36 131t98 93t138 34q97 0 153 -40l-19 -133q-57 17 -94 17q-48 0 -76 -27.5t-28 -74.5t28 -75t74 -28q40 0 94 17l19 -140q-34 -17 -69 -24.5t-82 -7.5q-80 0 -141.5 32.5zM94 683l293 205l101 -179l-333 -133z" />
    <glyph glyph-name="ccaron" unicode="&#x10d;" horiz-adv-x="472" 
d="M155.5 24.5q-61.5 32.5 -96 91.5t-34.5 134q0 72 36 131t98 93t138 34q97 0 153 -40l-19 -133q-57 17 -94 17q-48 0 -76 -27.5t-28 -74.5t28 -75t74 -28q40 0 94 17l19 -140q-34 -17 -69 -24.5t-82 -7.5q-80 0 -141.5 32.5zM50 835h166l39 -107l10 -39q13 41 27 78
q8 22 13.5 39t9.5 29h166l-123 -249h-185z" />
    <glyph glyph-name="ccedilla" unicode="&#xe7;" horiz-adv-x="472" 
d="M379.5 -0.5q-34.5 -7.5 -78.5 -7.5l-12 -37q47 -12 68.5 -35.5t21.5 -59.5q0 -49 -37 -78.5t-100 -29.5q-52 0 -91 18l1 57q24 -8 47 -8q27 0 42 12t15 35q0 19 -16 31t-42 16l29 86q-92 20 -147 87.5t-55 163.5q0 72 36 131t98 93t138 34q97 0 153 -40l-19 -133
q-57 17 -94 17q-48 0 -76 -27.5t-28 -74.5t28 -75t74 -28q40 0 94 17l19 -140q-34 -17 -68.5 -24.5z" />
    <glyph glyph-name="ccircumflex" unicode="&#x109;" horiz-adv-x="472" 
d="M155.5 24.5q-61.5 32.5 -96 91.5t-34.5 134q0 72 36 131t98 93t138 34q97 0 153 -40l-19 -133q-57 17 -94 17q-48 0 -76 -27.5t-28 -74.5t28 -75t74 -28q40 0 94 17l19 -140q-34 -17 -69 -24.5t-82 -7.5q-80 0 -141.5 32.5zM173 835h185l123 -249h-166l-38 106l-12 38
l-10 -38l-39 -106h-166z" />
    <glyph glyph-name="cdotaccent" unicode="&#x10b;" horiz-adv-x="472" 
d="M155.5 24.5q-61.5 32.5 -96 91.5t-34.5 134q0 72 36 131t98 93t138 34q97 0 153 -40l-19 -133q-57 17 -94 17q-48 0 -76 -27.5t-28 -74.5t28 -75t74 -28q40 0 94 17l19 -140q-34 -17 -69 -24.5t-82 -7.5q-80 0 -141.5 32.5zM186.5 605.5q-32.5 29.5 -32.5 72.5t34 72
t78 29q46 0 79.5 -30t33.5 -71q0 -44 -34 -73t-79 -29q-47 0 -79.5 29.5z" />
    <glyph glyph-name="d" unicode="d" horiz-adv-x="697" 
d="M145.5 28q-55.5 36 -87.5 95.5t-32 126.5q0 71 33.5 130.5t90 93.5t120.5 34q58 0 98.5 -24t65.5 -77v252l211 31v-690h-211v93q-47 -101 -165 -101q-68 0 -123.5 36zM405.5 180q28.5 30 28.5 70v4q0 39 -30 67.5t-69 28.5q-42 0 -70.5 -29.5t-28.5 -70.5q0 -42 29.5 -71
t69.5 -29q42 0 70.5 30z" />
    <glyph glyph-name="eth" unicode="&#xf0;" horiz-adv-x="655" 
d="M165.5 13.5q-66.5 29.5 -103 82.5t-36.5 121q0 100 65 156.5t173 56.5q85 0 141 -45q-7 52 -23 83l-72 -26l-22 57l51 18q-10 5 -26 7.5t-30 2.5q-41 0 -77 -6t-79 -20l-53 148q46 26 108 40t117 14q79 0 142.5 -28t106.5 -84l71 25l22 -56l-60 -21q45 -88 45 -202
q0 -105 -38.5 -185t-108 -124t-160.5 -44q-87 0 -153.5 29.5zM378.5 179.5q20.5 32.5 25.5 95.5q-40 15 -82 15q-39 0 -63 -20t-24 -53q0 -32 22.5 -51t55.5 -19q45 0 65.5 32.5z" />
    <glyph glyph-name="dcaron" unicode="&#x10f;" horiz-adv-x="697" 
d="M145.5 28q-55.5 36 -87.5 95.5t-32 126.5q0 71 33.5 130.5t90 93.5t120.5 34q58 0 98.5 -24t65.5 -77v252l211 31v-690h-211v93q-47 -101 -165 -101q-68 0 -123.5 36zM405.5 180q28.5 30 28.5 70v4q0 39 -30 67.5t-69 28.5q-42 0 -70.5 -29.5t-28.5 -70.5q0 -42 29.5 -71
t69.5 -29q42 0 70.5 30zM705 483q42 0 59.5 10.5t20.5 34.5h-80v160h185v-87q0 -107 -42 -153t-143 -46v81z" />
    <glyph glyph-name="dcroat" unicode="&#x111;" horiz-adv-x="697" 
d="M145.5 28q-55.5 36 -87.5 95.5t-32 126.5q0 71 33.5 130.5t90 93.5t120.5 34q58 0 98.5 -24t65.5 -77v133h-69v85h69v34l211 31v-65h32v-85h-32v-540h-211v93q-47 -101 -165 -101q-68 0 -123.5 36zM405.5 180q28.5 30 28.5 70v4q0 39 -30 67.5t-69 28.5
q-42 0 -70.5 -29.5t-28.5 -70.5q0 -42 29.5 -71t69.5 -29q42 0 70.5 30z" />
    <glyph glyph-name="uni01C6" unicode="&#x1c6;" horiz-adv-x="1187" 
d="M145.5 28q-55.5 36 -87.5 95.5t-32 126.5q0 71 33.5 130.5t90 93.5t120.5 34q58 0 98.5 -24t65.5 -77v252l211 31v-690h-211v93q-47 -101 -165 -101q-68 0 -123.5 36zM405.5 180q28.5 30 28.5 70v4q0 39 -30 67.5t-69 28.5q-42 0 -70.5 -29.5t-28.5 -70.5q0 -42 29.5 -71
t69.5 -29q42 0 70.5 30zM728 107l176 266h-169v128h416v-108l-167 -265h171v-128h-427v107zM727 835h166l39 -107l10 -39q13 41 27 78q8 22 13.5 39t9.5 29h166l-123 -249h-185z" />
    <glyph glyph-name="e" unicode="e" horiz-adv-x="556" 
d="M161.5 25.5q-64.5 33.5 -100.5 92t-36 132.5q0 76 37 135t100 91t140 32q74 0 126.5 -32.5t78.5 -88t26 -124.5q0 -18 -2 -26l-300 -39q12 -35 39 -50.5t71 -15.5q68 0 147 35l25 -134q-93 -41 -204 -41q-83 0 -147.5 33.5zM378 324q-16 63 -76 63q-36 0 -57 -27t-22 -70
z" />
    <glyph glyph-name="eacute" unicode="&#xe9;" horiz-adv-x="556" 
d="M161.5 25.5q-64.5 33.5 -100.5 92t-36 132.5q0 76 37 135t100 91t140 32q74 0 126.5 -32.5t78.5 -88t26 -124.5q0 -18 -2 -26l-300 -39q12 -35 39 -50.5t71 -15.5q68 0 147 35l25 -134q-93 -41 -204 -41q-83 0 -147.5 33.5zM378 324q-16 63 -76 63q-36 0 -57 -27t-22 -70
zM116 683l293 205l101 -179l-333 -133z" />
    <glyph glyph-name="ebreve" unicode="&#x115;" horiz-adv-x="556" 
d="M161.5 25.5q-64.5 33.5 -100.5 92t-36 132.5q0 76 37 135t100 91t140 32q74 0 126.5 -32.5t78.5 -88t26 -124.5q0 -18 -2 -26l-300 -39q12 -35 39 -50.5t71 -15.5q68 0 147 35l25 -134q-93 -41 -204 -41q-83 0 -147.5 33.5zM378 324q-16 63 -76 63q-36 0 -57 -27t-22 -70
zM147.5 640.5q-52.5 64.5 -56.5 193.5h141q0 -133 56 -133q26 0 39.5 30.5t13.5 102.5h143q-4 -131 -56 -194.5t-140 -63.5t-140.5 64.5z" />
    <glyph glyph-name="ecaron" unicode="&#x11b;" horiz-adv-x="556" 
d="M161.5 25.5q-64.5 33.5 -100.5 92t-36 132.5q0 76 37 135t100 91t140 32q74 0 126.5 -32.5t78.5 -88t26 -124.5q0 -18 -2 -26l-300 -39q12 -35 39 -50.5t71 -15.5q68 0 147 35l25 -134q-93 -41 -204 -41q-83 0 -147.5 33.5zM378 324q-16 63 -76 63q-36 0 -57 -27t-22 -70
zM72 835h166l39 -107l10 -39q13 41 27 78q8 22 13.5 39t9.5 29h166l-123 -249h-185z" />
    <glyph glyph-name="ecircumflex" unicode="&#xea;" horiz-adv-x="556" 
d="M161.5 25.5q-64.5 33.5 -100.5 92t-36 132.5q0 76 37 135t100 91t140 32q74 0 126.5 -32.5t78.5 -88t26 -124.5q0 -18 -2 -26l-300 -39q12 -35 39 -50.5t71 -15.5q68 0 147 35l25 -134q-93 -41 -204 -41q-83 0 -147.5 33.5zM378 324q-16 63 -76 63q-36 0 -57 -27t-22 -70
zM195 835h185l123 -249h-166l-38 106l-12 38l-10 -38l-39 -106h-166z" />
    <glyph glyph-name="uni1EBF" unicode="&#x1ebf;" horiz-adv-x="556" 
d="M161.5 25.5q-64.5 33.5 -100.5 92t-36 132.5q0 76 37 135t100 91t140 32q74 0 126.5 -32.5t78.5 -88t26 -124.5q0 -18 -2 -26l-300 -39q12 -35 39 -50.5t71 -15.5q68 0 147 35l25 -134q-93 -41 -204 -41q-83 0 -147.5 33.5zM378 324q-16 63 -76 63q-36 0 -57 -27t-22 -70
zM106 909l293 175l85 -161l-333 -103zM195 784h185l123 -198h-163l-53 101l-52 -101h-163z" />
    <glyph glyph-name="uni1EC7" unicode="&#x1ec7;" horiz-adv-x="556" 
d="M161.5 25.5q-64.5 33.5 -100.5 92t-36 132.5q0 76 37 135t100 91t140 32q74 0 126.5 -32.5t78.5 -88t26 -124.5q0 -18 -2 -26l-300 -39q12 -35 39 -50.5t71 -15.5q68 0 147 35l25 -134q-93 -41 -204 -41q-83 0 -147.5 33.5zM378 324q-16 63 -76 63q-36 0 -57 -27t-22 -70
zM208.5 -248.5q-32.5 29.5 -32.5 72.5t34 72t78 29q46 0 79.5 -30t33.5 -71q0 -44 -34 -73t-79 -29q-47 0 -79.5 29.5zM195 835h185l123 -249h-166l-38 106l-12 38l-10 -38l-39 -106h-166z" />
    <glyph glyph-name="uni1EC1" unicode="&#x1ec1;" horiz-adv-x="556" 
d="M161.5 25.5q-64.5 33.5 -100.5 92t-36 132.5q0 76 37 135t100 91t140 32q74 0 126.5 -32.5t78.5 -88t26 -124.5q0 -18 -2 -26l-300 -39q12 -35 39 -50.5t71 -15.5q68 0 147 35l25 -134q-93 -41 -204 -41q-83 0 -147.5 33.5zM378 324q-16 63 -76 63q-36 0 -57 -27t-22 -70
zM92 923l85 161l293 -175l-45 -89zM196 784h185l123 -198h-163l-52 101l-53 -101h-163z" />
    <glyph glyph-name="uni1EC3" unicode="&#x1ec3;" horiz-adv-x="556" 
d="M161.5 25.5q-64.5 33.5 -100.5 92t-36 132.5q0 76 37 135t100 91t140 32q74 0 126.5 -32.5t78.5 -88t26 -124.5q0 -18 -2 -26l-300 -39q12 -35 39 -50.5t71 -15.5q68 0 147 35l25 -134q-93 -41 -204 -41q-83 0 -147.5 33.5zM378 324q-16 63 -76 63q-36 0 -57 -27t-22 -70
zM224 870q0 18 9 29.5t27 26.5q16 11 24 21t8 24q0 11 -10 18t-31 7q-27 0 -70 -15l-8 83q57 20 123 20q69 0 101 -24t32 -66q0 -32 -12 -50.5t-35 -38.5q-17 -15 -25 -26t-8 -27v-17h-122q-3 17 -3 35zM196 784h185l123 -198h-163l-52 101l-53 -101h-163z" />
    <glyph glyph-name="uni1EC5" unicode="&#x1ec5;" horiz-adv-x="556" 
d="M161.5 25.5q-64.5 33.5 -100.5 92t-36 132.5q0 76 37 135t100 91t140 32q74 0 126.5 -32.5t78.5 -88t26 -124.5q0 -18 -2 -26l-300 -39q12 -35 39 -50.5t71 -15.5q68 0 147 35l25 -134q-93 -41 -204 -41q-83 0 -147.5 33.5zM378 324q-16 63 -76 63q-36 0 -57 -27t-22 -70
zM82 870q24 66 62 99.5t84 33.5q18 0 33.5 -5t34.5 -15q21 -10 32 -14t24 -4q14 0 25.5 9.5t24.5 29.5l92 -40q-24 -66 -61.5 -100t-84.5 -34q-18 0 -33.5 5t-34.5 15q-21 10 -32 14t-24 4q-14 0 -25.5 -9.5t-24.5 -29.5zM196 784h185l123 -198h-163l-52 101l-53 -101h-163z
" />
    <glyph glyph-name="uni0205" unicode="&#x205;" horiz-adv-x="556" 
d="M161.5 25.5q-64.5 33.5 -100.5 92t-36 132.5q0 76 37 135t100 91t140 32q74 0 126.5 -32.5t78.5 -88t26 -124.5q0 -18 -2 -26l-300 -39q12 -35 39 -50.5t71 -15.5q68 0 147 35l25 -134q-93 -41 -204 -41q-83 0 -147.5 33.5zM378 324q-16 63 -76 63q-36 0 -57 -27t-22 -70
zM4 826l157 64l104 -276l-107 -38zM231 848l166 40l61 -288l-113 -23z" />
    <glyph glyph-name="edieresis" unicode="&#xeb;" horiz-adv-x="556" 
d="M161.5 25.5q-64.5 33.5 -100.5 92t-36 132.5q0 76 37 135t100 91t140 32q74 0 126.5 -32.5t78.5 -88t26 -124.5q0 -18 -2 -26l-300 -39q12 -35 39 -50.5t71 -15.5q68 0 147 35l25 -134q-93 -41 -204 -41q-83 0 -147.5 33.5zM378 324q-16 63 -76 63q-36 0 -57 -27t-22 -70
zM67.5 605q-32.5 29 -32.5 71q0 43 34 72.5t78 29.5q46 0 79.5 -30.5t33.5 -71.5q0 -43 -34 -71.5t-79 -28.5q-47 0 -79.5 29zM349 606q-32 30 -32 70q0 44 34.5 73t78.5 29q33 0 58 -15t39 -38.5t14 -48.5q0 -43 -33 -71.5t-78 -28.5q-49 0 -81 30z" />
    <glyph glyph-name="edotaccent" unicode="&#x117;" horiz-adv-x="556" 
d="M161.5 25.5q-64.5 33.5 -100.5 92t-36 132.5q0 76 37 135t100 91t140 32q74 0 126.5 -32.5t78.5 -88t26 -124.5q0 -18 -2 -26l-300 -39q12 -35 39 -50.5t71 -15.5q68 0 147 35l25 -134q-93 -41 -204 -41q-83 0 -147.5 33.5zM378 324q-16 63 -76 63q-36 0 -57 -27t-22 -70
zM208.5 605.5q-32.5 29.5 -32.5 72.5t34 72t78 29q46 0 79.5 -30t33.5 -71q0 -44 -34 -73t-79 -29q-47 0 -79.5 29.5z" />
    <glyph glyph-name="uni1EB9" unicode="&#x1eb9;" horiz-adv-x="556" 
d="M161.5 25.5q-64.5 33.5 -100.5 92t-36 132.5q0 76 37 135t100 91t140 32q74 0 126.5 -32.5t78.5 -88t26 -124.5q0 -18 -2 -26l-300 -39q12 -35 39 -50.5t71 -15.5q68 0 147 35l25 -134q-93 -41 -204 -41q-83 0 -147.5 33.5zM378 324q-16 63 -76 63q-36 0 -57 -27t-22 -70
zM208.5 -248.5q-32.5 29.5 -32.5 72.5t34 72t78 29q46 0 79.5 -30t33.5 -71q0 -44 -34 -73t-79 -29q-47 0 -79.5 29.5z" />
    <glyph glyph-name="egrave" unicode="&#xe8;" horiz-adv-x="556" 
d="M161.5 25.5q-64.5 33.5 -100.5 92t-36 132.5q0 76 37 135t100 91t140 32q74 0 126.5 -32.5t78.5 -88t26 -124.5q0 -18 -2 -26l-300 -39q12 -35 39 -50.5t71 -15.5q68 0 147 35l25 -134q-93 -41 -204 -41q-83 0 -147.5 33.5zM378 324q-16 63 -76 63q-36 0 -57 -27t-22 -70
zM66 709l101 179l293 -205l-61 -107z" />
    <glyph glyph-name="uni1EBB" unicode="&#x1ebb;" horiz-adv-x="556" 
d="M161.5 25.5q-64.5 33.5 -100.5 92t-36 132.5q0 76 37 135t100 91t140 32q74 0 126.5 -32.5t78.5 -88t26 -124.5q0 -18 -2 -26l-300 -39q12 -35 39 -50.5t71 -15.5q68 0 147 35l25 -134q-93 -41 -204 -41q-83 0 -147.5 33.5zM378 324q-16 63 -76 63q-36 0 -57 -27t-22 -70
zM224 621q0 23 10 37t29 29q15 13 22 22.5t7 22.5q0 11 -10 18t-31 7q-27 0 -70 -15l-8 83q57 20 123 20q69 0 101 -24t32 -66q0 -31 -11.5 -49.5t-32.5 -38.5q-19 -18 -27.5 -31t-8.5 -33v-17h-122q-3 17 -3 35z" />
    <glyph glyph-name="uni0207" unicode="&#x207;" horiz-adv-x="556" 
d="M161.5 25.5q-64.5 33.5 -100.5 92t-36 132.5q0 76 37 135t100 91t140 32q74 0 126.5 -32.5t78.5 -88t26 -124.5q0 -18 -2 -26l-300 -39q12 -35 39 -50.5t71 -15.5q68 0 147 35l25 -134q-93 -41 -204 -41q-83 0 -147.5 33.5zM378 324q-16 63 -76 63q-36 0 -57 -27t-22 -70
zM147 780.5q52 63.5 140 63.5t140.5 -64.5t56.5 -193.5h-141q0 133 -56 133q-26 0 -39.5 -30.5t-13.5 -102.5h-143q4 131 56 194.5z" />
    <glyph glyph-name="emacron" unicode="&#x113;" horiz-adv-x="556" 
d="M161.5 25.5q-64.5 33.5 -100.5 92t-36 132.5q0 76 37 135t100 91t140 32q74 0 126.5 -32.5t78.5 -88t26 -124.5q0 -18 -2 -26l-300 -39q12 -35 39 -50.5t71 -15.5q68 0 147 35l25 -134q-93 -41 -204 -41q-83 0 -147.5 33.5zM378 324q-16 63 -76 63q-36 0 -57 -27t-22 -70
zM114 714h348v-128h-348v128z" />
    <glyph glyph-name="eogonek" unicode="&#x119;" horiz-adv-x="556" 
d="M212 -223.5q-34 24.5 -34 65.5t33 80.5t97 69.5q-83 0 -147.5 33.5t-100 92t-35.5 132.5q0 76 37 135t100 91t140 32q74 0 126.5 -32.5t78.5 -88t26 -124.5q0 -18 -2 -26l-300 -39q12 -35 39 -50.5t71 -15.5q68 0 147 35l25 -134q-117 -43 -162 -88.5t-45 -84.5
q0 -41 48 -41q20 0 47 9l1 -58q-43 -18 -93 -18q-63 0 -97 24.5zM378 324q-16 63 -76 63q-36 0 -57 -27t-22 -70z" />
    <glyph glyph-name="uni1EBD" unicode="&#x1ebd;" horiz-adv-x="556" 
d="M161.5 25.5q-64.5 33.5 -100.5 92t-36 132.5q0 76 37 135t100 91t140 32q74 0 126.5 -32.5t78.5 -88t26 -124.5q0 -18 -2 -26l-300 -39q12 -35 39 -50.5t71 -15.5q68 0 147 35l25 -134q-93 -41 -204 -41q-83 0 -147.5 33.5zM378 324q-16 63 -76 63q-36 0 -57 -27t-22 -70
zM45 626q28 78 72.5 117.5t99.5 39.5q21 0 39 -6.5t41 -19.5q21 -11 35.5 -16.5t30.5 -5.5q15 0 28.5 12t30.5 37l108 -47q-28 -78 -72.5 -118t-99.5 -40q-21 0 -39 6.5t-41 19.5q-21 11 -35.5 16.5t-30.5 5.5q-15 0 -28.5 -12t-30.5 -37z" />
    <glyph glyph-name="uni0259" unicode="&#x259;" horiz-adv-x="556" 
d="M130.5 24.5q-54.5 32.5 -81 88t-26.5 124.5q0 18 2 26l300 39q-12 35 -39 50.5t-71 15.5q-68 0 -147 -35l-25 134q93 41 204 41q83 0 147.5 -33.5t100.5 -92t36 -132.5q0 -76 -36.5 -134.5t-97.5 -91t-133 -32.5q-79 0 -133.5 32.5zM311.5 140q20.5 27 21.5 70l-155 -34
q17 -63 78 -63q35 0 55.5 27z" />
    <glyph glyph-name="f" unicode="f" horiz-adv-x="435" 
d="M88 377h-63v124h63v42q0 111 53.5 168t149.5 57q77 0 143 -39l-7 -135q-58 23 -97 23q-30 0 -46 -14.5t-16 -41.5q0 -26 17 -60h140v-124h-126v-377h-211v377z" />
    <glyph glyph-name="g" unicode="g" horiz-adv-x="695" 
d="M228 -218l16 148q39 -6 72 -6q62 0 94 36.5t38 122.5q-59 -83 -180 -83q-66 0 -121.5 34t-88 92t-32.5 127q0 70 32 128.5t87.5 92.5t121.5 34q61 0 106.5 -31.5t59.5 -84.5v116h211v-381q0 -175 -79.5 -265.5t-231.5 -90.5q-55 0 -105 11zM402 178.5q29 28.5 31 67.5v8
q-2 38 -31.5 67t-68.5 29q-41 0 -70 -29.5t-29 -70.5t29 -70.5t70 -29.5q40 0 69 28.5z" />
    <glyph glyph-name="gbreve" unicode="&#x11f;" horiz-adv-x="695" 
d="M228 -218l16 148q39 -6 72 -6q62 0 94 36.5t38 122.5q-59 -83 -180 -83q-66 0 -121.5 34t-88 92t-32.5 127q0 70 32 128.5t87.5 92.5t121.5 34q61 0 106.5 -31.5t59.5 -84.5v116h211v-381q0 -175 -79.5 -265.5t-231.5 -90.5q-55 0 -105 11zM402 178.5q29 28.5 31 67.5v8
q-2 38 -31.5 67t-68.5 29q-41 0 -70 -29.5t-29 -70.5t29 -70.5t70 -29.5q40 0 69 28.5zM207.5 640.5q-52.5 64.5 -56.5 193.5h141q0 -133 56 -133q26 0 39.5 30.5t13.5 102.5h143q-4 -131 -56 -194.5t-140 -63.5t-140.5 64.5z" />
    <glyph glyph-name="gcaron" unicode="&#x1e7;" horiz-adv-x="695" 
d="M228 -218l16 148q39 -6 72 -6q62 0 94 36.5t38 122.5q-59 -83 -180 -83q-66 0 -121.5 34t-88 92t-32.5 127q0 70 32 128.5t87.5 92.5t121.5 34q61 0 106.5 -31.5t59.5 -84.5v116h211v-381q0 -175 -79.5 -265.5t-231.5 -90.5q-55 0 -105 11zM402 178.5q29 28.5 31 67.5v8
q-2 38 -31.5 67t-68.5 29q-41 0 -70 -29.5t-29 -70.5t29 -70.5t70 -29.5q40 0 69 28.5zM132 835h166l39 -107l10 -39q13 41 27 78q8 22 13.5 39t9.5 29h166l-123 -249h-185z" />
    <glyph glyph-name="gcircumflex" unicode="&#x11d;" horiz-adv-x="695" 
d="M228 -218l16 148q39 -6 72 -6q62 0 94 36.5t38 122.5q-59 -83 -180 -83q-66 0 -121.5 34t-88 92t-32.5 127q0 70 32 128.5t87.5 92.5t121.5 34q61 0 106.5 -31.5t59.5 -84.5v116h211v-381q0 -175 -79.5 -265.5t-231.5 -90.5q-55 0 -105 11zM402 178.5q29 28.5 31 67.5v8
q-2 38 -31.5 67t-68.5 29q-41 0 -70 -29.5t-29 -70.5t29 -70.5t70 -29.5q40 0 69 28.5zM255 835h185l123 -249h-166l-38 106l-12 38l-10 -38l-39 -106h-166z" />
    <glyph glyph-name="gcommaaccent" unicode="&#x123;" horiz-adv-x="695" 
d="M228 -218l16 148q39 -6 72 -6q62 0 94 36.5t38 122.5q-59 -83 -180 -83q-66 0 -121.5 34t-88 92t-32.5 127q0 70 32 128.5t87.5 92.5t121.5 34q61 0 106.5 -31.5t59.5 -84.5v116h211v-381q0 -175 -79.5 -265.5t-231.5 -90.5q-55 0 -105 11zM402 178.5q29 28.5 31 67.5v8
q-2 38 -31.5 67t-68.5 29q-41 0 -70 -29.5t-29 -70.5t29 -70.5t70 -29.5q40 0 69 28.5zM255 673q0 107 42 153t143 46v-81q-42 0 -59.5 -10.5t-20.5 -34.5h80v-160h-185v87z" />
    <glyph glyph-name="gdotaccent" unicode="&#x121;" horiz-adv-x="695" 
d="M228 -218l16 148q39 -6 72 -6q62 0 94 36.5t38 122.5q-59 -83 -180 -83q-66 0 -121.5 34t-88 92t-32.5 127q0 70 32 128.5t87.5 92.5t121.5 34q61 0 106.5 -31.5t59.5 -84.5v116h211v-381q0 -175 -79.5 -265.5t-231.5 -90.5q-55 0 -105 11zM402 178.5q29 28.5 31 67.5v8
q-2 38 -31.5 67t-68.5 29q-41 0 -70 -29.5t-29 -70.5t29 -70.5t70 -29.5q40 0 69 28.5zM268.5 605.5q-32.5 29.5 -32.5 72.5t34 72t78 29q46 0 79.5 -30t33.5 -71q0 -44 -34 -73t-79 -29q-47 0 -79.5 29.5z" />
    <glyph glyph-name="h" unicode="h" horiz-adv-x="687" 
d="M50 659l211 31v-292q22 53 66.5 81.5t107.5 28.5q96 0 150.5 -68.5t54.5 -189.5v-250h-210v271q0 43 -18.5 66t-51.5 23q-24 0 -47 -15.5t-37.5 -44.5t-14.5 -66v-234h-211v659z" />
    <glyph glyph-name="hbar" unicode="&#x127;" horiz-adv-x="687" 
d="M50 540h-59v85h59v34l211 31v-65h105v-85h-105v-142q22 53 66.5 81.5t107.5 28.5q96 0 150.5 -68.5t54.5 -189.5v-250h-210v271q0 43 -18.5 66t-51.5 23q-24 0 -47 -15.5t-37.5 -44.5t-14.5 -66v-234h-211v540z" />
    <glyph glyph-name="hcircumflex" unicode="&#x125;" horiz-adv-x="687" 
d="M50 659l211 31v-292q22 53 66.5 81.5t107.5 28.5q96 0 150.5 -68.5t54.5 -189.5v-250h-210v271q0 43 -18.5 66t-51.5 23q-24 0 -47 -15.5t-37.5 -44.5t-14.5 -66v-234h-211v659zM253 1022h185l123 -249h-166l-38 106l-12 38l-10 -38l-39 -106h-166z" />
    <glyph glyph-name="i" unicode="i" horiz-adv-x="365" 
d="M95 46q-47 54 -47 147v308h212v-299q0 -23 12.5 -35.5t32.5 -12.5t41 12l11 -139q-22 -17 -57.5 -26t-73.5 -9q-84 0 -131 54zM74.5 605.5q-32.5 29.5 -32.5 72.5t34 72t78 29q46 0 79.5 -30t33.5 -71q0 -44 -34 -73t-79 -29q-47 0 -79.5 29.5z" />
    <glyph glyph-name="dotlessi" unicode="&#x131;" horiz-adv-x="365" 
d="M95 46q-47 54 -47 147v308h212v-299q0 -23 12.5 -35.5t32.5 -12.5t41 12l11 -139q-22 -17 -57.5 -26t-73.5 -9q-84 0 -131 54z" />
    <glyph glyph-name="iacute" unicode="&#xed;" horiz-adv-x="365" 
d="M95 46q-47 54 -47 147v308h212v-299q0 -23 12.5 -35.5t32.5 -12.5t41 12l11 -139q-22 -17 -57.5 -26t-73.5 -9q-84 0 -131 54zM-18 683l293 205l101 -179l-333 -133z" />
    <glyph glyph-name="ibreve" unicode="&#x12d;" horiz-adv-x="365" 
d="M95 46q-47 54 -47 147v308h212v-299q0 -23 12.5 -35.5t32.5 -12.5t41 12l11 -139q-22 -17 -57.5 -26t-73.5 -9q-84 0 -131 54zM13.5 640.5q-52.5 64.5 -56.5 193.5h141q0 -133 56 -133q26 0 39.5 30.5t13.5 102.5h143q-4 -131 -56 -194.5t-140 -63.5t-140.5 64.5z" />
    <glyph glyph-name="icircumflex" unicode="&#xee;" horiz-adv-x="365" 
d="M95 46q-47 54 -47 147v308h212v-299q0 -23 12.5 -35.5t32.5 -12.5t41 12l11 -139q-22 -17 -57.5 -26t-73.5 -9q-84 0 -131 54zM61 835h185l123 -249h-166l-38 106l-12 38l-10 -38l-39 -106h-166z" />
    <glyph glyph-name="uni0209" unicode="&#x209;" horiz-adv-x="365" 
d="M95 46q-47 54 -47 147v308h212v-299q0 -23 12.5 -35.5t32.5 -12.5t41 12l11 -139q-22 -17 -57.5 -26t-73.5 -9q-84 0 -131 54zM-130 826l157 64l104 -276l-107 -38zM97 848l166 40l61 -288l-113 -23z" />
    <glyph glyph-name="idieresis" unicode="&#xef;" horiz-adv-x="365" 
d="M95 46q-47 54 -47 147v308h212v-299q0 -23 12.5 -35.5t32.5 -12.5t41 12l11 -139q-22 -17 -57.5 -26t-73.5 -9q-84 0 -131 54zM-66.5 605q-32.5 29 -32.5 71q0 43 34 72.5t78 29.5q46 0 79.5 -30.5t33.5 -71.5q0 -43 -34 -71.5t-79 -28.5q-47 0 -79.5 29zM215 606
q-32 30 -32 70q0 44 34.5 73t78.5 29q33 0 58 -15t39 -38.5t14 -48.5q0 -43 -33 -71.5t-78 -28.5q-49 0 -81 30z" />
    <glyph glyph-name="i.loclTRK" horiz-adv-x="365" 
d="M95 46q-47 54 -47 147v308h212v-299q0 -23 12.5 -35.5t32.5 -12.5t41 12l11 -139q-22 -17 -57.5 -26t-73.5 -9q-84 0 -131 54zM74.5 605.5q-32.5 29.5 -32.5 72.5t34 72t78 29q46 0 79.5 -30t33.5 -71q0 -44 -34 -73t-79 -29q-47 0 -79.5 29.5z" />
    <glyph glyph-name="uni1ECB" unicode="&#x1ecb;" horiz-adv-x="365" 
d="M95 46q-47 54 -47 147v308h212v-299q0 -23 12.5 -35.5t32.5 -12.5t41 12l11 -139q-22 -17 -57.5 -26t-73.5 -9q-84 0 -131 54zM74.5 605.5q-32.5 29.5 -32.5 72.5t34 72t78 29q46 0 79.5 -30t33.5 -71q0 -44 -34 -73t-79 -29q-47 0 -79.5 29.5zM103.5 -248.5
q-32.5 29.5 -32.5 72.5t34 72t78 29q46 0 79.5 -30t33.5 -71q0 -44 -34 -73t-79 -29q-47 0 -79.5 29.5z" />
    <glyph glyph-name="igrave" unicode="&#xec;" horiz-adv-x="365" 
d="M95 46q-47 54 -47 147v308h212v-299q0 -23 12.5 -35.5t32.5 -12.5t41 12l11 -139q-22 -17 -57.5 -26t-73.5 -9q-84 0 -131 54zM-68 709l101 179l293 -205l-61 -107z" />
    <glyph glyph-name="uni1EC9" unicode="&#x1ec9;" horiz-adv-x="365" 
d="M95 46q-47 54 -47 147v308h212v-299q0 -23 12.5 -35.5t32.5 -12.5t41 12l11 -139q-22 -17 -57.5 -26t-73.5 -9q-84 0 -131 54zM90 621q0 23 10 37t29 29q15 13 22 22.5t7 22.5q0 11 -10 18t-31 7q-27 0 -70 -15l-8 83q57 20 123 20q69 0 101 -24t32 -66
q0 -31 -11.5 -49.5t-32.5 -38.5q-19 -18 -27.5 -31t-8.5 -33v-17h-122q-3 17 -3 35z" />
    <glyph glyph-name="uni020B" unicode="&#x20b;" horiz-adv-x="365" 
d="M95 46q-47 54 -47 147v308h212v-299q0 -23 12.5 -35.5t32.5 -12.5t41 12l11 -139q-22 -17 -57.5 -26t-73.5 -9q-84 0 -131 54zM13 780.5q52 63.5 140 63.5t140.5 -64.5t56.5 -193.5h-141q0 133 -56 133q-26 0 -39.5 -30.5t-13.5 -102.5h-143q4 131 56 194.5z" />
    <glyph glyph-name="ij" unicode="&#x133;" horiz-adv-x="668" 
d="M211 -218l16 148q39 -6 72 -6q59 0 90 35.5t32 133.5q-52 -100 -167 -100q-97 0 -151.5 68.5t-54.5 189.5v250h210v-281q0 -34 19 -56.5t52 -22.5q34 0 55.5 29t21.5 76v255h211v-374q0 -174 -78 -265t-223 -91q-55 0 -105 11zM113.5 605q-32.5 29 -32.5 71q0 43 34 72.5
t78 29.5q46 0 79.5 -30.5t33.5 -71.5q0 -43 -34 -71.5t-79 -28.5q-47 0 -79.5 29zM395 606q-32 30 -32 70q0 44 34.5 73t78.5 29q33 0 58 -15t39 -38.5t14 -48.5q0 -43 -33 -71.5t-78 -28.5q-49 0 -81 30z" />
    <glyph glyph-name="imacron" unicode="&#x12b;" horiz-adv-x="365" 
d="M95 46q-47 54 -47 147v308h212v-299q0 -23 12.5 -35.5t32.5 -12.5t41 12l11 -139q-22 -17 -57.5 -26t-73.5 -9q-84 0 -131 54zM-20 714h348v-128h-348v128z" />
    <glyph glyph-name="iogonek" unicode="&#x12f;" horiz-adv-x="365" 
d="M74.5 605.5q-32.5 29.5 -32.5 72.5t34 72t78 29q46 0 79.5 -30t33.5 -71q0 -44 -34 -73t-79 -29q-47 0 -79.5 29.5zM99 -223.5q-34 24.5 -34 65.5t33 80t95 72q-69 11 -107 64t-38 135v308h212v-299q0 -23 12.5 -35.5t32.5 -12.5t41 12l11 -139q-164 -90 -164 -167
q0 -41 48 -41q20 0 47 9l1 -58q-43 -18 -93 -18q-63 0 -97 24.5z" />
    <glyph glyph-name="itilde" unicode="&#x129;" horiz-adv-x="365" 
d="M95 46q-47 54 -47 147v308h212v-299q0 -23 12.5 -35.5t32.5 -12.5t41 12l11 -139q-22 -17 -57.5 -26t-73.5 -9q-84 0 -131 54zM-89 626q28 78 72.5 117.5t99.5 39.5q21 0 39 -6.5t41 -19.5q21 -11 35.5 -16.5t30.5 -5.5q15 0 28.5 12t30.5 37l108 -47q-28 -78 -72.5 -118
t-99.5 -40q-21 0 -39 6.5t-41 19.5q-21 11 -35.5 16.5t-30.5 5.5q-15 0 -28.5 -12t-30.5 -37z" />
    <glyph glyph-name="j" unicode="j" horiz-adv-x="315" 
d="M74.5 595q-32.5 30 -32.5 72t34 71.5t78 29.5q33 0 58.5 -14.5t40 -38t14.5 -48.5q0 -44 -33.5 -73t-79.5 -29q-47 0 -79.5 30zM-129 -163l46 124q45 -15 69 -15q66 0 66 83v472h211v-472q0 -114 -59 -179.5t-162 -65.5q-92 0 -171 53z" />
    <glyph glyph-name="uni0237" unicode="&#x237;" horiz-adv-x="315" 
d="M-129 -163l46 124q45 -15 69 -15q66 0 66 83v472h211v-472q0 -114 -59 -179.5t-162 -65.5q-92 0 -171 53z" />
    <glyph glyph-name="jcircumflex" unicode="&#x135;" horiz-adv-x="315" 
d="M-129 -163l46 124q45 -15 69 -15q66 0 66 83v472h211v-472q0 -114 -59 -179.5t-162 -65.5q-92 0 -171 53zM65 835h185l123 -249h-166l-38 106l-12 38l-10 -38l-39 -106h-166z" />
    <glyph glyph-name="k" unicode="k" horiz-adv-x="642" 
d="M435.5 9.5q-40.5 17.5 -66.5 58.5t-46 117l-59 -47v-138h-212l1 659l212 31l-1 -342l257 210l115 -157l-161 -112q12 -76 34.5 -106t66.5 -30q18 0 43 6l-20 -164q-30 -3 -56 -3q-67 0 -107.5 17.5z" />
    <glyph glyph-name="kcommaaccent" unicode="&#x137;" horiz-adv-x="642" 
d="M435.5 9.5q-40.5 17.5 -66.5 58.5t-46 117l-59 -47v-138h-212l1 659l212 31l-1 -342l257 210l115 -157l-161 -112q12 -76 34.5 -106t66.5 -30q18 0 43 6l-20 -164q-30 -3 -56 -3q-67 0 -107.5 17.5zM228 -290q42 0 59.5 10.5t20.5 34.5h-80v160h185v-87q0 -107 -42 -153
t-143 -46v81z" />
    <glyph glyph-name="kgreenlandic" unicode="&#x138;" horiz-adv-x="639" 
d="M437 2.5q-41 17.5 -68 58.5t-47 114l-59 -47v-128h-211v500h211v-162l189 162h107l72 -86l-167 -135q11 -50 23.5 -77t32 -38t51.5 -11q18 0 43 6l-16 -171q-28 -3 -55 -3q-65 0 -106 17.5z" />
    <glyph glyph-name="l" unicode="l" horiz-adv-x="378" 
d="M94.5 45.5q-46.5 53.5 -46.5 146.5v467l211 31v-483q0 -28 13.5 -40.5t47.5 -12.5q25 0 49 12l7 -140q-67 -34 -150 -34q-85 0 -131.5 53.5z" />
    <glyph glyph-name="lacute" unicode="&#x13a;" horiz-adv-x="378" 
d="M94.5 45.5q-46.5 53.5 -46.5 146.5v467l211 31v-483q0 -28 13.5 -40.5t47.5 -12.5q25 0 49 12l7 -140q-67 -34 -150 -34q-85 0 -131.5 53.5zM-18 870l293 205l101 -179l-333 -133z" />
    <glyph glyph-name="lcaron" unicode="&#x13e;" horiz-adv-x="378" 
d="M94.5 45.5q-46.5 53.5 -46.5 146.5v467l211 31v-483q0 -28 13.5 -40.5t47.5 -12.5q25 0 49 12l7 -140q-67 -34 -150 -34q-85 0 -131.5 53.5zM319 483q42 0 59.5 10.5t20.5 34.5h-80v160h185v-87q0 -107 -42 -153t-143 -46v81z" />
    <glyph glyph-name="lcommaaccent" unicode="&#x13c;" horiz-adv-x="378" 
d="M94.5 45.5q-46.5 53.5 -46.5 146.5v467l211 31v-483q0 -28 13.5 -40.5t47.5 -12.5q25 0 49 12l7 -140q-67 -34 -150 -34q-85 0 -131.5 53.5zM119 -290q42 0 59.5 10.5t20.5 34.5h-80v160h185v-87q0 -107 -42 -153t-143 -46v81z" />
    <glyph glyph-name="ldot" unicode="&#x140;" horiz-adv-x="494" 
d="M94.5 45.5q-46.5 53.5 -46.5 146.5v467l211 31v-483q0 -28 13.5 -40.5t47.5 -12.5q25 0 49 12l7 -140q-67 -34 -150 -34q-85 0 -131.5 53.5zM328 319.5q-30 26.5 -30 70.5q0 40 30.5 69t72.5 29q43 0 72.5 -27.5t29.5 -70.5q0 -42 -29.5 -69.5t-72.5 -27.5t-73 26.5z" />
    <glyph glyph-name="uni01C9" unicode="&#x1c9;" horiz-adv-x="693" 
d="M94.5 45.5q-46.5 53.5 -46.5 146.5v467l211 31v-483q0 -28 13.5 -40.5t47.5 -12.5q25 0 49 12l7 -140q-67 -34 -150 -34q-85 0 -131.5 53.5zM452.5 595q-32.5 30 -32.5 72t34 71.5t78 29.5q33 0 58.5 -14.5t40 -38t14.5 -48.5q0 -44 -33.5 -73t-79.5 -29q-47 0 -79.5 30z
M249 -163l46 124q45 -15 69 -15q66 0 66 83v472h211v-472q0 -114 -59 -179.5t-162 -65.5q-92 0 -171 53z" />
    <glyph glyph-name="lslash" unicode="&#x142;" horiz-adv-x="408" 
d="M124.5 45.5q-46.5 53.5 -46.5 146.5v133l-84 -25v85l84 25v249l211 31v-215l86 26v-85l-86 -26v-183q0 -28 13.5 -40.5t47.5 -12.5q25 0 49 12l7 -140q-67 -34 -150 -34q-85 0 -131.5 53.5z" />
    <glyph glyph-name="m" unicode="m" horiz-adv-x="1026" 
d="M50 494h201v-102q34 59 77.5 87.5t103.5 28.5q59 0 102.5 -29.5t65.5 -79.5q64 109 186 109q58 0 101.5 -31t67.5 -89.5t24 -137.5v-250h-211v250q0 51 -17.5 77t-48.5 26q-34 0 -58.5 -29t-24.5 -70v-254h-209v250q0 51 -17.5 77t-49.5 26q-34 0 -58 -29t-24 -70v-254
h-211v494z" />
    <glyph glyph-name="n" unicode="n" horiz-adv-x="687" 
d="M50 494h201v-102q58 116 184 116q96 0 150.5 -68.5t54.5 -189.5v-250h-210v271q0 43 -18.5 66t-51.5 23q-24 0 -47 -15.5t-37.5 -44.5t-14.5 -66v-234h-211v494z" />
    <glyph glyph-name="nacute" unicode="&#x144;" horiz-adv-x="687" 
d="M50 494h201v-102q58 116 184 116q96 0 150.5 -68.5t54.5 -189.5v-250h-210v271q0 43 -18.5 66t-51.5 23q-24 0 -47 -15.5t-37.5 -44.5t-14.5 -66v-234h-211v494zM172 683l293 205l101 -179l-333 -133z" />
    <glyph glyph-name="napostrophe" unicode="&#x149;" horiz-adv-x="687" 
d="M1 667q42 0 59.5 10.5t20.5 34.5h-80v160h185v-87q0 -107 -42 -153t-143 -46v81zM50 494h201v-102q58 116 184 116q96 0 150.5 -68.5t54.5 -189.5v-250h-210v271q0 43 -18.5 66t-51.5 23q-24 0 -47 -15.5t-37.5 -44.5t-14.5 -66v-234h-211v494z" />
    <glyph glyph-name="ncaron" unicode="&#x148;" horiz-adv-x="687" 
d="M50 494h201v-102q58 116 184 116q96 0 150.5 -68.5t54.5 -189.5v-250h-210v271q0 43 -18.5 66t-51.5 23q-24 0 -47 -15.5t-37.5 -44.5t-14.5 -66v-234h-211v494zM128 835h166l39 -107l10 -39q13 41 27 78q8 22 13.5 39t9.5 29h166l-123 -249h-185z" />
    <glyph glyph-name="ncommaaccent" unicode="&#x146;" horiz-adv-x="687" 
d="M50 494h201v-102q58 116 184 116q96 0 150.5 -68.5t54.5 -189.5v-250h-210v271q0 43 -18.5 66t-51.5 23q-24 0 -47 -15.5t-37.5 -44.5t-14.5 -66v-234h-211v494zM251 -290q42 0 59.5 10.5t20.5 34.5h-80v160h185v-87q0 -107 -42 -153t-143 -46v81z" />
    <glyph glyph-name="eng" unicode="&#x14b;" horiz-adv-x="687" 
d="M248 -193l46 114q36 -14 68 -14q68 0 68 83v281q0 43 -18.5 66t-51.5 23q-24 0 -47 -15.5t-37.5 -44.5t-14.5 -66v-234h-211v494h201v-102q58 116 184 116q96 0 150.5 -68.5t54.5 -189.5v-250q0 -114 -58.5 -180t-162.5 -66q-93 0 -171 53z" />
    <glyph glyph-name="uni01CC" unicode="&#x1cc;" horiz-adv-x="1052" 
d="M50 494h201v-102q58 116 184 116q96 0 150.5 -68.5t54.5 -189.5v-250h-210v271q0 43 -18.5 66t-51.5 23q-24 0 -47 -15.5t-37.5 -44.5t-14.5 -66v-234h-211v494zM811.5 595q-32.5 30 -32.5 72t34 71.5t78 29.5q33 0 58.5 -14.5t40 -38t14.5 -48.5q0 -44 -33.5 -73
t-79.5 -29q-47 0 -79.5 30zM608 -163l46 124q45 -15 69 -15q66 0 66 83v472h211v-472q0 -114 -59 -179.5t-162 -65.5q-92 0 -171 53z" />
    <glyph glyph-name="ntilde" unicode="&#xf1;" horiz-adv-x="687" 
d="M50 494h201v-102q58 116 184 116q96 0 150.5 -68.5t54.5 -189.5v-250h-210v271q0 43 -18.5 66t-51.5 23q-24 0 -47 -15.5t-37.5 -44.5t-14.5 -66v-234h-211v494zM101 626q28 78 72.5 117.5t99.5 39.5q21 0 39 -6.5t41 -19.5q21 -11 35.5 -16.5t30.5 -5.5q15 0 28.5 12
t30.5 37l108 -47q-28 -78 -72.5 -118t-99.5 -40q-21 0 -39 6.5t-41 19.5q-21 11 -35.5 16.5t-30.5 5.5q-15 0 -28.5 -12t-30.5 -37z" />
    <glyph glyph-name="o" unicode="o" horiz-adv-x="627" 
d="M163.5 25q-65.5 33 -102 91.5t-36.5 134.5t37 134.5t102.5 90.5t149.5 32q85 0 150.5 -32.5t101.5 -90.5t36 -134q0 -77 -36.5 -135.5t-102 -91t-150.5 -32.5q-84 0 -149.5 33zM382.5 172.5q26.5 30.5 26.5 78.5t-26.5 78.5t-67.5 30.5t-67.5 -30.5t-26.5 -78.5
t26.5 -78.5t67.5 -30.5t67.5 30.5z" />
    <glyph glyph-name="oacute" unicode="&#xf3;" horiz-adv-x="627" 
d="M163.5 25q-65.5 33 -102 91.5t-36.5 134.5t37 134.5t102.5 90.5t149.5 32q85 0 150.5 -32.5t101.5 -90.5t36 -134q0 -77 -36.5 -135.5t-102 -91t-150.5 -32.5q-84 0 -149.5 33zM382.5 172.5q26.5 30.5 26.5 78.5t-26.5 78.5t-67.5 30.5t-67.5 -30.5t-26.5 -78.5
t26.5 -78.5t67.5 -30.5t67.5 30.5zM142 683l293 205l101 -179l-333 -133z" />
    <glyph glyph-name="obreve" unicode="&#x14f;" horiz-adv-x="627" 
d="M163.5 25q-65.5 33 -102 91.5t-36.5 134.5t37 134.5t102.5 90.5t149.5 32q85 0 150.5 -32.5t101.5 -90.5t36 -134q0 -77 -36.5 -135.5t-102 -91t-150.5 -32.5q-84 0 -149.5 33zM382.5 172.5q26.5 30.5 26.5 78.5t-26.5 78.5t-67.5 30.5t-67.5 -30.5t-26.5 -78.5
t26.5 -78.5t67.5 -30.5t67.5 30.5zM173.5 640.5q-52.5 64.5 -56.5 193.5h141q0 -133 56 -133q26 0 39.5 30.5t13.5 102.5h143q-4 -131 -56 -194.5t-140 -63.5t-140.5 64.5z" />
    <glyph glyph-name="ocircumflex" unicode="&#xf4;" horiz-adv-x="627" 
d="M163.5 25q-65.5 33 -102 91.5t-36.5 134.5t37 134.5t102.5 90.5t149.5 32q85 0 150.5 -32.5t101.5 -90.5t36 -134q0 -77 -36.5 -135.5t-102 -91t-150.5 -32.5q-84 0 -149.5 33zM382.5 172.5q26.5 30.5 26.5 78.5t-26.5 78.5t-67.5 30.5t-67.5 -30.5t-26.5 -78.5
t26.5 -78.5t67.5 -30.5t67.5 30.5zM221 835h185l123 -249h-166l-38 106l-12 38l-10 -38l-39 -106h-166z" />
    <glyph glyph-name="uni1ED1" unicode="&#x1ed1;" horiz-adv-x="627" 
d="M163.5 25q-65.5 33 -102 91.5t-36.5 134.5t37 134.5t102.5 90.5t149.5 32q85 0 150.5 -32.5t101.5 -90.5t36 -134q0 -77 -36.5 -135.5t-102 -91t-150.5 -32.5q-84 0 -149.5 33zM382.5 172.5q26.5 30.5 26.5 78.5t-26.5 78.5t-67.5 30.5t-67.5 -30.5t-26.5 -78.5
t26.5 -78.5t67.5 -30.5t67.5 30.5zM132 909l293 175l85 -161l-333 -103zM221 784h185l123 -198h-163l-53 101l-52 -101h-163z" />
    <glyph glyph-name="uni1ED9" unicode="&#x1ed9;" horiz-adv-x="627" 
d="M163.5 25q-65.5 33 -102 91.5t-36.5 134.5t37 134.5t102.5 90.5t149.5 32q85 0 150.5 -32.5t101.5 -90.5t36 -134q0 -77 -36.5 -135.5t-102 -91t-150.5 -32.5q-84 0 -149.5 33zM382.5 172.5q26.5 30.5 26.5 78.5t-26.5 78.5t-67.5 30.5t-67.5 -30.5t-26.5 -78.5
t26.5 -78.5t67.5 -30.5t67.5 30.5zM234.5 -248.5q-32.5 29.5 -32.5 72.5t34 72t78 29q46 0 79.5 -30t33.5 -71q0 -44 -34 -73t-79 -29q-47 0 -79.5 29.5zM221 835h185l123 -249h-166l-38 106l-12 38l-10 -38l-39 -106h-166z" />
    <glyph glyph-name="uni1ED3" unicode="&#x1ed3;" horiz-adv-x="627" 
d="M163.5 25q-65.5 33 -102 91.5t-36.5 134.5t37 134.5t102.5 90.5t149.5 32q85 0 150.5 -32.5t101.5 -90.5t36 -134q0 -77 -36.5 -135.5t-102 -91t-150.5 -32.5q-84 0 -149.5 33zM382.5 172.5q26.5 30.5 26.5 78.5t-26.5 78.5t-67.5 30.5t-67.5 -30.5t-26.5 -78.5
t26.5 -78.5t67.5 -30.5t67.5 30.5zM118 923l85 161l293 -175l-45 -89zM222 784h185l123 -198h-163l-52 101l-53 -101h-163z" />
    <glyph glyph-name="uni1ED5" unicode="&#x1ed5;" horiz-adv-x="627" 
d="M163.5 25q-65.5 33 -102 91.5t-36.5 134.5t37 134.5t102.5 90.5t149.5 32q85 0 150.5 -32.5t101.5 -90.5t36 -134q0 -77 -36.5 -135.5t-102 -91t-150.5 -32.5q-84 0 -149.5 33zM382.5 172.5q26.5 30.5 26.5 78.5t-26.5 78.5t-67.5 30.5t-67.5 -30.5t-26.5 -78.5
t26.5 -78.5t67.5 -30.5t67.5 30.5zM250 870q0 18 9 29.5t27 26.5q16 11 24 21t8 24q0 11 -10 18t-31 7q-27 0 -70 -15l-8 83q57 20 123 20q69 0 101 -24t32 -66q0 -32 -12 -50.5t-35 -38.5q-17 -15 -25 -26t-8 -27v-17h-122q-3 17 -3 35zM222 784h185l123 -198h-163l-52 101
l-53 -101h-163z" />
    <glyph glyph-name="uni1ED7" unicode="&#x1ed7;" horiz-adv-x="627" 
d="M163.5 25q-65.5 33 -102 91.5t-36.5 134.5t37 134.5t102.5 90.5t149.5 32q85 0 150.5 -32.5t101.5 -90.5t36 -134q0 -77 -36.5 -135.5t-102 -91t-150.5 -32.5q-84 0 -149.5 33zM382.5 172.5q26.5 30.5 26.5 78.5t-26.5 78.5t-67.5 30.5t-67.5 -30.5t-26.5 -78.5
t26.5 -78.5t67.5 -30.5t67.5 30.5zM108 870q24 66 62 99.5t84 33.5q18 0 33.5 -5t34.5 -15q21 -10 32 -14t24 -4q14 0 25.5 9.5t24.5 29.5l92 -40q-24 -66 -61.5 -100t-84.5 -34q-18 0 -33.5 5t-34.5 15q-21 10 -32 14t-24 4q-14 0 -25.5 -9.5t-24.5 -29.5zM222 784h185
l123 -198h-163l-52 101l-53 -101h-163z" />
    <glyph glyph-name="uni020D" unicode="&#x20d;" horiz-adv-x="627" 
d="M163.5 25q-65.5 33 -102 91.5t-36.5 134.5t37 134.5t102.5 90.5t149.5 32q85 0 150.5 -32.5t101.5 -90.5t36 -134q0 -77 -36.5 -135.5t-102 -91t-150.5 -32.5q-84 0 -149.5 33zM382.5 172.5q26.5 30.5 26.5 78.5t-26.5 78.5t-67.5 30.5t-67.5 -30.5t-26.5 -78.5
t26.5 -78.5t67.5 -30.5t67.5 30.5zM30 826l157 64l104 -276l-107 -38zM257 848l166 40l61 -288l-113 -23z" />
    <glyph glyph-name="odieresis" unicode="&#xf6;" horiz-adv-x="627" 
d="M163.5 25q-65.5 33 -102 91.5t-36.5 134.5t37 134.5t102.5 90.5t149.5 32q85 0 150.5 -32.5t101.5 -90.5t36 -134q0 -77 -36.5 -135.5t-102 -91t-150.5 -32.5q-84 0 -149.5 33zM382.5 172.5q26.5 30.5 26.5 78.5t-26.5 78.5t-67.5 30.5t-67.5 -30.5t-26.5 -78.5
t26.5 -78.5t67.5 -30.5t67.5 30.5zM93.5 605q-32.5 29 -32.5 71q0 43 34 72.5t78 29.5q46 0 79.5 -30.5t33.5 -71.5q0 -43 -34 -71.5t-79 -28.5q-47 0 -79.5 29zM375 606q-32 30 -32 70q0 44 34.5 73t78.5 29q33 0 58 -15t39 -38.5t14 -48.5q0 -43 -33 -71.5t-78 -28.5
q-49 0 -81 30z" />
    <glyph glyph-name="uni022B" unicode="&#x22b;" horiz-adv-x="627" 
d="M163.5 25q-65.5 33 -102 91.5t-36.5 134.5t37 134.5t102.5 90.5t149.5 32q85 0 150.5 -32.5t101.5 -90.5t36 -134q0 -77 -36.5 -135.5t-102 -91t-150.5 -32.5q-84 0 -149.5 33zM382.5 172.5q26.5 30.5 26.5 78.5t-26.5 78.5t-67.5 30.5t-67.5 -30.5t-26.5 -78.5
t26.5 -78.5t67.5 -30.5t67.5 30.5zM93.5 605q-32.5 29 -32.5 71q0 43 34 72.5t78 29.5q46 0 79.5 -30.5t33.5 -71.5q0 -43 -34 -71.5t-79 -28.5q-47 0 -79.5 29zM375 606q-32 30 -32 70q0 44 34.5 73t78.5 29q33 0 58 -15t39 -38.5t14 -48.5q0 -43 -33 -71.5t-78 -28.5
q-49 0 -81 30zM140 958h348v-128h-348v128z" />
    <glyph glyph-name="uni0231" unicode="&#x231;" horiz-adv-x="627" 
d="M163.5 25q-65.5 33 -102 91.5t-36.5 134.5t37 134.5t102.5 90.5t149.5 32q85 0 150.5 -32.5t101.5 -90.5t36 -134q0 -77 -36.5 -135.5t-102 -91t-150.5 -32.5q-84 0 -149.5 33zM382.5 172.5q26.5 30.5 26.5 78.5t-26.5 78.5t-67.5 30.5t-67.5 -30.5t-26.5 -78.5
t26.5 -78.5t67.5 -30.5t67.5 30.5zM234.5 605.5q-32.5 29.5 -32.5 72.5t34 72t78 29q46 0 79.5 -30t33.5 -71q0 -44 -34 -73t-79 -29q-47 0 -79.5 29.5zM140 958h348v-128h-348v128z" />
    <glyph glyph-name="uni1ECD" unicode="&#x1ecd;" horiz-adv-x="627" 
d="M163.5 25q-65.5 33 -102 91.5t-36.5 134.5t37 134.5t102.5 90.5t149.5 32q85 0 150.5 -32.5t101.5 -90.5t36 -134q0 -77 -36.5 -135.5t-102 -91t-150.5 -32.5q-84 0 -149.5 33zM382.5 172.5q26.5 30.5 26.5 78.5t-26.5 78.5t-67.5 30.5t-67.5 -30.5t-26.5 -78.5
t26.5 -78.5t67.5 -30.5t67.5 30.5zM234.5 -248.5q-32.5 29.5 -32.5 72.5t34 72t78 29q46 0 79.5 -30t33.5 -71q0 -44 -34 -73t-79 -29q-47 0 -79.5 29.5z" />
    <glyph glyph-name="ograve" unicode="&#xf2;" horiz-adv-x="627" 
d="M163.5 25q-65.5 33 -102 91.5t-36.5 134.5t37 134.5t102.5 90.5t149.5 32q85 0 150.5 -32.5t101.5 -90.5t36 -134q0 -77 -36.5 -135.5t-102 -91t-150.5 -32.5q-84 0 -149.5 33zM382.5 172.5q26.5 30.5 26.5 78.5t-26.5 78.5t-67.5 30.5t-67.5 -30.5t-26.5 -78.5
t26.5 -78.5t67.5 -30.5t67.5 30.5zM92 709l101 179l293 -205l-61 -107z" />
    <glyph glyph-name="uni1ECF" unicode="&#x1ecf;" horiz-adv-x="627" 
d="M163.5 25q-65.5 33 -102 91.5t-36.5 134.5t37 134.5t102.5 90.5t149.5 32q85 0 150.5 -32.5t101.5 -90.5t36 -134q0 -77 -36.5 -135.5t-102 -91t-150.5 -32.5q-84 0 -149.5 33zM382.5 172.5q26.5 30.5 26.5 78.5t-26.5 78.5t-67.5 30.5t-67.5 -30.5t-26.5 -78.5
t26.5 -78.5t67.5 -30.5t67.5 30.5zM250 621q0 23 10 37t29 29q15 13 22 22.5t7 22.5q0 11 -10 18t-31 7q-27 0 -70 -15l-8 83q57 20 123 20q69 0 101 -24t32 -66q0 -31 -11.5 -49.5t-32.5 -38.5q-19 -18 -27.5 -31t-8.5 -33v-17h-122q-3 17 -3 35z" />
    <glyph glyph-name="ohorn" unicode="&#x1a1;" horiz-adv-x="627" 
d="M163 24.5q-65 32.5 -101.5 91.5t-36.5 135q0 81 39.5 139t105 88t144.5 30q33 0 71 -6q30 -4 45 -4q31 0 45.5 6t21.5 26t7 64h117q0 -82 -19 -123t-64 -53q64 -74 64 -167q0 -87 -42 -145.5t-108 -86t-139 -27.5q-85 0 -150 32.5zM381 170.5q28 28.5 28 80.5t-28 80.5
t-66 28.5t-66 -28.5t-28 -80.5t28 -80.5t66 -28.5t66 28.5z" />
    <glyph glyph-name="uni1EDB" unicode="&#x1edb;" horiz-adv-x="627" 
d="M163 24.5q-65 32.5 -101.5 91.5t-36.5 135q0 81 39.5 139t105 88t144.5 30q33 0 71 -6q30 -4 45 -4q31 0 45.5 6t21.5 26t7 64h117q0 -82 -19 -123t-64 -53q64 -74 64 -167q0 -87 -42 -145.5t-108 -86t-139 -27.5q-85 0 -150 32.5zM381 170.5q28 28.5 28 80.5t-28 80.5
t-66 28.5t-66 -28.5t-28 -80.5t28 -80.5t66 -28.5t66 28.5zM142 683l293 205l101 -179l-333 -133z" />
    <glyph glyph-name="uni1EE3" unicode="&#x1ee3;" horiz-adv-x="627" 
d="M163 24.5q-65 32.5 -101.5 91.5t-36.5 135q0 81 39.5 139t105 88t144.5 30q33 0 71 -6q30 -4 45 -4q31 0 45.5 6t21.5 26t7 64h117q0 -82 -19 -123t-64 -53q64 -74 64 -167q0 -87 -42 -145.5t-108 -86t-139 -27.5q-85 0 -150 32.5zM381 170.5q28 28.5 28 80.5t-28 80.5
t-66 28.5t-66 -28.5t-28 -80.5t28 -80.5t66 -28.5t66 28.5zM234.5 -248.5q-32.5 29.5 -32.5 72.5t34 72t78 29q46 0 79.5 -30t33.5 -71q0 -44 -34 -73t-79 -29q-47 0 -79.5 29.5z" />
    <glyph glyph-name="uni1EDD" unicode="&#x1edd;" horiz-adv-x="627" 
d="M163 24.5q-65 32.5 -101.5 91.5t-36.5 135q0 81 39.5 139t105 88t144.5 30q33 0 71 -6q30 -4 45 -4q31 0 45.5 6t21.5 26t7 64h117q0 -82 -19 -123t-64 -53q64 -74 64 -167q0 -87 -42 -145.5t-108 -86t-139 -27.5q-85 0 -150 32.5zM381 170.5q28 28.5 28 80.5t-28 80.5
t-66 28.5t-66 -28.5t-28 -80.5t28 -80.5t66 -28.5t66 28.5zM92 709l101 179l293 -205l-61 -107z" />
    <glyph glyph-name="uni1EDF" unicode="&#x1edf;" horiz-adv-x="627" 
d="M163 24.5q-65 32.5 -101.5 91.5t-36.5 135q0 81 39.5 139t105 88t144.5 30q33 0 71 -6q30 -4 45 -4q31 0 45.5 6t21.5 26t7 64h117q0 -82 -19 -123t-64 -53q64 -74 64 -167q0 -87 -42 -145.5t-108 -86t-139 -27.5q-85 0 -150 32.5zM381 170.5q28 28.5 28 80.5t-28 80.5
t-66 28.5t-66 -28.5t-28 -80.5t28 -80.5t66 -28.5t66 28.5zM250 621q0 23 10 37t29 29q15 13 22 22.5t7 22.5q0 11 -10 18t-31 7q-27 0 -70 -15l-8 83q57 20 123 20q69 0 101 -24t32 -66q0 -31 -11.5 -49.5t-32.5 -38.5q-19 -18 -27.5 -31t-8.5 -33v-17h-122q-3 17 -3 35z
" />
    <glyph glyph-name="uni1EE1" unicode="&#x1ee1;" horiz-adv-x="627" 
d="M163 24.5q-65 32.5 -101.5 91.5t-36.5 135q0 81 39.5 139t105 88t144.5 30q33 0 71 -6q30 -4 45 -4q31 0 45.5 6t21.5 26t7 64h117q0 -82 -19 -123t-64 -53q64 -74 64 -167q0 -87 -42 -145.5t-108 -86t-139 -27.5q-85 0 -150 32.5zM381 170.5q28 28.5 28 80.5t-28 80.5
t-66 28.5t-66 -28.5t-28 -80.5t28 -80.5t66 -28.5t66 28.5zM71 626q28 78 72.5 117.5t99.5 39.5q21 0 39 -6.5t41 -19.5q21 -11 35.5 -16.5t30.5 -5.5q15 0 28.5 12t30.5 37l108 -47q-28 -78 -72.5 -118t-99.5 -40q-21 0 -39 6.5t-41 19.5q-21 11 -35.5 16.5t-30.5 5.5
q-15 0 -28.5 -12t-30.5 -37z" />
    <glyph glyph-name="ohungarumlaut" unicode="&#x151;" horiz-adv-x="627" 
d="M163.5 25q-65.5 33 -102 91.5t-36.5 134.5t37 134.5t102.5 90.5t149.5 32q85 0 150.5 -32.5t101.5 -90.5t36 -134q0 -77 -36.5 -135.5t-102 -91t-150.5 -32.5q-84 0 -149.5 33zM382.5 172.5q26.5 30.5 26.5 78.5t-26.5 78.5t-67.5 30.5t-67.5 -30.5t-26.5 -78.5
t26.5 -78.5t67.5 -30.5t67.5 30.5zM337 614l104 276l157 -64l-154 -250zM144 600l61 288l166 -40l-114 -271z" />
    <glyph glyph-name="uni020F" unicode="&#x20f;" horiz-adv-x="627" 
d="M163.5 25q-65.5 33 -102 91.5t-36.5 134.5t37 134.5t102.5 90.5t149.5 32q85 0 150.5 -32.5t101.5 -90.5t36 -134q0 -77 -36.5 -135.5t-102 -91t-150.5 -32.5q-84 0 -149.5 33zM382.5 172.5q26.5 30.5 26.5 78.5t-26.5 78.5t-67.5 30.5t-67.5 -30.5t-26.5 -78.5
t26.5 -78.5t67.5 -30.5t67.5 30.5zM173 780.5q52 63.5 140 63.5t140.5 -64.5t56.5 -193.5h-141q0 133 -56 133q-26 0 -39.5 -30.5t-13.5 -102.5h-143q4 131 56 194.5z" />
    <glyph glyph-name="omacron" unicode="&#x14d;" horiz-adv-x="627" 
d="M163.5 25q-65.5 33 -102 91.5t-36.5 134.5t37 134.5t102.5 90.5t149.5 32q85 0 150.5 -32.5t101.5 -90.5t36 -134q0 -77 -36.5 -135.5t-102 -91t-150.5 -32.5q-84 0 -149.5 33zM382.5 172.5q26.5 30.5 26.5 78.5t-26.5 78.5t-67.5 30.5t-67.5 -30.5t-26.5 -78.5
t26.5 -78.5t67.5 -30.5t67.5 30.5zM140 714h348v-128h-348v128z" />
    <glyph glyph-name="uni01EB" unicode="&#x1eb;" horiz-adv-x="627" 
d="M226 -223.5q-34 24.5 -34 65.5q0 40 30.5 78.5t90.5 71.5q-85 0 -150 32.5t-101.5 91.5t-36.5 135q3 81 42.5 139t104 88t142.5 30q84 0 149.5 -32.5t102 -91t36.5 -133.5q0 -70 -32.5 -127.5t-89.5 -90.5q-160 -92 -160 -173q0 -41 48 -41q20 0 47 9l1 -58
q-43 -18 -93 -18q-63 0 -97 24.5zM381 170.5q28 28.5 28 80.5t-28 80.5t-66 28.5t-66 -28.5t-28 -80.5t28 -80.5t66 -28.5t66 28.5z" />
    <glyph glyph-name="oslash" unicode="&#xf8;" horiz-adv-x="627" 
d="M201 9q-82 27 -129 91t-47 151q0 76 37 134.5t102.5 90.5t149.5 32q24 0 47 -3l26 82h70l-31 -96q82 -26 129 -89.5t47 -150.5q0 -77 -36.5 -135.5t-102 -91t-150.5 -32.5q-24 0 -47 3l-26 -82h-70zM315 362h-1q-45 0 -72 -30.5t-27 -80.5q0 -57 35 -89zM314 140
q45 0 72 30.5t27 80.5q0 58 -36 89l-64 -200h1z" />
    <glyph glyph-name="oslashacute" unicode="&#x1ff;" horiz-adv-x="627" 
d="M201 9q-82 27 -129 91t-47 151q0 76 37 134.5t102.5 90.5t149.5 32q24 0 47 -3l26 82h70l-31 -96q82 -26 129 -89.5t47 -150.5q0 -77 -36.5 -135.5t-102 -91t-150.5 -32.5q-24 0 -47 3l-26 -82h-70zM315 362h-1q-45 0 -72 -30.5t-27 -80.5q0 -57 35 -89zM314 140
q45 0 72 30.5t27 80.5q0 58 -36 89l-64 -200h1zM142 683l293 205l101 -179l-333 -133z" />
    <glyph glyph-name="otilde" unicode="&#xf5;" horiz-adv-x="627" 
d="M163.5 25q-65.5 33 -102 91.5t-36.5 134.5t37 134.5t102.5 90.5t149.5 32q85 0 150.5 -32.5t101.5 -90.5t36 -134q0 -77 -36.5 -135.5t-102 -91t-150.5 -32.5q-84 0 -149.5 33zM382.5 172.5q26.5 30.5 26.5 78.5t-26.5 78.5t-67.5 30.5t-67.5 -30.5t-26.5 -78.5
t26.5 -78.5t67.5 -30.5t67.5 30.5zM71 626q28 78 72.5 117.5t99.5 39.5q21 0 39 -6.5t41 -19.5q21 -11 35.5 -16.5t30.5 -5.5q15 0 28.5 12t30.5 37l108 -47q-28 -78 -72.5 -118t-99.5 -40q-21 0 -39 6.5t-41 19.5q-21 11 -35.5 16.5t-30.5 5.5q-15 0 -28.5 -12t-30.5 -37z
" />
    <glyph glyph-name="uni022D" unicode="&#x22d;" horiz-adv-x="627" 
d="M163.5 25q-65.5 33 -102 91.5t-36.5 134.5t37 134.5t102.5 90.5t149.5 32q85 0 150.5 -32.5t101.5 -90.5t36 -134q0 -77 -36.5 -135.5t-102 -91t-150.5 -32.5q-84 0 -149.5 33zM382.5 172.5q26.5 30.5 26.5 78.5t-26.5 78.5t-67.5 30.5t-67.5 -30.5t-26.5 -78.5
t26.5 -78.5t67.5 -30.5t67.5 30.5zM71 626q28 78 72.5 117.5t99.5 39.5q21 0 39 -6.5t41 -19.5q21 -11 35.5 -16.5t30.5 -5.5q15 0 28.5 12t30.5 37l108 -47q-28 -78 -72.5 -118t-99.5 -40q-21 0 -39 6.5t-41 19.5q-21 11 -35.5 16.5t-30.5 5.5q-15 0 -28.5 -12t-30.5 -37z
M140 958h348v-128h-348v128z" />
    <glyph glyph-name="oe" unicode="&#x153;" horiz-adv-x="926" 
d="M163.5 25q-65.5 33 -102 91.5t-36.5 134.5t37 134.5t102.5 90.5t149.5 32q116 0 185 -66q33 32 77.5 49t95.5 17q74 0 126.5 -32.5t78.5 -88t26 -124.5q0 -18 -2 -26l-300 -39q12 -35 39 -50.5t71 -15.5q68 0 147 35l25 -134q-93 -41 -204 -41t-180 67q-70 -67 -186 -67
q-84 0 -149.5 33zM748 324q-16 63 -76 63q-36 0 -57 -27t-22 -70zM382.5 172.5q26.5 30.5 26.5 78.5t-26.5 78.5t-67.5 30.5t-67.5 -30.5t-26.5 -78.5t26.5 -78.5t67.5 -30.5t67.5 30.5z" />
    <glyph glyph-name="p" unicode="p" horiz-adv-x="695" 
d="M50 494h211v-87q48 101 163 101q67 0 123.5 -33.5t89 -92.5t32.5 -132t-33.5 -132t-90 -92.5t-120.5 -33.5q-114 0 -164 101v-223l-211 -40v664zM431 180q29 30 29 70q0 42 -29.5 71t-69.5 29q-41 0 -70 -28.5t-29 -67.5v-4q0 -42 29.5 -71t69.5 -29q41 0 70 30z" />
    <glyph glyph-name="thorn" unicode="&#xfe;" horiz-adv-x="697" 
d="M52 659l211 31v-283q51 109 163 109q67 0 123 -35.5t89 -97t33 -133.5q0 -71 -33.5 -132.5t-90 -97.5t-120.5 -36q-57 0 -98.5 28.5t-65.5 80.5v-342h-211v908zM432.5 180q29.5 30 29.5 70q0 45 -31 72.5t-69 27.5q-41 0 -69 -28t-30 -68v-4q0 -42 29.5 -71t69.5 -29
q41 0 70.5 30z" />
    <glyph glyph-name="q" unicode="q" horiz-adv-x="696" 
d="M435 93q-26 -53 -67 -77t-98 -24q-72 0 -127.5 35.5t-86 95t-30.5 127.5q0 72 33 131.5t89.5 93t122.5 33.5q57 0 97.5 -24t66.5 -77v87h211v-624l-211 -40v263zM404.5 178.5q28.5 28.5 30.5 67.5v8q-1 39 -31 67.5t-68 28.5q-41 0 -70.5 -30t-29.5 -70q0 -42 30 -71
t70 -29t68.5 28.5z" />
    <glyph glyph-name="r" unicode="r" horiz-adv-x="446" 
d="M50 494h211v-102q23 59 62.5 87.5t92.5 28.5l29 -163q-95 0 -139.5 -20.5t-44.5 -64.5v-260h-211v494z" />
    <glyph glyph-name="racute" unicode="&#x155;" horiz-adv-x="446" 
d="M50 494h211v-102q23 59 62.5 87.5t92.5 28.5l29 -163q-95 0 -139.5 -20.5t-44.5 -64.5v-260h-211v494zM61 683l293 205l101 -179l-333 -133z" />
    <glyph glyph-name="rcaron" unicode="&#x159;" horiz-adv-x="446" 
d="M50 494h211v-102q23 59 62.5 87.5t92.5 28.5l29 -163q-95 0 -139.5 -20.5t-44.5 -64.5v-260h-211v494zM17 835h166l39 -107l10 -39q13 41 27 78q8 22 13.5 39t9.5 29h166l-123 -249h-185z" />
    <glyph glyph-name="rcommaaccent" unicode="&#x157;" horiz-adv-x="446" 
d="M50 494h211v-102q23 59 62.5 87.5t92.5 28.5l29 -163q-95 0 -139.5 -20.5t-44.5 -64.5v-260h-211v494zM63 -290q42 0 59.5 10.5t20.5 34.5h-80v160h185v-87q0 -107 -42 -153t-143 -46v81z" />
    <glyph glyph-name="uni0211" unicode="&#x211;" horiz-adv-x="446" 
d="M50 494h211v-102q23 59 62.5 87.5t92.5 28.5l29 -163q-95 0 -139.5 -20.5t-44.5 -64.5v-260h-211v494zM-51 826l157 64l104 -276l-107 -38zM176 848l166 40l61 -288l-113 -23z" />
    <glyph glyph-name="uni0213" unicode="&#x213;" horiz-adv-x="446" 
d="M50 494h211v-102q23 59 62.5 87.5t92.5 28.5l29 -163q-95 0 -139.5 -20.5t-44.5 -64.5v-260h-211v494zM92 780.5q52 63.5 140 63.5t140.5 -64.5t56.5 -193.5h-141q0 133 -56 133q-26 0 -39.5 -30.5t-13.5 -102.5h-143q4 131 56 194.5z" />
    <glyph glyph-name="s" unicode="s" horiz-adv-x="462" 
d="M39 23l23 119q72 -26 140 -26q50 0 50 28q0 14 -14.5 23t-54.5 16q-83 16 -119.5 54t-36.5 108q4 79 63 121t161 42q52 0 89.5 -6.5t68.5 -21.5l-21 -119q-29 11 -63.5 17t-57.5 6q-34 0 -47 -7t-13 -19q0 -22 50 -31q91 -16 136 -56t45 -109q0 -79 -55.5 -124.5
t-159.5 -45.5q-105 0 -184 31z" />
    <glyph glyph-name="sacute" unicode="&#x15b;" horiz-adv-x="462" 
d="M39 23l23 119q72 -26 140 -26q50 0 50 28q0 14 -14.5 23t-54.5 16q-83 16 -119.5 54t-36.5 108q4 79 63 121t161 42q52 0 89.5 -6.5t68.5 -21.5l-21 -119q-29 11 -63.5 17t-57.5 6q-34 0 -47 -7t-13 -19q0 -22 50 -31q91 -16 136 -56t45 -109q0 -79 -55.5 -124.5
t-159.5 -45.5q-105 0 -184 31zM59 683l293 205l101 -179l-333 -133z" />
    <glyph glyph-name="scaron" unicode="&#x161;" horiz-adv-x="462" 
d="M39 23l23 119q72 -26 140 -26q50 0 50 28q0 14 -14.5 23t-54.5 16q-83 16 -119.5 54t-36.5 108q4 79 63 121t161 42q52 0 89.5 -6.5t68.5 -21.5l-21 -119q-29 11 -63.5 17t-57.5 6q-34 0 -47 -7t-13 -19q0 -22 50 -31q91 -16 136 -56t45 -109q0 -79 -55.5 -124.5
t-159.5 -45.5q-105 0 -184 31zM15 835h166l39 -107l10 -39q13 41 27 78q8 22 13.5 39t9.5 29h166l-123 -249h-185z" />
    <glyph glyph-name="scedilla" unicode="&#x15f;" horiz-adv-x="462" 
d="M394 48q-44 -44 -127 -54l-13 -39q47 -12 68.5 -35.5t21.5 -59.5q0 -49 -37 -78.5t-100 -29.5q-52 0 -91 18l1 57q24 -8 47 -8q27 0 42 12t15 35q0 19 -16 31t-42 16l27 80q-80 3 -151 30l23 119q72 -26 140 -26q50 0 50 28q0 14 -14.5 23t-54.5 16q-83 16 -119.5 54
t-36.5 108q4 79 63 121t161 42q52 0 89.5 -6.5t68.5 -21.5l-21 -119q-29 11 -63.5 17t-57.5 6q-34 0 -47 -7t-13 -19q0 -22 50 -31q91 -16 136 -56t45 -109q0 -70 -44 -114z" />
    <glyph glyph-name="scircumflex" unicode="&#x15d;" horiz-adv-x="462" 
d="M39 23l23 119q72 -26 140 -26q50 0 50 28q0 14 -14.5 23t-54.5 16q-83 16 -119.5 54t-36.5 108q4 79 63 121t161 42q52 0 89.5 -6.5t68.5 -21.5l-21 -119q-29 11 -63.5 17t-57.5 6q-34 0 -47 -7t-13 -19q0 -22 50 -31q91 -16 136 -56t45 -109q0 -79 -55.5 -124.5
t-159.5 -45.5q-105 0 -184 31zM138 835h185l123 -249h-166l-38 106l-12 38l-10 -38l-39 -106h-166z" />
    <glyph glyph-name="scommaaccent" unicode="&#x219;" horiz-adv-x="462" 
d="M39 23l23 119q72 -26 140 -26q50 0 50 28q0 14 -14.5 23t-54.5 16q-83 16 -119.5 54t-36.5 108q4 79 63 121t161 42q52 0 89.5 -6.5t68.5 -21.5l-21 -119q-29 11 -63.5 17t-57.5 6q-34 0 -47 -7t-13 -19q0 -22 50 -31q91 -16 136 -56t45 -109q0 -79 -55.5 -124.5
t-159.5 -45.5q-105 0 -184 31zM138 -290q42 0 59.5 10.5t20.5 34.5h-80v160h185v-87q0 -107 -42 -153t-143 -46v81z" />
    <glyph glyph-name="germandbls" unicode="&#xdf;" horiz-adv-x="707" 
d="M324 -44v161q34 -2 49 -2q47 0 74 32t27 82q0 42 -33.5 74.5t-96.5 47.5v92q36 6 59.5 25t23.5 45q0 27 -23.5 42t-54.5 15q-82 0 -82 -77v-493l-215 -16v515q0 98 80 151t209 53q68 0 125.5 -20.5t92 -58.5t34.5 -90q0 -44 -20.5 -77.5t-56.5 -54.5q74 -24 123 -80.5
t49 -126.5q0 -81 -41 -135t-108.5 -79.5t-147.5 -25.5z" />
    <glyph glyph-name="longs" unicode="&#x17f;" horiz-adv-x="395" 
d="M48 543q0 111 53.5 168t149.5 57q77 0 143 -39l-7 -135q-58 23 -97 23q-30 0 -46 -14.5t-16 -41.5q0 -15 6.5 -31.5t24.5 -41.5v-488h-211v543z" />
    <glyph glyph-name="t" unicode="t" horiz-adv-x="435" 
d="M132 42.5q-49 50.5 -49 139.5v195h-64v124h79l93 189h101v-189h116v-124h-116v-170q0 -25 16 -39t45 -14q27 0 49 12l8 -140q-25 -15 -64.5 -24.5t-76.5 -9.5q-88 0 -137 50.5z" />
    <glyph glyph-name="tbar" unicode="&#x167;" horiz-adv-x="445" 
d="M137 42.5q-49 50.5 -49 139.5v71h-54v85h54v39h-64v124h79l93 189h101v-189h116v-124h-116v-39h106v-85h-106v-46q0 -25 16 -39t45 -14q27 0 49 12l8 -140q-25 -15 -64.5 -24.5t-76.5 -9.5q-88 0 -137 50.5z" />
    <glyph glyph-name="tcaron" unicode="&#x165;" horiz-adv-x="435" 
d="M132 42.5q-49 50.5 -49 139.5v195h-64v124h79l93 189h101v-189h116v-124h-116v-170q0 -25 16 -39t45 -14q27 0 49 12l8 -140q-25 -15 -64.5 -24.5t-76.5 -9.5q-88 0 -137 50.5zM332 623q42 0 59.5 10.5t20.5 34.5h-80v160h185v-87q0 -107 -42 -153t-143 -46v81z" />
    <glyph glyph-name="uni0163" unicode="&#x163;" horiz-adv-x="435" 
d="M132 42.5q-49 50.5 -49 139.5v195h-64v124h79l93 189h101v-189h116v-124h-116v-170q0 -25 16 -39t45 -14q27 0 49 12l8 -140q-25 -15 -64.5 -24.5t-76.5 -9.5q-88 0 -137 50.5zM153 -290q42 0 59.5 10.5t20.5 34.5h-80v160h185v-87q0 -107 -42 -153t-143 -46v81z" />
    <glyph glyph-name="uni021B" unicode="&#x21b;" horiz-adv-x="435" 
d="M132 42.5q-49 50.5 -49 139.5v195h-64v124h79l93 189h101v-189h116v-124h-116v-170q0 -25 16 -39t45 -14q27 0 49 12l8 -140q-25 -15 -64.5 -24.5t-76.5 -9.5q-88 0 -137 50.5zM153 -290q42 0 59.5 10.5t20.5 34.5h-80v160h185v-87q0 -107 -42 -153t-143 -46v81z" />
    <glyph glyph-name="u" unicode="u" horiz-adv-x="628" 
d="M175.5 20q-61.5 28 -95.5 79t-34 116v286h206v-283q0 -33 18.5 -51.5t46.5 -18.5q27 0 44.5 18.5t17.5 51.5v283h202v-286q0 -66 -33.5 -116.5t-93.5 -78.5t-138 -28q-79 0 -140.5 28z" />
    <glyph glyph-name="uacute" unicode="&#xfa;" horiz-adv-x="628" 
d="M175.5 20q-61.5 28 -95.5 79t-34 116v286h206v-283q0 -33 18.5 -51.5t46.5 -18.5q27 0 44.5 18.5t17.5 51.5v283h202v-286q0 -66 -33.5 -116.5t-93.5 -78.5t-138 -28q-79 0 -140.5 28zM142 683l293 205l101 -179l-333 -133z" />
    <glyph glyph-name="ubreve" unicode="&#x16d;" horiz-adv-x="628" 
d="M175.5 20q-61.5 28 -95.5 79t-34 116v286h206v-283q0 -33 18.5 -51.5t46.5 -18.5q27 0 44.5 18.5t17.5 51.5v283h202v-286q0 -66 -33.5 -116.5t-93.5 -78.5t-138 -28q-79 0 -140.5 28zM173.5 640.5q-52.5 64.5 -56.5 193.5h141q0 -133 56 -133q26 0 39.5 30.5t13.5 102.5
h143q-4 -131 -56 -194.5t-140 -63.5t-140.5 64.5z" />
    <glyph glyph-name="ucircumflex" unicode="&#xfb;" horiz-adv-x="628" 
d="M175.5 20q-61.5 28 -95.5 79t-34 116v286h206v-283q0 -33 18.5 -51.5t46.5 -18.5q27 0 44.5 18.5t17.5 51.5v283h202v-286q0 -66 -33.5 -116.5t-93.5 -78.5t-138 -28q-79 0 -140.5 28zM221 835h185l123 -249h-166l-38 106l-12 38l-10 -38l-39 -106h-166z" />
    <glyph glyph-name="uni0215" unicode="&#x215;" horiz-adv-x="628" 
d="M175.5 20q-61.5 28 -95.5 79t-34 116v286h206v-283q0 -33 18.5 -51.5t46.5 -18.5q27 0 44.5 18.5t17.5 51.5v283h202v-286q0 -66 -33.5 -116.5t-93.5 -78.5t-138 -28q-79 0 -140.5 28zM30 826l157 64l104 -276l-107 -38zM257 848l166 40l61 -288l-113 -23z" />
    <glyph glyph-name="udieresis" unicode="&#xfc;" horiz-adv-x="628" 
d="M175.5 20q-61.5 28 -95.5 79t-34 116v286h206v-283q0 -33 18.5 -51.5t46.5 -18.5q27 0 44.5 18.5t17.5 51.5v283h202v-286q0 -66 -33.5 -116.5t-93.5 -78.5t-138 -28q-79 0 -140.5 28zM93.5 605q-32.5 29 -32.5 71q0 43 34 72.5t78 29.5q46 0 79.5 -30.5t33.5 -71.5
q0 -43 -34 -71.5t-79 -28.5q-47 0 -79.5 29zM375 606q-32 30 -32 70q0 44 34.5 73t78.5 29q33 0 58 -15t39 -38.5t14 -48.5q0 -43 -33 -71.5t-78 -28.5q-49 0 -81 30z" />
    <glyph glyph-name="uni1EE5" unicode="&#x1ee5;" horiz-adv-x="628" 
d="M175.5 20q-61.5 28 -95.5 79t-34 116v286h206v-283q0 -33 18.5 -51.5t46.5 -18.5q27 0 44.5 18.5t17.5 51.5v283h202v-286q0 -66 -33.5 -116.5t-93.5 -78.5t-138 -28q-79 0 -140.5 28zM234.5 -248.5q-32.5 29.5 -32.5 72.5t34 72t78 29q46 0 79.5 -30t33.5 -71
q0 -44 -34 -73t-79 -29q-47 0 -79.5 29.5z" />
    <glyph glyph-name="ugrave" unicode="&#xf9;" horiz-adv-x="628" 
d="M175.5 20q-61.5 28 -95.5 79t-34 116v286h206v-283q0 -33 18.5 -51.5t46.5 -18.5q27 0 44.5 18.5t17.5 51.5v283h202v-286q0 -66 -33.5 -116.5t-93.5 -78.5t-138 -28q-79 0 -140.5 28zM92 709l101 179l293 -205l-61 -107z" />
    <glyph glyph-name="uni1EE7" unicode="&#x1ee7;" horiz-adv-x="628" 
d="M175.5 20q-61.5 28 -95.5 79t-34 116v286h206v-283q0 -33 18.5 -51.5t46.5 -18.5q27 0 44.5 18.5t17.5 51.5v283h202v-286q0 -66 -33.5 -116.5t-93.5 -78.5t-138 -28q-79 0 -140.5 28zM250 621q0 23 10 37t29 29q15 13 22 22.5t7 22.5q0 11 -10 18t-31 7q-27 0 -70 -15
l-8 83q57 20 123 20q69 0 101 -24t32 -66q0 -31 -11.5 -49.5t-32.5 -38.5q-19 -18 -27.5 -31t-8.5 -33v-17h-122q-3 17 -3 35z" />
    <glyph glyph-name="uhorn" unicode="&#x1b0;" horiz-adv-x="658" 
d="M179.5 18.5q-61.5 26.5 -97.5 77.5t-36 119v286h206v-293q0 -26 19 -43t46 -17q26 0 44 17.5t18 42.5v293h96q37 0 53 5t23.5 24.5t7.5 63.5h117q0 -90 -22.5 -134.5t-72.5 -59.5v-185q0 -68 -34 -118.5t-94.5 -77.5t-136.5 -27q-75 0 -136.5 26.5z" />
    <glyph glyph-name="uni1EE9" unicode="&#x1ee9;" horiz-adv-x="658" 
d="M179.5 18.5q-61.5 26.5 -97.5 77.5t-36 119v286h206v-293q0 -26 19 -43t46 -17q26 0 44 17.5t18 42.5v293h96q37 0 53 5t23.5 24.5t7.5 63.5h117q0 -90 -22.5 -134.5t-72.5 -59.5v-185q0 -68 -34 -118.5t-94.5 -77.5t-136.5 -27q-75 0 -136.5 26.5zM142 683l293 205
l101 -179l-333 -133z" />
    <glyph glyph-name="uni1EF1" unicode="&#x1ef1;" horiz-adv-x="658" 
d="M179.5 18.5q-61.5 26.5 -97.5 77.5t-36 119v286h206v-293q0 -26 19 -43t46 -17q26 0 44 17.5t18 42.5v293h96q37 0 53 5t23.5 24.5t7.5 63.5h117q0 -90 -22.5 -134.5t-72.5 -59.5v-185q0 -68 -34 -118.5t-94.5 -77.5t-136.5 -27q-75 0 -136.5 26.5zM234.5 -248.5
q-32.5 29.5 -32.5 72.5t34 72t78 29q46 0 79.5 -30t33.5 -71q0 -44 -34 -73t-79 -29q-47 0 -79.5 29.5z" />
    <glyph glyph-name="uni1EEB" unicode="&#x1eeb;" horiz-adv-x="658" 
d="M179.5 18.5q-61.5 26.5 -97.5 77.5t-36 119v286h206v-293q0 -26 19 -43t46 -17q26 0 44 17.5t18 42.5v293h96q37 0 53 5t23.5 24.5t7.5 63.5h117q0 -90 -22.5 -134.5t-72.5 -59.5v-185q0 -68 -34 -118.5t-94.5 -77.5t-136.5 -27q-75 0 -136.5 26.5zM92 709l101 179
l293 -205l-61 -107z" />
    <glyph glyph-name="uni1EED" unicode="&#x1eed;" horiz-adv-x="658" 
d="M179.5 18.5q-61.5 26.5 -97.5 77.5t-36 119v286h206v-293q0 -26 19 -43t46 -17q26 0 44 17.5t18 42.5v293h96q37 0 53 5t23.5 24.5t7.5 63.5h117q0 -90 -22.5 -134.5t-72.5 -59.5v-185q0 -68 -34 -118.5t-94.5 -77.5t-136.5 -27q-75 0 -136.5 26.5zM250 621q0 23 10 37
t29 29q15 13 22 22.5t7 22.5q0 11 -10 18t-31 7q-27 0 -70 -15l-8 83q57 20 123 20q69 0 101 -24t32 -66q0 -31 -11.5 -49.5t-32.5 -38.5q-19 -18 -27.5 -31t-8.5 -33v-17h-122q-3 17 -3 35z" />
    <glyph glyph-name="uni1EEF" unicode="&#x1eef;" horiz-adv-x="658" 
d="M179.5 18.5q-61.5 26.5 -97.5 77.5t-36 119v286h206v-293q0 -26 19 -43t46 -17q26 0 44 17.5t18 42.5v293h96q37 0 53 5t23.5 24.5t7.5 63.5h117q0 -90 -22.5 -134.5t-72.5 -59.5v-185q0 -68 -34 -118.5t-94.5 -77.5t-136.5 -27q-75 0 -136.5 26.5zM71 626
q28 78 72.5 117.5t99.5 39.5q21 0 39 -6.5t41 -19.5q21 -11 35.5 -16.5t30.5 -5.5q15 0 28.5 12t30.5 37l108 -47q-28 -78 -72.5 -118t-99.5 -40q-21 0 -39 6.5t-41 19.5q-21 11 -35.5 16.5t-30.5 5.5q-15 0 -28.5 -12t-30.5 -37z" />
    <glyph glyph-name="uhungarumlaut" unicode="&#x171;" horiz-adv-x="628" 
d="M175.5 20q-61.5 28 -95.5 79t-34 116v286h206v-283q0 -33 18.5 -51.5t46.5 -18.5q27 0 44.5 18.5t17.5 51.5v283h202v-286q0 -66 -33.5 -116.5t-93.5 -78.5t-138 -28q-79 0 -140.5 28zM337 614l104 276l157 -64l-154 -250zM144 600l61 288l166 -40l-114 -271z" />
    <glyph glyph-name="uni0217" unicode="&#x217;" horiz-adv-x="628" 
d="M175.5 20q-61.5 28 -95.5 79t-34 116v286h206v-283q0 -33 18.5 -51.5t46.5 -18.5q27 0 44.5 18.5t17.5 51.5v283h202v-286q0 -66 -33.5 -116.5t-93.5 -78.5t-138 -28q-79 0 -140.5 28zM173 780.5q52 63.5 140 63.5t140.5 -64.5t56.5 -193.5h-141q0 133 -56 133
q-26 0 -39.5 -30.5t-13.5 -102.5h-143q4 131 56 194.5z" />
    <glyph glyph-name="umacron" unicode="&#x16b;" horiz-adv-x="628" 
d="M175.5 20q-61.5 28 -95.5 79t-34 116v286h206v-283q0 -33 18.5 -51.5t46.5 -18.5q27 0 44.5 18.5t17.5 51.5v283h202v-286q0 -66 -33.5 -116.5t-93.5 -78.5t-138 -28q-79 0 -140.5 28zM140 714h348v-128h-348v128z" />
    <glyph glyph-name="uogonek" unicode="&#x173;" horiz-adv-x="628" 
d="M232 -223.5q-34 24.5 -34 65.5q0 40 31.5 78.5t92.5 71.5h-6q-75 0 -136.5 26.5t-97.5 77.5t-36 119v286h206v-293q0 -26 19 -43t46 -17q26 0 44 17.5t18 42.5v293h202v-286q0 -62 -26.5 -107.5t-84.5 -79.5q-80 -47 -112 -90t-32 -78q0 -41 48 -41q20 0 47 9l1 -58
q-43 -18 -93 -18q-63 0 -97 24.5z" />
    <glyph glyph-name="uring" unicode="&#x16f;" horiz-adv-x="628" 
d="M175.5 20q-61.5 28 -95.5 79t-34 116v286h206v-283q0 -33 18.5 -51.5t46.5 -18.5q27 0 44.5 18.5t17.5 51.5v283h202v-286q0 -66 -33.5 -116.5t-93.5 -78.5t-138 -28q-79 0 -140.5 28zM190 623.5q-48 47.5 -48 122.5q0 78 48.5 125.5t123.5 47.5q53 0 91.5 -23t59 -62.5
t20.5 -87.5q0 -77 -47.5 -123.5t-123.5 -46.5t-124 47.5zM357 702q15 16 15 44t-16.5 45.5t-43.5 17.5q-26 0 -42.5 -17.5t-16.5 -45.5q0 -27 17 -43.5t44 -16.5q28 0 43 16z" />
    <glyph glyph-name="utilde" unicode="&#x169;" horiz-adv-x="628" 
d="M175.5 20q-61.5 28 -95.5 79t-34 116v286h206v-283q0 -33 18.5 -51.5t46.5 -18.5q27 0 44.5 18.5t17.5 51.5v283h202v-286q0 -66 -33.5 -116.5t-93.5 -78.5t-138 -28q-79 0 -140.5 28zM71 626q28 78 72.5 117.5t99.5 39.5q21 0 39 -6.5t41 -19.5q21 -11 35.5 -16.5
t30.5 -5.5q15 0 28.5 12t30.5 37l108 -47q-28 -78 -72.5 -118t-99.5 -40q-21 0 -39 6.5t-41 19.5q-21 11 -35.5 16.5t-30.5 5.5q-15 0 -28.5 -12t-30.5 -37z" />
    <glyph glyph-name="v" unicode="v" horiz-adv-x="570" 
d="M1 501h232l77 -300l75 300h183l-159 -501h-243z" />
    <glyph glyph-name="w" unicode="w" horiz-adv-x="833" 
d="M20 501h204l57 -325l69 325h172l70 -333l57 333h164l-104 -501h-239l-56 265l-53 -265h-231z" />
    <glyph glyph-name="wacute" unicode="&#x1e83;" horiz-adv-x="833" 
d="M20 501h204l57 -325l69 325h172l70 -333l57 333h164l-104 -501h-239l-56 265l-53 -265h-231zM245 683l293 205l101 -179l-333 -133z" />
    <glyph glyph-name="wcircumflex" unicode="&#x175;" horiz-adv-x="833" 
d="M20 501h204l57 -325l69 325h172l70 -333l57 333h164l-104 -501h-239l-56 265l-53 -265h-231zM324 835h185l123 -249h-166l-38 106l-12 38l-10 -38l-39 -106h-166z" />
    <glyph glyph-name="wdieresis" unicode="&#x1e85;" horiz-adv-x="833" 
d="M20 501h204l57 -325l69 325h172l70 -333l57 333h164l-104 -501h-239l-56 265l-53 -265h-231zM196.5 605q-32.5 29 -32.5 71q0 43 34 72.5t78 29.5q46 0 79.5 -30.5t33.5 -71.5q0 -43 -34 -71.5t-79 -28.5q-47 0 -79.5 29zM478 606q-32 30 -32 70q0 44 34.5 73t78.5 29
q33 0 58 -15t39 -38.5t14 -48.5q0 -43 -33 -71.5t-78 -28.5q-49 0 -81 30z" />
    <glyph glyph-name="wgrave" unicode="&#x1e81;" horiz-adv-x="833" 
d="M20 501h204l57 -325l69 325h172l70 -333l57 333h164l-104 -501h-239l-56 265l-53 -265h-231zM195 709l101 179l293 -205l-61 -107z" />
    <glyph glyph-name="x" unicode="x" horiz-adv-x="555" 
d="M154 260l-142 241h211l56 -118l58 118h205l-140 -241l150 -260h-205l-68 128l-66 -128h-211z" />
    <glyph glyph-name="y" unicode="y" horiz-adv-x="668" 
d="M211 -218l16 148q39 -6 72 -6q59 0 90 35.5t32 133.5q-52 -100 -167 -100q-97 0 -151.5 68.5t-54.5 189.5v250h210v-281q0 -34 19 -56.5t52 -22.5q34 0 55.5 29t21.5 76v255h211v-374q0 -174 -78 -265t-223 -91q-55 0 -105 11z" />
    <glyph glyph-name="yacute" unicode="&#xfd;" horiz-adv-x="668" 
d="M211 -218l16 148q39 -6 72 -6q59 0 90 35.5t32 133.5q-52 -100 -167 -100q-97 0 -151.5 68.5t-54.5 189.5v250h210v-281q0 -34 19 -56.5t52 -22.5q34 0 55.5 29t21.5 76v255h211v-374q0 -174 -78 -265t-223 -91q-55 0 -105 11zM162 683l293 205l101 -179l-333 -133z" />
    <glyph glyph-name="ycircumflex" unicode="&#x177;" horiz-adv-x="668" 
d="M211 -218l16 148q39 -6 72 -6q59 0 90 35.5t32 133.5q-52 -100 -167 -100q-97 0 -151.5 68.5t-54.5 189.5v250h210v-281q0 -34 19 -56.5t52 -22.5q34 0 55.5 29t21.5 76v255h211v-374q0 -174 -78 -265t-223 -91q-55 0 -105 11zM241 835h185l123 -249h-166l-38 106l-12 38
l-10 -38l-39 -106h-166z" />
    <glyph glyph-name="ydieresis" unicode="&#xff;" horiz-adv-x="668" 
d="M211 -218l16 148q39 -6 72 -6q59 0 90 35.5t32 133.5q-52 -100 -167 -100q-97 0 -151.5 68.5t-54.5 189.5v250h210v-281q0 -34 19 -56.5t52 -22.5q34 0 55.5 29t21.5 76v255h211v-374q0 -174 -78 -265t-223 -91q-55 0 -105 11zM113.5 605q-32.5 29 -32.5 71q0 43 34 72.5
t78 29.5q46 0 79.5 -30.5t33.5 -71.5q0 -43 -34 -71.5t-79 -28.5q-47 0 -79.5 29zM395 606q-32 30 -32 70q0 44 34.5 73t78.5 29q33 0 58 -15t39 -38.5t14 -48.5q0 -43 -33 -71.5t-78 -28.5q-49 0 -81 30z" />
    <glyph glyph-name="uni1EF5" unicode="&#x1ef5;" horiz-adv-x="668" 
d="M211 -218l16 148q39 -6 72 -6q55 0 88 41t34 128q-52 -100 -167 -100q-97 0 -151.5 68.5t-54.5 189.5v250h210v-281q0 -34 19 -56.5t52 -22.5q34 0 55.5 29t21.5 76v255h211v-374q0 -107 -35.5 -187.5t-103 -124.5t-162.5 -44q-55 0 -105 11zM568 -222q-22 22 -22 53
t23 52.5t53 21.5q31 0 54 -22t23 -52q0 -33 -23 -54t-54 -21q-32 0 -54 22z" />
    <glyph glyph-name="ygrave" unicode="&#x1ef3;" horiz-adv-x="668" 
d="M211 -218l16 148q39 -6 72 -6q59 0 90 35.5t32 133.5q-52 -100 -167 -100q-97 0 -151.5 68.5t-54.5 189.5v250h210v-281q0 -34 19 -56.5t52 -22.5q34 0 55.5 29t21.5 76v255h211v-374q0 -174 -78 -265t-223 -91q-55 0 -105 11zM112 709l101 179l293 -205l-61 -107z" />
    <glyph glyph-name="uni1EF7" unicode="&#x1ef7;" horiz-adv-x="668" 
d="M211 -218l16 148q39 -6 72 -6q59 0 90 35.5t32 133.5q-52 -100 -167 -100q-97 0 -151.5 68.5t-54.5 189.5v250h210v-281q0 -34 19 -56.5t52 -22.5q34 0 55.5 29t21.5 76v255h211v-374q0 -174 -78 -265t-223 -91q-55 0 -105 11zM270 621q0 23 10 37t29 29q15 13 22 22.5
t7 22.5q0 11 -10 18t-31 7q-27 0 -70 -15l-8 83q57 20 123 20q69 0 101 -24t32 -66q0 -31 -11.5 -49.5t-32.5 -38.5q-19 -18 -27.5 -31t-8.5 -33v-17h-122q-3 17 -3 35z" />
    <glyph glyph-name="uni0233" unicode="&#x233;" horiz-adv-x="668" 
d="M211 -218l16 148q39 -6 72 -6q59 0 90 35.5t32 133.5q-52 -100 -167 -100q-97 0 -151.5 68.5t-54.5 189.5v250h210v-281q0 -34 19 -56.5t52 -22.5q34 0 55.5 29t21.5 76v255h211v-374q0 -174 -78 -265t-223 -91q-55 0 -105 11zM160 714h348v-128h-348v128z" />
    <glyph glyph-name="uni1EF9" unicode="&#x1ef9;" horiz-adv-x="668" 
d="M211 -218l16 148q39 -6 72 -6q59 0 90 35.5t32 133.5q-52 -100 -167 -100q-97 0 -151.5 68.5t-54.5 189.5v250h210v-281q0 -34 19 -56.5t52 -22.5q34 0 55.5 29t21.5 76v255h211v-374q0 -174 -78 -265t-223 -91q-55 0 -105 11zM91 626q28 78 72.5 117.5t99.5 39.5
q21 0 39 -6.5t41 -19.5q21 -11 35.5 -16.5t30.5 -5.5q15 0 28.5 12t30.5 37l108 -47q-28 -78 -72.5 -118t-99.5 -40q-21 0 -39 6.5t-41 19.5q-21 11 -35.5 16.5t-30.5 5.5q-15 0 -28.5 -12t-30.5 -37z" />
    <glyph glyph-name="z" unicode="z" horiz-adv-x="490" 
d="M31 107l176 266h-169v128h416v-108l-167 -265h171v-128h-427v107z" />
    <glyph glyph-name="zacute" unicode="&#x17a;" horiz-adv-x="490" 
d="M31 107l176 266h-169v128h416v-108l-167 -265h171v-128h-427v107zM74 683l293 205l101 -179l-333 -133z" />
    <glyph glyph-name="zcaron" unicode="&#x17e;" horiz-adv-x="490" 
d="M31 107l176 266h-169v128h416v-108l-167 -265h171v-128h-427v107zM30 835h166l39 -107l10 -39q13 41 27 78q8 22 13.5 39t9.5 29h166l-123 -249h-185z" />
    <glyph glyph-name="zdotaccent" unicode="&#x17c;" horiz-adv-x="490" 
d="M31 107l176 266h-169v128h416v-108l-167 -265h171v-128h-427v107zM166.5 605.5q-32.5 29.5 -32.5 72.5t34 72t78 29q46 0 79.5 -30t33.5 -71q0 -44 -34 -73t-79 -29q-47 0 -79.5 29.5z" />
    <glyph glyph-name="ordfeminine" unicode="&#xaa;" horiz-adv-x="485" 
d="M98.5 360q-39.5 24 -61.5 66t-22 93t22.5 92t61.5 64t88 23q89 0 115 -82v82h152v-356h-152v65q-17 -39 -44.5 -55t-70.5 -16q-49 0 -88.5 24zM282.5 469.5q17.5 17.5 17.5 47.5q0 29 -18 47t-44 18q-28 0 -46.5 -18t-18.5 -47t19 -47t46 -18t44.5 17.5z" />
    <glyph glyph-name="ordmasculine" unicode="&#xba;" horiz-adv-x="433" 
d="M111 359q-46 23 -71 64.5t-25 94.5q0 56 27.5 97t73.5 62t101 21q59 0 104.5 -23t71 -64t25.5 -93q0 -61 -29.5 -102t-75.5 -60.5t-97 -19.5q-59 0 -105 23zM258.5 468.5q16.5 17.5 16.5 49.5t-16 49t-41 17t-41.5 -17t-16.5 -49t16.5 -49.5t41.5 -17.5q24 0 40.5 17.5z
" />
    <glyph glyph-name="uni03A9" unicode="&#x3a9;" horiz-adv-x="794" 
d="M30 146h145q-136 86 -136 249q0 80 42.5 151t124 114.5t191.5 43.5t191.5 -43.5t124 -114.5t42.5 -151q0 -163 -136 -249h145v-146h-329v131q57 52 75.5 103.5t18.5 120.5q0 83 -37.5 128.5t-94.5 45.5t-94.5 -45.5t-37.5 -128.5q0 -69 18.5 -120.5t75.5 -103.5v-131
h-329v146z" />
    <glyph glyph-name="uni03BC" unicode="&#x3bc;" horiz-adv-x="627" 
d="M50 501h206v-333q31 -20 62 -20q27 0 44 14.5t17 45.5v293h201v-286q0 -65 -28.5 -118t-78.5 -83t-111 -30q-53 0 -112 28v-144l-200 -14v647z" />
    <glyph glyph-name="pi" unicode="&#x3c0;" horiz-adv-x="709" 
d="M21 19l10 139q21 -12 41 -12t32.5 12.5t12.5 35.5v307h537v-500h-211v315h-114v-131q0 -94 -47.5 -147.5t-130.5 -53.5q-71 0 -130 35z" />
    <glyph glyph-name="zero" unicode="0" horiz-adv-x="693" 
d="M185.5 36.5q-71.5 44.5 -112 123t-40.5 178.5q0 99 40.5 177.5t112 123t161.5 44.5q89 0 160.5 -44.5t112 -123.5t40.5 -177q0 -99 -40 -178t-111.5 -123.5t-161.5 -44.5t-161.5 44.5zM401.5 181.5q24.5 23.5 38.5 64.5t14 92q0 79 -30 129t-77 50q-49 0 -78.5 -49.5
t-29.5 -129.5q0 -79 30.5 -129.5t77.5 -50.5q30 0 54.5 23.5z" />
    <glyph glyph-name="one" unicode="1" horiz-adv-x="452" 
d="M43 147h84v333l-84 -6v130q44 0 95 16.5t99 48.5h105v-522h84v-147h-383v147z" />
    <glyph glyph-name="two" unicode="2" horiz-adv-x="518" 
d="M38 141q118 106 178 180t60 123q0 32 -19.5 49t-52.5 17q-62 0 -129 -39l-49 149q55 28 108.5 42t112.5 14q70 0 122.5 -27.5t80.5 -75t28 -108.5q0 -91 -61 -169.5t-184 -149.5h241v-146h-436v141z" />
    <glyph glyph-name="three" unicode="3" horiz-adv-x="523" 
d="M30 28l33 147q79 -32 147 -32q82 0 82 61q0 43 -42 61t-140 18v124q89 0 133.5 18t44.5 51q0 45 -77 45q-73 0 -151 -34l-39 136q110 54 231 54q92 0 149.5 -44t57.5 -120q0 -49 -25.5 -89t-68.5 -64q57 -26 90.5 -71t33.5 -100q0 -61 -32.5 -106t-91 -69.5t-134.5 -24.5
q-109 0 -201 39z" />
    <glyph glyph-name="four" unicode="4" horiz-adv-x="635" 
d="M295 163h-277v140l266 366h224v-368h96v-139h-96v-162h-213v163zM295 301v198l-130 -198h130z" />
    <glyph glyph-name="five" unicode="5" horiz-adv-x="535" 
d="M47 30l13 141q40 -15 81 -23t73 -8q47 0 72 22t25 59q0 33 -18 53.5t-47 20.5q-41 0 -99 -40l-104 45l26 369h386l-15 -143h-236l-13 -111q27 17 53 24t60 7q58 0 104.5 -29t73 -80.5t26.5 -115.5q0 -67 -35 -120.5t-96.5 -83.5t-139.5 -30q-92 0 -190 43z" />
    <glyph glyph-name="six" unicode="6" horiz-adv-x="626" 
d="M175.5 32.5q-67.5 39.5 -104.5 112.5t-37 171q0 104 40.5 186.5t112.5 129.5t164 47q112 0 214 -67l-47 -131q-39 22 -73.5 32.5t-70.5 10.5q-65 0 -99.5 -42t-42.5 -133q27 34 69.5 52t94.5 18q91 0 145.5 -55.5t54.5 -147.5q0 -61 -35 -112t-95.5 -81t-132.5 -30
q-90 0 -157.5 39.5zM389 158.5q22 22.5 22 57.5q0 34 -24 53.5t-67 19.5q-41 0 -84 -18q2 -66 27 -100.5t69 -34.5q35 0 57 22.5z" />
    <glyph glyph-name="seven" unicode="7" horiz-adv-x="466" 
d="M48 60l192 464h-214v145h419v-165l-212 -521z" />
    <glyph glyph-name="eight" unicode="8" horiz-adv-x="627" 
d="M164 11q-64 24 -99 68t-35 103q0 111 126 160q-41 34 -58.5 69t-17.5 83q0 54 30.5 96t86 65t126.5 23q64 0 114.5 -19.5t79 -55t28.5 -80.5q0 -47 -20 -79t-63 -54q69 -36 101.5 -82t32.5 -110q0 -99 -75 -155t-207 -56q-86 0 -150 24zM388 498q0 35 -19 53.5t-55 18.5
q-38 0 -57.5 -13.5t-19.5 -38.5t19.5 -43t66.5 -36l34 -13q31 30 31 72zM376.5 139.5q23.5 14.5 23.5 38.5q0 26 -21.5 45.5t-70.5 38.5l-46 18q-32 -33 -32 -82q0 -33 23.5 -53t61.5 -20t61.5 14.5z" />
    <glyph glyph-name="nine" unicode="9" horiz-adv-x="621" 
d="M56 60l47 131q39 -22 73.5 -32.5t70.5 -10.5q65 0 99.5 42t42.5 133q-56 -70 -154 -70q-97 0 -151 55t-54 148q0 61 34 112t93 81t131 30q90 0 157.5 -39.5t104.5 -112.5t37 -171q0 -104 -40.5 -186.5t-112.5 -129.5t-164 -47q-112 0 -214 67zM385 396q-2 69 -26.5 104.5
t-69.5 35.5q-35 0 -57 -22.5t-22 -59.5q0 -36 24 -56t67 -20q41 0 84 18z" />
    <glyph glyph-name="zero.tf" horiz-adv-x="600" 
d="M155 35.5q-63 43.5 -97.5 122t-34.5 180.5t34.5 180.5t97.5 121.5t145 43t144.5 -43.5t97.5 -122t35 -179.5q0 -102 -34.5 -180.5t-97.5 -122t-145 -43.5t-145 43.5zM361 203q22 49 22 135q0 88 -21.5 135.5t-61.5 47.5t-61.5 -47t-21.5 -136q0 -88 21.5 -136t61.5 -48
q39 0 61 49z" />
    <glyph glyph-name="one.tf" horiz-adv-x="600" 
d="M75 147h137v326h-114v131q71 0 122 15.5t102 49.5h105v-522h104v-147h-456v147z" />
    <glyph glyph-name="two.tf" horiz-adv-x="600" 
d="M65 141q131 103 197.5 178t66.5 125q0 33 -21.5 49.5t-61.5 16.5q-71 0 -141 -39l-53 149q59 28 115.5 42t120.5 14q74 0 130 -27.5t86 -75t30 -108.5q0 -92 -67 -170t-205 -149h280v-146h-477v141z" />
    <glyph glyph-name="three.tf" horiz-adv-x="600" 
d="M63 28l35 147q84 -32 156 -32q88 0 88 61q0 43 -45 61t-149 18v124q95 0 142 17.5t47 51.5q0 45 -82 45q-78 0 -167 -37l-35 139q117 54 246 54q97 0 155.5 -43.5t58.5 -120.5q0 -51 -25.5 -90.5t-73.5 -62.5q63 -25 96.5 -70t33.5 -101q0 -61 -33 -106t-93.5 -69.5
t-140.5 -24.5q-116 0 -214 39z" />
    <glyph glyph-name="four.tf" horiz-adv-x="600" 
d="M284 163h-267v140l266 366h214v-368h86v-139h-86v-162h-213v163zM284 301v188l-125 -188h125z" />
    <glyph glyph-name="five.tf" horiz-adv-x="600" 
d="M84 27l13 144q40 -14 82.5 -22.5t77.5 -8.5q52 0 80.5 21t28.5 60q0 34 -20.5 54t-54.5 20q-45 0 -103 -40l-109 45l27 369h403l-16 -143h-251l-14 -111q29 17 56.5 24t66.5 7q61 0 109.5 -29t76 -80.5t27.5 -115.5q0 -67 -36 -120.5t-100.5 -83.5t-145.5 -30
q-103 0 -198 40z" />
    <glyph glyph-name="six.tf" horiz-adv-x="600" 
d="M163.5 32.5q-66.5 39.5 -103 112.5t-36.5 171q0 104 39.5 186.5t110.5 129.5t161 47q111 0 211 -67l-47 -131q-38 22 -72 32.5t-69 10.5q-66 0 -100 -42t-42 -133q27 34 70 52t94 18q89 0 142.5 -55.5t53.5 -147.5q0 -61 -34.5 -112t-94 -81t-129.5 -30
q-88 0 -154.5 39.5zM372.5 158.5q21.5 22.5 21.5 57.5q0 34 -23.5 53.5t-65.5 19.5t-85 -18q2 -66 27 -100.5t70 -34.5q34 0 55.5 22.5z" />
    <glyph glyph-name="seven.tf" horiz-adv-x="600" 
d="M82 60l252 464h-274v145h479v-165l-272 -521z" />
    <glyph glyph-name="eight.tf" horiz-adv-x="600" 
d="M154 11q-63 24 -97.5 68t-34.5 103q0 111 124 160q-40 34 -57.5 69t-17.5 83q0 54 30 96t84.5 65t124.5 23q63 0 113 -20t77.5 -56t27.5 -83q0 -44 -20 -75.5t-62 -53.5q68 -36 100 -82t32 -110q0 -99 -73.5 -155t-203.5 -56q-84 0 -147 24zM372 498q0 34 -18.5 53
t-52.5 19q-36 0 -55 -13.5t-19 -38.5t19.5 -43.5t63.5 -35.5l33 -13q29 31 29 72zM362 140.5q21 15.5 21 41.5q0 24 -20.5 42.5t-67.5 37.5l-45 18q-30 -35 -30 -82q0 -33 23 -53t59 -20q39 0 60 15.5z" />
    <glyph glyph-name="nine.tf" horiz-adv-x="600" 
d="M54 60l47 131q38 -22 72 -32.5t69 -10.5q66 0 100 42t42 133q-54 -68 -154 -68q-96 0 -151 54t-55 147q0 61 34.5 112t94 81t129.5 30q88 0 154.5 -39.5t103 -112.5t36.5 -171q0 -104 -39.5 -186.5t-110.5 -129.5t-161 -47q-110 0 -211 67zM380 396q-2 69 -27 104.5
t-70 35.5q-35 0 -56 -22.5t-21 -59.5q0 -36 23.5 -56t65.5 -20t85 18z" />
    <glyph glyph-name="uni2080" unicode="&#x2080;" horiz-adv-x="379" 
d="M98 16q-39 26 -59.5 70t-20.5 96q0 59 23.5 102.5t63 66.5t85.5 23q50 0 89 -26t60.5 -70t21.5 -96t-21 -96t-60 -70t-90 -26q-53 0 -92 26zM231 110.5q17 28.5 17 71.5q0 42 -15.5 71t-42.5 29q-29 0 -44 -28.5t-15 -71.5q0 -41 15.5 -70.5t43.5 -29.5q24 0 41 28.5z
" />
    <glyph glyph-name="uni2081" unicode="&#x2081;" horiz-adv-x="239" 
d="M24 78h44v177l-44 -4v69q55 0 102 35h55v-277h44v-78h-201v78z" />
    <glyph glyph-name="uni2082" unicode="&#x2082;" horiz-adv-x="290" 
d="M21 79q71 65 100.5 103.5t29.5 60.5q0 30 -40 30q-16 0 -35.5 -6t-32.5 -15l-29 85q53 31 123 31q60 0 95.5 -33t35.5 -88q0 -92 -128 -164h117v-83h-236v79z" />
    <glyph glyph-name="uni2083" unicode="&#x2083;" horiz-adv-x="283" 
d="M12 14l19 77q48 -18 84 -18q19 0 30 9t11 24q0 44 -99 44v74q96 0 96 36q0 26 -38 26q-41 0 -84 -16l-19 74q56 29 123 29q48 0 80.5 -25.5t32.5 -63.5q0 -29 -11.5 -51t-40.5 -38q68 -30 68 -99q0 -49 -36.5 -77.5t-98.5 -28.5q-61 0 -117 24z" />
    <glyph glyph-name="uni2084" unicode="&#x2084;" horiz-adv-x="345" 
d="M162 88h-152v77l147 204h125v-204h46v-77h-46v-88h-120v88zM162 165v108l-72 -108h72z" />
    <glyph glyph-name="uni2085" unicode="&#x2085;" horiz-adv-x="292" 
d="M26 10l7 80q43 -17 85 -17q26 0 40 11.5t14 33.5q0 19 -10.5 30t-27.5 11q-23 0 -54 -22l-56 25l14 207h211l-8 -81h-129l-8 -60q30 13 62 13q51 0 81.5 -34.5t30.5 -88.5q0 -57 -41 -92.5t-107 -35.5q-53 0 -104 20z" />
    <glyph glyph-name="uni2086" unicode="&#x2086;" horiz-adv-x="342" 
d="M63.5 39q-44.5 49 -44.5 131q0 58 23 104t63.5 72t90.5 26q29 0 59 -10t54 -27l-26 -73q-43 24 -74 24q-38 0 -57.5 -23t-24.5 -75q36 39 90 39q49 0 79 -31t30 -82q0 -34 -19.5 -62t-52.5 -45t-72 -17q-74 0 -118.5 49zM212.5 82.5q12.5 12.5 12.5 31.5q0 17 -12.5 29
t-31.5 12q-27 0 -52 -10q1 -35 14.5 -55t38.5 -20q18 0 30.5 12.5z" />
    <glyph glyph-name="uni2087" unicode="&#x2087;" horiz-adv-x="255" 
d="M22 30l106 259h-114v80h229v-71l-120 -310z" />
    <glyph glyph-name="uni2088" unicode="&#x2088;" horiz-adv-x="343" 
d="M57 18q-41 28 -41 79q0 62 69 90q-22 19 -31.5 38.5t-9.5 47.5q0 44 35.5 72.5t95.5 28.5q55 0 89 -23.5t34 -62.5q0 -26 -10.5 -43t-34.5 -31q38 -22 55.5 -47.5t17.5 -59.5q0 -55 -41 -86t-113 -31q-74 0 -115 28zM212 274q0 40 -40 40q-42 0 -42 -31q0 -14 14 -24.5
t51 -24.5q17 16 17 40zM206 75q13 8 13 21t-10.5 22t-42.5 25l-23 10q-17 -18 -17 -46q0 -18 12.5 -29t33.5 -11t34 8z" />
    <glyph glyph-name="uni2089" unicode="&#x2089;" horiz-adv-x="342" 
d="M87 0q-30 10 -54 27l26 73q44 -24 74 -24q38 0 57.5 23t24.5 75q-36 -39 -90 -39q-49 0 -79 31t-30 82q0 34 19.5 62t52.5 45t72 17q74 0 118.5 -49t44.5 -131q0 -58 -23 -104t-63.5 -72t-90.5 -26q-29 0 -59 10zM213 217q-1 35 -14.5 55t-38.5 20q-18 0 -30.5 -12.5
t-12.5 -31.5q0 -17 12.5 -29t31.5 -12q27 0 52 10z" />
    <glyph glyph-name="zero.dnom" horiz-adv-x="379" 
d="M98 16q-39 26 -59.5 70t-20.5 96q0 59 23.5 102.5t63 66.5t85.5 23q50 0 89 -26t60.5 -70t21.5 -96t-21 -96t-60 -70t-90 -26q-53 0 -92 26zM231 110.5q17 28.5 17 71.5q0 42 -15.5 71t-42.5 29q-29 0 -44 -28.5t-15 -71.5q0 -41 15.5 -70.5t43.5 -29.5q24 0 41 28.5z
" />
    <glyph glyph-name="one.dnom" horiz-adv-x="239" 
d="M24 78h44v177l-44 -4v69q55 0 102 35h55v-277h44v-78h-201v78z" />
    <glyph glyph-name="two.dnom" horiz-adv-x="290" 
d="M21 79q71 65 100.5 103.5t29.5 60.5q0 30 -40 30q-16 0 -35.5 -6t-32.5 -15l-29 85q53 31 123 31q60 0 95.5 -33t35.5 -88q0 -92 -128 -164h117v-83h-236v79z" />
    <glyph glyph-name="three.dnom" horiz-adv-x="283" 
d="M12 14l19 77q48 -18 84 -18q19 0 30 9t11 24q0 44 -99 44v74q96 0 96 36q0 26 -38 26q-41 0 -84 -16l-19 74q56 29 123 29q48 0 80.5 -25.5t32.5 -63.5q0 -29 -11.5 -51t-40.5 -38q68 -30 68 -99q0 -49 -36.5 -77.5t-98.5 -28.5q-61 0 -117 24z" />
    <glyph glyph-name="four.dnom" horiz-adv-x="345" 
d="M162 88h-152v77l147 204h125v-204h46v-77h-46v-88h-120v88zM162 165v108l-72 -108h72z" />
    <glyph glyph-name="five.dnom" horiz-adv-x="292" 
d="M26 10l7 80q43 -17 85 -17q26 0 40 11.5t14 33.5q0 19 -10.5 30t-27.5 11q-23 0 -54 -22l-56 25l14 207h211l-8 -81h-129l-8 -60q30 13 62 13q51 0 81.5 -34.5t30.5 -88.5q0 -57 -41 -92.5t-107 -35.5q-53 0 -104 20z" />
    <glyph glyph-name="six.dnom" horiz-adv-x="342" 
d="M63.5 39q-44.5 49 -44.5 131q0 58 23 104t63.5 72t90.5 26q29 0 59 -10t54 -27l-26 -73q-43 24 -74 24q-38 0 -57.5 -23t-24.5 -75q36 39 90 39q49 0 79 -31t30 -82q0 -34 -19.5 -62t-52.5 -45t-72 -17q-74 0 -118.5 49zM212.5 82.5q12.5 12.5 12.5 31.5q0 17 -12.5 29
t-31.5 12q-27 0 -52 -10q1 -35 14.5 -55t38.5 -20q18 0 30.5 12.5z" />
    <glyph glyph-name="seven.dnom" horiz-adv-x="255" 
d="M22 30l106 259h-114v80h229v-71l-120 -310z" />
    <glyph glyph-name="eight.dnom" horiz-adv-x="343" 
d="M57 18q-41 28 -41 79q0 62 69 90q-22 19 -31.5 38.5t-9.5 47.5q0 44 35.5 72.5t95.5 28.5q55 0 89 -23.5t34 -62.5q0 -26 -10.5 -43t-34.5 -31q38 -22 55.5 -47.5t17.5 -59.5q0 -55 -41 -86t-113 -31q-74 0 -115 28zM212 274q0 40 -40 40q-42 0 -42 -31q0 -14 14 -24.5
t51 -24.5q17 16 17 40zM206 75q13 8 13 21t-10.5 22t-42.5 25l-23 10q-17 -18 -17 -46q0 -18 12.5 -29t33.5 -11t34 8z" />
    <glyph glyph-name="nine.dnom" horiz-adv-x="342" 
d="M87 0q-30 10 -54 27l26 73q44 -24 74 -24q38 0 57.5 23t24.5 75q-36 -39 -90 -39q-49 0 -79 31t-30 82q0 34 19.5 62t52.5 45t72 17q74 0 118.5 -49t44.5 -131q0 -58 -23 -104t-63.5 -72t-90.5 -26q-29 0 -59 10zM213 217q-1 35 -14.5 55t-38.5 20q-18 0 -30.5 -12.5
t-12.5 -31.5q0 -17 12.5 -29t31.5 -12q27 0 52 10z" />
    <glyph glyph-name="zero.numr" horiz-adv-x="379" 
d="M98 351q-39 26 -59.5 70t-20.5 96q0 59 23.5 102.5t63 66.5t85.5 23q50 0 89 -26t60.5 -70t21.5 -96t-21 -96t-60 -70t-90 -26q-53 0 -92 26zM231 445.5q17 28.5 17 71.5q0 42 -15.5 71t-42.5 29q-29 0 -44 -28.5t-15 -71.5q0 -41 15.5 -70.5t43.5 -29.5q24 0 41 28.5z
" />
    <glyph glyph-name="one.numr" horiz-adv-x="239" 
d="M24 413h44v177l-44 -4v69q55 0 102 35h55v-277h44v-78h-201v78z" />
    <glyph glyph-name="two.numr" horiz-adv-x="290" 
d="M21 414q71 65 100.5 103.5t29.5 60.5q0 30 -40 30q-16 0 -35.5 -6t-32.5 -15l-29 85q53 31 123 31q60 0 95.5 -33t35.5 -88q0 -92 -128 -164h117v-83h-236v79z" />
    <glyph glyph-name="three.numr" horiz-adv-x="283" 
d="M12 349l19 77q48 -18 84 -18q19 0 30 9t11 24q0 44 -99 44v74q96 0 96 36q0 26 -38 26q-41 0 -84 -16l-19 74q56 29 123 29q48 0 80.5 -25.5t32.5 -63.5q0 -29 -11.5 -51t-40.5 -38q68 -30 68 -99q0 -49 -36.5 -77.5t-98.5 -28.5t-117 24z" />
    <glyph glyph-name="four.numr" horiz-adv-x="345" 
d="M162 423h-152v77l147 204h125v-204h46v-77h-46v-88h-120v88zM162 500v108l-72 -108h72z" />
    <glyph glyph-name="five.numr" horiz-adv-x="292" 
d="M26 345l7 80q43 -17 85 -17q26 0 40 11.5t14 33.5q0 19 -10.5 30t-27.5 11q-23 0 -54 -22l-56 25l14 207h211l-8 -81h-129l-8 -60q30 13 62 13q51 0 81.5 -34.5t30.5 -88.5q0 -57 -41 -92.5t-107 -35.5q-53 0 -104 20z" />
    <glyph glyph-name="six.numr" horiz-adv-x="342" 
d="M63.5 374q-44.5 49 -44.5 131q0 58 23 104t63.5 72t90.5 26q29 0 59 -10t54 -27l-26 -73q-43 24 -74 24q-38 0 -57.5 -23t-24.5 -75q36 39 90 39q49 0 79 -31t30 -82q0 -34 -19.5 -62t-52.5 -45t-72 -17q-74 0 -118.5 49zM212.5 417.5q12.5 12.5 12.5 31.5q0 17 -12.5 29
t-31.5 12q-27 0 -52 -10q1 -35 14.5 -55t38.5 -20q18 0 30.5 12.5z" />
    <glyph glyph-name="seven.numr" horiz-adv-x="255" 
d="M22 365l106 259h-114v80h229v-71l-120 -310z" />
    <glyph glyph-name="eight.numr" horiz-adv-x="343" 
d="M57 353q-41 28 -41 79q0 62 69 90q-22 19 -31.5 38.5t-9.5 47.5q0 44 35.5 72.5t95.5 28.5q55 0 89 -23.5t34 -62.5q0 -26 -10.5 -43t-34.5 -31q38 -22 55.5 -47.5t17.5 -59.5q0 -55 -41 -86t-113 -31q-74 0 -115 28zM212 609q0 40 -40 40q-42 0 -42 -31q0 -14 14 -24.5
t51 -24.5q17 16 17 40zM206 410q13 8 13 21t-10.5 22t-42.5 25l-23 10q-17 -18 -17 -46q0 -18 12.5 -29t33.5 -11t34 8z" />
    <glyph glyph-name="nine.numr" horiz-adv-x="342" 
d="M87 335q-30 10 -54 27l26 73q44 -24 74 -24q38 0 57.5 23t24.5 75q-36 -39 -90 -39q-49 0 -79 31t-30 82q0 34 19.5 62t52.5 45t72 17q74 0 118.5 -49t44.5 -131q0 -58 -23 -104t-63.5 -72t-90.5 -26q-29 0 -59 10zM213 552q-1 35 -14.5 55t-38.5 20q-18 0 -30.5 -12.5
t-12.5 -31.5q0 -17 12.5 -29t31.5 -12q27 0 52 10z" />
    <glyph glyph-name="uni2070" unicode="&#x2070;" horiz-adv-x="379" 
d="M98 351q-39 26 -59.5 70t-20.5 96q0 59 23.5 102.5t63 66.5t85.5 23q50 0 89 -26t60.5 -70t21.5 -96t-21 -96t-60 -70t-90 -26q-53 0 -92 26zM231 445.5q17 28.5 17 71.5q0 42 -15.5 71t-42.5 29q-29 0 -44 -28.5t-15 -71.5q0 -41 15.5 -70.5t43.5 -29.5q24 0 41 28.5z
" />
    <glyph glyph-name="uni00B9" unicode="&#xb9;" horiz-adv-x="239" 
d="M24 413h44v177l-44 -4v69q55 0 102 35h55v-277h44v-78h-201v78z" />
    <glyph glyph-name="uni00B2" unicode="&#xb2;" horiz-adv-x="290" 
d="M21 414q71 65 100.5 103.5t29.5 60.5q0 30 -40 30q-16 0 -35.5 -6t-32.5 -15l-29 85q53 31 123 31q60 0 95.5 -33t35.5 -88q0 -92 -128 -164h117v-83h-236v79z" />
    <glyph glyph-name="uni00B3" unicode="&#xb3;" horiz-adv-x="283" 
d="M12 349l19 77q48 -18 84 -18q19 0 30 9t11 24q0 44 -99 44v74q96 0 96 36q0 26 -38 26q-41 0 -84 -16l-19 74q56 29 123 29q48 0 80.5 -25.5t32.5 -63.5q0 -29 -11.5 -51t-40.5 -38q68 -30 68 -99q0 -49 -36.5 -77.5t-98.5 -28.5t-117 24z" />
    <glyph glyph-name="uni2074" unicode="&#x2074;" horiz-adv-x="345" 
d="M162 423h-152v77l147 204h125v-204h46v-77h-46v-88h-120v88zM162 500v108l-72 -108h72z" />
    <glyph glyph-name="uni2075" unicode="&#x2075;" horiz-adv-x="292" 
d="M26 345l7 80q43 -17 85 -17q26 0 40 11.5t14 33.5q0 19 -10.5 30t-27.5 11q-23 0 -54 -22l-56 25l14 207h211l-8 -81h-129l-8 -60q30 13 62 13q51 0 81.5 -34.5t30.5 -88.5q0 -57 -41 -92.5t-107 -35.5q-53 0 -104 20z" />
    <glyph glyph-name="uni2076" unicode="&#x2076;" horiz-adv-x="342" 
d="M63.5 374q-44.5 49 -44.5 131q0 58 23 104t63.5 72t90.5 26q29 0 59 -10t54 -27l-26 -73q-43 24 -74 24q-38 0 -57.5 -23t-24.5 -75q36 39 90 39q49 0 79 -31t30 -82q0 -34 -19.5 -62t-52.5 -45t-72 -17q-74 0 -118.5 49zM212.5 417.5q12.5 12.5 12.5 31.5q0 17 -12.5 29
t-31.5 12q-27 0 -52 -10q1 -35 14.5 -55t38.5 -20q18 0 30.5 12.5z" />
    <glyph glyph-name="uni2077" unicode="&#x2077;" horiz-adv-x="255" 
d="M22 365l106 259h-114v80h229v-71l-120 -310z" />
    <glyph glyph-name="uni2078" unicode="&#x2078;" horiz-adv-x="343" 
d="M57 353q-41 28 -41 79q0 62 69 90q-22 19 -31.5 38.5t-9.5 47.5q0 44 35.5 72.5t95.5 28.5q55 0 89 -23.5t34 -62.5q0 -26 -10.5 -43t-34.5 -31q38 -22 55.5 -47.5t17.5 -59.5q0 -55 -41 -86t-113 -31q-74 0 -115 28zM212 609q0 40 -40 40q-42 0 -42 -31q0 -14 14 -24.5
t51 -24.5q17 16 17 40zM206 410q13 8 13 21t-10.5 22t-42.5 25l-23 10q-17 -18 -17 -46q0 -18 12.5 -29t33.5 -11t34 8z" />
    <glyph glyph-name="uni2079" unicode="&#x2079;" horiz-adv-x="342" 
d="M87 335q-30 10 -54 27l26 73q44 -24 74 -24q38 0 57.5 23t24.5 75q-36 -39 -90 -39q-49 0 -79 31t-30 82q0 34 19.5 62t52.5 45t72 17q74 0 118.5 -49t44.5 -131q0 -58 -23 -104t-63.5 -72t-90.5 -26q-29 0 -59 10zM213 552q-1 35 -14.5 55t-38.5 20q-18 0 -30.5 -12.5
t-12.5 -31.5q0 -17 12.5 -29t31.5 -12q27 0 52 10z" />
    <glyph glyph-name="fraction" unicode="&#x2044;" horiz-adv-x="132" 
d="M198 688h110l-376 -688h-108z" />
    <glyph glyph-name="onehalf" unicode="&#xbd;" horiz-adv-x="661" 
d="M24 413h44v177l-44 -4v69q55 0 102 35h55v-277h44v-78h-201v78zM437 688h110l-376 -688h-108zM392 79q71 65 100.5 103.5t29.5 60.5q0 30 -40 30q-16 0 -35.5 -6t-32.5 -15l-29 85q53 31 123 31q60 0 95.5 -33t35.5 -88q0 -92 -128 -164h117v-83h-236v79z" />
    <glyph glyph-name="onequarter" unicode="&#xbc;" horiz-adv-x="666" 
d="M24 413h44v177l-44 -4v69q55 0 102 35h55v-277h44v-78h-201v78zM437 688h110l-376 -688h-108zM483 88h-152v77l147 204h125v-204h46v-77h-46v-88h-120v88zM483 165v108l-72 -108h72z" />
    <glyph glyph-name="threequarters" unicode="&#xbe;" horiz-adv-x="713" 
d="M12 349l19 77q48 -18 84 -18q19 0 30 9t11 24q0 44 -99 44v74q96 0 96 36q0 26 -38 26q-41 0 -84 -16l-19 74q56 29 123 29q48 0 80.5 -25.5t32.5 -63.5q0 -29 -11.5 -51t-40.5 -38q68 -30 68 -99q0 -49 -36.5 -77.5t-98.5 -28.5t-117 24zM481 688h110l-376 -688h-108z
M530 88h-152v77l147 204h125v-204h46v-77h-46v-88h-120v88zM530 165v108l-72 -108h72z" />
    <glyph glyph-name="asterisk" unicode="*" horiz-adv-x="535" 
d="M71 313l114 119l-154 67l53 106l135 -81l-11 164h122l-13 -163l131 82l56 -108l-156 -67l114 -120l-101 -81l-96 145l-94 -145z" />
    <glyph glyph-name="backslash" unicode="\" horiz-adv-x="480" 
d="M10 688h194l266 -688h-194z" />
    <glyph glyph-name="periodcentered" unicode="&#xb7;" horiz-adv-x="305" 
d="M50 353h205v-187h-205v187z" />
    <glyph glyph-name="bullet" unicode="&#x2022;" horiz-adv-x="506" 
d="M140 82q-50 26 -78.5 72t-28.5 105q0 57 28 103.5t78 73t114 26.5q63 0 113.5 -26t78.5 -72t28 -105q0 -62 -30 -108t-80.5 -70.5t-110.5 -24.5q-62 0 -112 26z" />
    <glyph glyph-name="colon" unicode=":" horiz-adv-x="295" 
d="M65 23q-30 29 -30 73q0 45 31 73t82 28q50 0 81 -29.5t31 -71.5q0 -47 -29 -74.5t-83 -27.5q-53 0 -83 29zM65 337q-30 29 -30 73q0 45 31 73t82 28q50 0 81 -29.5t31 -71.5q0 -47 -29 -74.5t-83 -27.5q-53 0 -83 29z" />
    <glyph glyph-name="comma" unicode="," horiz-adv-x="295" 
d="M45 -52q51 0 67 2t21 12t5 38h-93v187h205v-102q0 -115 -13.5 -165.5t-55 -69.5t-136.5 -19v117z" />
    <glyph glyph-name="ellipsis" unicode="&#x2026;" horiz-adv-x="935" 
d="M385 23q-30 29 -30 73q0 45 31 73t82 28q50 0 81 -29.5t31 -71.5q0 -47 -29 -74.5t-83 -27.5q-53 0 -83 29zM705 23q-30 29 -30 73q0 45 31 73t82 28q50 0 81 -29.5t31 -71.5q0 -47 -29 -74.5t-83 -27.5q-53 0 -83 29zM65 23q-30 29 -30 73q0 45 31 73t82 28
q50 0 81 -29.5t31 -71.5q0 -47 -29 -74.5t-83 -27.5q-53 0 -83 29z" />
    <glyph glyph-name="exclam" unicode="!" horiz-adv-x="305" 
d="M47 535v155h211v-155l-39 -283h-132zM70 23q-30 29 -30 73q0 45 31 73t82 28q50 0 81 -29.5t31 -71.5q0 -47 -29 -74.5t-83 -27.5q-53 0 -83 29z" />
    <glyph glyph-name="exclamdown" unicode="&#xa1;" horiz-adv-x="305" 
d="M70 523q-30 29 -30 73q0 45 31 73t82 28q50 0 81 -29.5t31 -71.5q0 -47 -29 -74.5t-83 -27.5q-53 0 -83 29zM47 155l40 283h132l39 -283v-155h-211v155z" />
    <glyph glyph-name="numbersign" unicode="#" horiz-adv-x="636" 
d="M117 188h-87l22 124h87l11 64h-86l22 124h86l33 188h133l-33 -188h81l33 188h133l-33 -188h87l-22 -124h-87l-11 -64h86l-22 -124h-86l-33 -188h-133l33 188h-81l-33 -188h-133zM353 312l11 64h-81l-11 -64h81z" />
    <glyph glyph-name="period" unicode="." horiz-adv-x="295" 
d="M65 23q-30 29 -30 73q0 45 31 73t82 28q50 0 81 -29.5t31 -71.5q0 -47 -29 -74.5t-83 -27.5q-53 0 -83 29z" />
    <glyph glyph-name="question" unicode="?" horiz-adv-x="505" 
d="M100 332q0 50 29.5 77t80.5 51q29 14 40 22t11 19q0 32 -79 32q-70 0 -130 -26l-14 152q47 21 101 32.5t100 11.5q71 0 126 -23.5t85.5 -66t30.5 -96.5q0 -48 -20 -79.5t-47 -49t-71 -36.5q-45 -20 -65.5 -36t-20.5 -43v-19h-140q-17 48 -17 78zM104 22q-31 28 -31 74
q0 45 31.5 73t81.5 28q48 0 80 -29t32 -72q0 -48 -29.5 -75t-82.5 -27q-51 0 -82 28z" />
    <glyph glyph-name="questiondown" unicode="&#xbf;" horiz-adv-x="505" 
d="M238 523q-30 29 -30 73q0 45 31 73t82 28q50 0 81 -29.5t31 -71.5q0 -47 -29 -74.5t-83 -27.5q-53 0 -83 29zM140 8.5q-55 23.5 -85.5 66t-30.5 96.5q0 48 20 79.5t47 49t71 36.5q45 20 65.5 36t20.5 43v19h140q17 -48 17 -78q0 -50 -29.5 -77t-80.5 -51q-29 -14 -40 -22
t-11 -19q0 -32 79 -32q70 0 130 26l14 -152q-47 -21 -101 -32.5t-100 -11.5q-71 0 -126 23.5z" />
    <glyph glyph-name="quotedbl" unicode="&#x22;" horiz-adv-x="435" 
d="M30 749h165l-28 -298h-116zM240 749h165l-28 -298h-116z" />
    <glyph glyph-name="quotesingle" unicode="'" horiz-adv-x="225" 
d="M30 749h165l-28 -298h-116z" />
    <glyph glyph-name="semicolon" unicode=";" horiz-adv-x="295" 
d="M45 -52q51 0 67 2t21 12t5 38h-93v187h205v-102q0 -115 -13.5 -165.5t-55 -69.5t-136.5 -19v117zM65 337q-30 29 -30 73q0 45 31 73t82 28q50 0 81 -29.5t31 -71.5q0 -47 -29 -74.5t-83 -27.5q-53 0 -83 29z" />
    <glyph glyph-name="slash" unicode="/" horiz-adv-x="480" 
d="M276 688h194l-266 -688h-194z" />
    <glyph glyph-name="underscore" unicode="_" horiz-adv-x="475" 
d="M47 156h381v-156h-381v156z" />
    <glyph glyph-name="periodcentered.loclCAT" horiz-adv-x="538" 
d="M163 346.5q-30 26.5 -30 70.5q0 40 30.5 69t72.5 29q43 0 72.5 -27.5t29.5 -70.5q0 -42 -29.5 -69.5t-72.5 -27.5t-73 26.5z" />
    <glyph glyph-name="braceleft" unicode="{" horiz-adv-x="355" 
d="M135.5 46.5q-68.5 73.5 -68.5 191.5q0 27 -16 42.5t-45 18.5v78q61 7 61 60q0 120 68.5 192.5t186.5 82.5v-87q-61 -22 -61 -188q0 -33 -19.5 -56.5t-56.5 -42.5q38 -20 57 -43.5t19 -56.5q0 -165 61 -187v-87q-118 9 -186.5 82.5z" />
    <glyph glyph-name="braceright" unicode="}" horiz-adv-x="355" 
d="M33 51q62 23 62 187q0 33 19 56.5t57 43.5q-37 19 -56.5 42.5t-19.5 56.5q0 164 -62 188v87q120 -10 187.5 -83t67.5 -192q0 -53 62 -60v-78q-29 -3 -45.5 -18.5t-16.5 -42.5q0 -120 -68.5 -192t-186.5 -82v87z" />
    <glyph glyph-name="bracketleft" unicode="[" horiz-adv-x="447" 
d="M58 688h355v-149h-140v-392h140v-147h-355v688z" />
    <glyph glyph-name="bracketright" unicode="]" horiz-adv-x="447" 
d="M34 147h140v392h-140v149h355v-688h-355v147z" />
    <glyph glyph-name="parenleft" unicode="(" horiz-adv-x="417" 
d="M191.5 -58q-84.5 60 -128 159t-43.5 225q0 130 45.5 226.5t130 152t199.5 67.5v-126q-71 -12 -111.5 -94t-40.5 -226q0 -140 36.5 -227t115.5 -101v-127q-119 11 -203.5 71z" />
    <glyph glyph-name="parenright" unicode=")" horiz-adv-x="417" 
d="M22 -2q72 12 112.5 96t40.5 232q0 140 -39.5 224t-113.5 96v126q122 -12 206 -71.5t126.5 -155.5t42.5 -219q0 -129 -44.5 -227.5t-129 -157.5t-201.5 -70v127z" />
    <glyph glyph-name="emdash" unicode="&#x2014;" horiz-adv-x="800" 
d="M46 329h708v-156h-708v156z" />
    <glyph glyph-name="endash" unicode="&#x2013;" horiz-adv-x="500" 
d="M46 329h408v-156h-408v156z" />
    <glyph glyph-name="hyphen" unicode="-" horiz-adv-x="361" 
d="M46 329h269v-156h-269v156z" />
    <glyph glyph-name="uni2010" unicode="&#x2010;" horiz-adv-x="361" 
d="M46 329h269v-156h-269v156z" />
    <glyph glyph-name="uni00AD" unicode="&#xad;" horiz-adv-x="361" 
d="M46 329h269v-156h-269v156z" />
    <glyph glyph-name="guillemotleft" unicode="&#xab;" horiz-adv-x="542" 
d="M26 216v180l210 149v-182l-96 -57l96 -61v-182zM286 216v180l210 149v-182l-97 -57l97 -61v-182z" />
    <glyph glyph-name="guillemotright" unicode="&#xbb;" horiz-adv-x="541" 
d="M46 245l96 61l-96 57v182l210 -149v-180l-210 -153v182zM305 245l95 61l-95 57v182l210 -149v-180l-210 -153v182z" />
    <glyph glyph-name="guilsinglleft" unicode="&#x2039;" horiz-adv-x="282" 
d="M26 216v180l210 149v-182l-97 -57l97 -61v-182z" />
    <glyph glyph-name="guilsinglright" unicode="&#x203a;" horiz-adv-x="282" 
d="M46 245l96 61l-96 57v182l210 -149v-180l-210 -153v182z" />
    <glyph glyph-name="quotedblbase" unicode="&#x201e;" horiz-adv-x="555" 
d="M45 -52q51 0 67 2t21 12t5 38h-93v187h205v-102q0 -115 -13.5 -165.5t-55 -69.5t-136.5 -19v117zM305 -52q51 0 67 2t21 12t5 38h-93v187h205v-102q0 -115 -13.5 -165.5t-55 -69.5t-136.5 -19v117z" />
    <glyph glyph-name="quotedblleft" unicode="&#x201c;" horiz-adv-x="555" 
d="M45 444q0 115 13.5 165.5t55 69.5t136.5 19v-117q-51 0 -67 -2t-21 -12t-5 -38h93v-187h-205v102zM305 444q0 115 13.5 165.5t55 69.5t136.5 19v-117q-51 0 -67 -2t-21 -12t-5 -38h93v-187h-205v102z" />
    <glyph glyph-name="quotedblright" unicode="&#x201d;" horiz-adv-x="555" 
d="M45 449q51 0 67 2t21 12t5 38h-93v187h205v-102q0 -115 -13.5 -165.5t-55 -69.5t-136.5 -19v117zM305 449q51 0 67 2t21 12t5 38h-93v187h205v-102q0 -115 -13.5 -165.5t-55 -69.5t-136.5 -19v117z" />
    <glyph glyph-name="quoteleft" unicode="&#x2018;" horiz-adv-x="295" 
d="M45 444q0 115 13.5 165.5t55 69.5t136.5 19v-117q-51 0 -67 -2t-21 -12t-5 -38h93v-187h-205v102z" />
    <glyph glyph-name="quoteright" unicode="&#x2019;" horiz-adv-x="295" 
d="M45 449q51 0 67 2t21 12t5 38h-93v187h205v-102q0 -115 -13.5 -165.5t-55 -69.5t-136.5 -19v117z" />
    <glyph glyph-name="quotesinglbase" unicode="&#x201a;" horiz-adv-x="295" 
d="M45 -52q51 0 67 2t21 12t5 38h-93v187h205v-102q0 -115 -13.5 -165.5t-55 -69.5t-136.5 -19v117z" />
    <glyph glyph-name="uni27E8" unicode="&#x27e8;" horiz-adv-x="370" 
d="M40 321l176 454h154l-166 -454l166 -454h-154z" />
    <glyph glyph-name="uni27E9" unicode="&#x27e9;" horiz-adv-x="370" 
d="M166 321l-166 454h154l176 -454l-176 -454h-154z" />
    <glyph glyph-name="uni00A0" unicode="&#xa0;" horiz-adv-x="187" 
 />
    <glyph glyph-name="uni20B5" unicode="&#x20b5;" horiz-adv-x="584" 
d="M350 -10q-88 6 -161 52t-115.5 122.5t-42.5 171.5t43 172t116 122.5t160 50.5v92h85v-96q67 -11 123 -43l-26 -150q-45 18 -97 25v-345q22 1 43 7t54 19l27 -152q-59 -35 -124 -45v-78h-85v75zM350 503q-103 -29 -103 -166q0 -136 103 -166v332z" />
    <glyph glyph-name="cent" unicode="&#xa2;" horiz-adv-x="460" 
d="M288 -8q-74 2 -134 35t-94.5 91t-34.5 132t36.5 132t97 91t129.5 35v77h85v-84q35 -8 77 -33l-19 -128q-34 10 -58 14v-209q25 4 56 14l19 -135q-37 -18 -75 -26v-83h-85v77zM288 350q-31 -10 -48 -36t-17 -64t16.5 -64t48.5 -37v201z" />
    <glyph glyph-name="colonmonetary" unicode="&#x20a1;" horiz-adv-x="584" 
d="M213 28q-83 43 -132.5 124t-49.5 184q0 93 41.5 169t112.5 122t156 54l18 92h75l-18 -93q24 -3 48 -9l20 102h75l-121 -616q24 2 44.5 9.5t49.5 23.5l27 -152q-72 -42 -153 -48l-15 -75h-75l15 77q-24 3 -48 9l-17 -86h-75zM434 516q-24 2 -37 2h-13l-68 -345
q23 -11 48 -15zM305 495q-37 -22 -56 -62t-19 -96q0 -61 23 -104z" />
    <glyph glyph-name="currency" unicode="&#xa4;" horiz-adv-x="559" 
d="M36 114l71 71q-48 54 -48 129q0 74 46 128l-69 69l45 45l73 -73q54 33 123 33q68 0 126 -35l75 75l45 -45l-71 -71q46 -50 46 -126q0 -74 -48 -127l73 -73l-44 -45l-79 78q-55 -31 -124 -31t-119 30l-76 -77zM337 254q23 24 23 60q0 37 -22.5 61t-59.5 24t-60 -23.5
t-23 -61.5t23 -61t60 -23q36 0 59 24z" />
    <glyph glyph-name="dollar" unicode="$" horiz-adv-x="580" 
d="M256 -12q-119 5 -213 49l41 138q40 -21 86.5 -32t85.5 -14v140l-15 4q-97 27 -149 81.5t-52 128.5q0 82 57.5 134t158.5 61v95h85v-95q96 -8 185 -49l-52 -134q-50 33 -133 42v-134l12 -3q94 -24 145.5 -77.5t51.5 -127.5q0 -87 -54.5 -140t-154.5 -65v-75h-85v73z
M256 537q-52 -11 -52 -53q0 -19 11 -31.5t41 -24.5v109zM388 183q0 21 -9.5 34t-37.5 24v-106q47 12 47 48z" />
    <glyph glyph-name="dong" unicode="&#x20ab;" horiz-adv-x="726" 
d="M158 18q-54 34 -86 90.5t-32 121.5q0 66 33 122.5t87.5 90t113.5 33.5q113 0 164 -101v165h-166v85h166v54h211v-54h52v-85h-52v-540h-211v85q-24 -48 -65.5 -74.5t-99.5 -26.5q-61 0 -115 34zM409.5 165.5q28.5 27.5 28.5 64.5v4q-1 37 -30.5 62.5t-68.5 25.5
q-38 0 -62.5 -27t-24.5 -65q0 -39 25.5 -65.5t61.5 -26.5q42 0 70.5 27.5zM70 -75h579v-85h-579v85z" />
    <glyph glyph-name="Euro" unicode="&#x20ac;" horiz-adv-x="648" 
d="M293.5 20.5q-68.5 31.5 -117.5 88t-69 131.5h-76v75h65q-1 7 -1 21q0 19 1 29h-65v75h79q21 72 69.5 127t114.5 85t140 30q104 0 188 -48l-26 -150q-66 26 -125 26q-100 0 -138 -70h144v-75h-165q-1 -9 -1 -28q0 -15 1 -22h165v-75h-147q39 -77 147 -77q31 0 55.5 6
t63.5 21l27 -152q-83 -49 -183 -49q-78 0 -146.5 31.5z" />
    <glyph glyph-name="florin" unicode="&#x192;" horiz-adv-x="484" 
d="M1 -177l7 135q41 -14 71 -14q57 0 57 60v373h-106v124h106v54q0 102 46.5 157.5t137.5 55.5q73 0 163 -39l-7 -135q-41 14 -71 14q-57 0 -57 -60v-47h126v-124h-126v-380q0 -102 -46.5 -157.5t-137.5 -55.5q-73 0 -163 39z" />
    <glyph glyph-name="franc" unicode="&#x20a3;" horiz-adv-x="826" 
d="M65 679h474v-152h-259v-139h150v86h211v-102q23 59 62.5 87.5t92.5 28.5l29 -163q-95 0 -139.5 -20.5t-44.5 -64.5v-240h-211v262h-150v-262h-215v679z" />
    <glyph glyph-name="uni20B2" unicode="&#x20b2;" horiz-adv-x="638" 
d="M323 -11q-85 12 -151.5 61.5t-104 125t-37.5 163.5q0 87 39 160.5t106 120.5t148 57v96h85v-96q97 -6 177 -46l-53 -146q-66 24 -124 28v-364q24 0 40 3v167h147v-303q-86 -27 -187 -29v-72h-85v74zM323 498q-42 -20 -64 -65t-22 -102q0 -55 23 -99.5t63 -65.5v332z" />
    <glyph glyph-name="uni20AD" unicode="&#x20ad;" horiz-adv-x="764" 
d="M105 292h-65v85h65v292h225v-292h28l141 292h225v-44l-131 -248h141v-85h-139l151 -248v-44h-236l-155 292h-25v-292h-225v292z" />
    <glyph glyph-name="lira" unicode="&#x20a4;" horiz-adv-x="524" 
d="M36 63q30 1 47 23.5t17 59.5v94h-65v75h65v50h-65v75h65q1 119 49.5 181t167.5 62q80 0 173 -38l-17 -136q-57 24 -97 24q-29 0 -45.5 -14.5t-16.5 -42.5v-36h125v-75h-125v-50h125v-75h-125v-94h168v-146h-446v63z" />
    <glyph glyph-name="uni20BA" unicode="&#x20ba;" horiz-adv-x="529" 
d="M105 41v178l-65 -32v79l65 32v54l-65 -32v79l65 32v238h214v-132l125 62v-79l-125 -62v-54l125 62v-79l-125 -62v-183q20 -7 42 -7q35 0 73 14t61 43v-156q-69 -51 -183 -51q-122 0 -207 56z" />
    <glyph glyph-name="uni20BC" unicode="&#x20bc;" horiz-adv-x="770" 
d="M343 496q-77 -65 -77 -404v-92h-221v62q0 279 78 438.5t220 179.5v93h85v-93q142 -21 219.5 -180t77.5 -438v-62h-221v92q0 332 -76 402v-579h-85v581z" />
    <glyph glyph-name="uni20A6" unicode="&#x20a6;" horiz-adv-x="824" 
d="M105 240h-65v75h65v50h-65v75h65v229h201l141 -229h93v229h179v-229h65v-75h-65v-50h65v-75h-65v-240h-200l-149 240h-87v-240h-178v240zM323 315l-40 65v-65h40zM540 365h-47l47 -76v76z" />
    <glyph glyph-name="peseta" unicode="&#x20a7;" horiz-adv-x="1388" 
d="M680 45q-48 53 -48 147l1 164h-42q-29 -69 -104.5 -104.5t-183.5 -35.5h-22v-216h-216v669h228q136 0 216 -48t94 -141h45l93 189h101v-189h96v-124h-96v-149q0 -25 15.5 -39t38.5 -14q24 0 46 12l8 -140q-49 -34 -131 -34q-91 0 -139 53zM304 355q101 0 101 86
q0 43 -27 63.5t-74 20.5h-23v-170h23zM965 23l23 116q87 -26 140 -26q50 0 50 28q0 14 -14.5 23t-54.5 16q-83 16 -119.5 54.5t-36.5 110.5q4 79 63 121t161 42q52 0 89.5 -6.5t68.5 -21.5l-21 -119q-29 11 -63.5 17t-57.5 6q-34 0 -47 -7t-13 -19q0 -22 50 -31
q181 -32 181 -168q0 -77 -55.5 -122t-159.5 -45t-184 31z" />
    <glyph glyph-name="uni20B1" unicode="&#x20b1;" horiz-adv-x="721" 
d="M105 302h-65v75h65v50h-65v75h65v167h228q111 0 189 -42t108 -125h76v-75h-61q1 -9 1 -27q0 -16 -1 -23h61v-75h-75q-28 -83 -104.5 -124.5t-183.5 -41.5h-22v-136h-216v302zM423 502q-13 19 -32 28.5t-43 9.5h-27v-38h102zM448 377q1 8 1 26q0 16 -1 24h-127v-50h127z
M348 265q49 0 75 37h-102v-37h27z" />
    <glyph glyph-name="uni20BD" unicode="&#x20bd;" horiz-adv-x="659" 
d="M105 145h-65v75h65v50h-65v75h65v324h238q148 0 225.5 -50.5t77.5 -150.5q0 -98 -71 -148t-192 -50h-62v-50h121v-75h-121v-145h-216v145zM354 345q38 0 64.5 25.5t26.5 75.5q0 49 -27.5 74t-63.5 25h-33v-200h33z" />
    <glyph glyph-name="uni20B9" unicode="&#x20b9;" horiz-adv-x="527" 
d="M281 5.5q-45 20.5 -80.5 63t-73.5 116.5l-85 165l52 1q75 1 113 31.5t40 86.5h-222v75h201q-36 50 -132 50h-69v75h482v-75h-125q30 -21 45 -50h80v-75h-60v-10q0 -64 -41.5 -110t-111.5 -69l19 -35q33 -62 58 -84.5t63 -22.5q15 0 27.5 3t16.5 4v-143q-49 -17 -88 -17
q-64 0 -109 20.5z" />
    <glyph glyph-name="sterling" unicode="&#xa3;" horiz-adv-x="524" 
d="M36 63q30 1 47 23.5t17 59.5v155h-65v85h65v51q0 124 48.5 187.5t168.5 63.5q80 0 173 -38l-17 -136q-57 24 -97 24q-29 0 -45.5 -14.5t-16.5 -42.5v-95h125v-85h-125v-155h168v-146h-446v63z" />
    <glyph glyph-name="uni20A9" unicode="&#x20a9;" horiz-adv-x="918" 
d="M135 240h-105v75h90l-9 50h-81v75h66l-46 239h189l38 -239h60l23 124h197l24 -124h60l37 239h190l-46 -239h66v-75h-81l-9 -50h90v-75h-105l-46 -240h-206l-46 240h-52l-46 -240h-206zM323 365h-35l16 -99zM471 315l-10 50h-4l-10 -50h24zM629 365h-34l19 -99z" />
    <glyph glyph-name="yen" unicode="&#xa5;" horiz-adv-x="661" 
d="M218 72h-132v74h132v43h-132v74h103l-169 425h209l97 -309l95 309h220l-178 -425h103v-74h-133v-43h133v-74h-133v-72h-215v72z" />
    <glyph glyph-name="uni2219" unicode="&#x2219;" horiz-adv-x="600" 
d="M198 353h204v-187h-204v187z" />
    <glyph glyph-name="uni2052" unicode="&#x2052;" horiz-adv-x="600" 
d="M336 688h194l-266 -688h-194zM8 687h204v-187h-204v187zM388 187h204v-187h-204v187z" />
    <glyph glyph-name="uni2215" unicode="&#x2215;" horiz-adv-x="600" 
d="M336 688h194l-266 -688h-194z" />
    <glyph glyph-name="plus" unicode="+" horiz-adv-x="600" 
d="M219 173h-169v155h169v173h162v-173h169v-155h-169v-173h-162v173z" />
    <glyph glyph-name="minus" unicode="&#x2212;" horiz-adv-x="600" 
d="M60 329h480v-156h-480v156z" />
    <glyph glyph-name="multiply" unicode="&#xd7;" horiz-adv-x="600" 
d="M44 103l145 148l-145 147l113 113l144 -146l143 146l113 -113l-145 -147l145 -148l-113 -113l-143 146l-144 -146z" />
    <glyph glyph-name="divide" unicode="&#xf7;" horiz-adv-x="600" 
d="M218.5 369q-28.5 22 -28.5 60q0 37 29 59.5t81 22.5t81.5 -22.5t29.5 -59.5q0 -38 -28.5 -60t-82.5 -22q-53 0 -81.5 22zM60 322h480v-142h-480v142zM218.5 12q-28.5 22 -28.5 60q0 37 29 59.5t81 22.5t81.5 -22.5t29.5 -59.5q0 -38 -28.5 -60t-82.5 -22q-53 0 -81.5 22z
" />
    <glyph glyph-name="equal" unicode="=" horiz-adv-x="600" 
d="M60 411h480v-134h-480v134zM60 224h480v-134h-480v134z" />
    <glyph glyph-name="notequal" unicode="&#x2260;" horiz-adv-x="600" 
d="M162 90h-102v134h159l22 53h-181v134h238l38 90h140l-38 -90h102v-134h-159l-22 -53h181v-134h-238l-38 -90h-140z" />
    <glyph glyph-name="greater" unicode="&#x3e;" horiz-adv-x="600" 
d="M60 150l356 150l-356 150v150l480 -216v-168l-480 -216v150z" />
    <glyph glyph-name="less" unicode="&#x3c;" horiz-adv-x="600" 
d="M60 216v168l480 216v-150l-356 -150l356 -150v-150z" />
    <glyph glyph-name="greaterequal" unicode="&#x2265;" horiz-adv-x="600" 
d="M60 320l333 115l-333 115v150l480 -181v-168l-480 -181v150zM60 155h480v-155h-480v155z" />
    <glyph glyph-name="lessequal" unicode="&#x2264;" horiz-adv-x="600" 
d="M60 351v168l480 181v-150l-333 -115l333 -115v-150zM60 0v155h480v-155h-480z" />
    <glyph glyph-name="plusminus" unicode="&#xb1;" horiz-adv-x="600" 
d="M219 371h-169v155h169v162h162v-162h169v-155h-169v-162h-162v162zM60 155h490v-155h-490v155z" />
    <glyph glyph-name="approxequal" unicode="&#x2248;" horiz-adv-x="600" 
d="M37 301q19 78 62.5 120.5t97.5 42.5q31 0 58 -7t58 -19q30 -11 48.5 -16t39.5 -5q38 0 56 47l106 -41q-19 -78 -62.5 -120.5t-97.5 -42.5q-31 0 -58 7t-58 19q-30 11 -48.5 16t-39.5 5q-38 0 -56 -47zM37 81q19 78 62.5 120.5t97.5 42.5q31 0 58 -7t58 -19
q30 -11 48.5 -16t39.5 -5q38 0 56 47l106 -41q-19 -78 -62.5 -120.5t-97.5 -42.5q-31 0 -58 7t-58 19q-30 11 -48.5 16t-39.5 5q-38 0 -56 -47z" />
    <glyph glyph-name="asciitilde" unicode="~" horiz-adv-x="600" 
d="M346 148q-26 8 -59 23q-28 13 -47.5 19.5t-40.5 6.5q-38 0 -56 -47l-106 41q19 79 63.5 126t96.5 47q31 0 57 -8t59 -23q28 -13 47.5 -19.5t40.5 -6.5q38 0 56 47l106 -41q-19 -79 -63.5 -126t-96.5 -47q-31 0 -57 8z" />
    <glyph glyph-name="logicalnot" unicode="&#xac;" horiz-adv-x="600" 
d="M378 261h-318v155h480v-331h-162v176z" />
    <glyph glyph-name="infinity" unicode="&#x221e;" horiz-adv-x="600" 
d="M70.5 102q-45.5 57 -45.5 151q0 58 20 104.5t56.5 72.5t83.5 26q36 0 62 -15.5t50 -50.5q21 32 48 48t57 16q81 0 127 -56.5t46 -151.5q0 -58 -20 -103.5t-55.5 -71.5t-81.5 -26q-38 0 -64 15t-51 50q-21 -32 -48.5 -48.5t-59.5 -16.5q-79 0 -124.5 57zM223.5 213
q18.5 31 24.5 81q-29 30 -59 30q-25 0 -38.5 -19.5t-13.5 -55.5q0 -31 11.5 -49t32.5 -18q24 0 42.5 31zM450 195q13 20 13 55q0 32 -11.5 50t-32.5 18q-23 0 -42 -31.5t-25 -80.5q30 -31 62 -31q23 0 36 20z" />
    <glyph glyph-name="integral" unicode="&#x222b;" horiz-adv-x="600" 
d="M78 -256v140q34 -12 53 -12q30 0 47 13.5t17 39.5v573q0 93 46.5 146.5t130.5 53.5q87 0 143 -34v-140q-24 12 -46 12q-30 0 -47 -13.5t-17 -39.5v-573q0 -93 -46.5 -146.5t-130.5 -53.5q-83 0 -150 34z" />
    <glyph glyph-name="uni2206" unicode="&#x2206;" horiz-adv-x="600" 
d="M210 672h177l184 -672h-542zM394 112l-95 406l-91 -406h186z" />
    <glyph glyph-name="radical" unicode="&#x221a;" horiz-adv-x="600" 
d="M137 346h-137v155h251l71 -308l114 495h164l-187 -688h-182z" />
    <glyph glyph-name="partialdiff" unicode="&#x2202;" horiz-adv-x="600" 
d="M144.5 13.5q-58.5 29.5 -91.5 83t-33 120.5q0 66 27.5 114.5t75 73.5t108.5 25q37 0 73 -11.5t60 -33.5q0 76 -27.5 109t-81.5 33q-35 0 -71.5 -9.5t-69.5 -26.5l-49 158q104 54 219 54q143 0 219.5 -93t76.5 -273q0 -106 -36.5 -186t-105.5 -123.5t-163 -43.5
q-72 0 -130.5 29.5zM337.5 167q20.5 34 25.5 105q-35 18 -74 18q-29 0 -46.5 -21t-17.5 -60q0 -38 17 -57t43 -19q32 0 52.5 34z" />
    <glyph glyph-name="uni00B5" unicode="&#xb5;" horiz-adv-x="600" 
d="M37 501h206v-333q31 -20 59 -20q58 0 58 80v273h207v-286q0 -65 -30 -118t-80.5 -83t-110.5 -30q-50 0 -109 28v-144l-200 -14v647z" />
    <glyph glyph-name="percent" unicode="%" horiz-adv-x="884" 
d="M108 334.5q-41 26.5 -62.5 71t-21.5 97.5q0 57 23.5 101.5t65.5 69t95 24.5q57 0 97.5 -28t61.5 -73t21 -94q0 -57 -23 -101.5t-65 -69t-95 -24.5q-56 0 -97 26.5zM617 688h140l-490 -688h-140zM249.5 435.5q14.5 29.5 14.5 67.5q0 39 -16 67t-43 28q-29 0 -43 -28
t-14 -67q0 -40 15.5 -68.5t41.5 -28.5q30 0 44.5 29.5zM582 15.5q-41 25.5 -63 70t-22 100.5t23.5 100.5t65 70t93.5 25.5q54 0 95.5 -28.5t63.5 -75t22 -98.5q0 -56 -23 -99.5t-64 -67t-94 -23.5q-56 0 -97 25.5zM721.5 119.5q14.5 29.5 14.5 66.5q0 39 -15.5 66.5
t-41.5 27.5q-28 0 -43 -27.5t-15 -66.5q0 -40 15.5 -68t42.5 -28q28 0 42.5 29.5z" />
    <glyph glyph-name="perthousand" unicode="&#x2030;" horiz-adv-x="1274" 
d="M108 334.5q-41 26.5 -62.5 71t-21.5 97.5q0 57 23.5 101.5t65.5 69t95 24.5q57 0 97.5 -28t61.5 -73t21 -94q0 -57 -23 -101.5t-65 -69t-95 -24.5q-56 0 -97 26.5zM617 688h140l-490 -688h-140zM249.5 435.5q14.5 29.5 14.5 67.5q0 39 -16 67t-43 28q-29 0 -43 -28
t-14 -67q0 -40 15.5 -68.5t41.5 -28.5q30 0 44.5 29.5zM582 15.5q-41 25.5 -63 70t-22 100.5t23.5 100.5t65 70t93.5 25.5q54 0 95.5 -28.5t63.5 -75t22 -98.5q0 -56 -23 -99.5t-64 -67t-94 -23.5q-56 0 -97 25.5zM972 15.5q-41 25.5 -63 70t-22 100.5t23.5 100.5t65 70
t93.5 25.5q54 0 95.5 -28.5t63.5 -75t22 -98.5q0 -56 -23 -99.5t-64 -67t-94 -23.5q-56 0 -97 25.5zM721.5 119.5q14.5 29.5 14.5 66.5q0 39 -15.5 66.5t-41.5 27.5q-28 0 -43 -27.5t-15 -66.5q0 -40 15.5 -68t42.5 -28q28 0 42.5 29.5zM1111.5 119.5q14.5 29.5 14.5 66.5
q0 39 -15.5 66.5t-41.5 27.5q-28 0 -43 -27.5t-15 -66.5q0 -40 15.5 -68t42.5 -28q28 0 42.5 29.5z" />
    <glyph glyph-name="lozenge" unicode="&#x25ca;" horiz-adv-x="600" 
d="M580 344l-196 -344h-168l-196 344l196 344h168zM430 344l-130 239l-130 -239l130 -239z" />
    <glyph glyph-name="at" unicode="@" horiz-adv-x="864" 
d="M227 31.5q-93 47.5 -144.5 133t-51.5 194.5q0 110 52.5 197t146.5 135.5t213 48.5q122 0 211 -39.5t136.5 -114t47.5 -176.5q0 -107 -45.5 -166.5t-127.5 -59.5q-107 0 -151 74q-40 -73 -121 -73q-45 0 -82.5 21.5t-60 60.5t-22.5 89q0 86 60.5 136t165.5 50
q80 0 162 -14v-224q18 -20 36 -20q28 0 43.5 33t15.5 91q0 216 -267 216q-82 0 -147.5 -34t-102.5 -94t-37 -136q0 -75 35.5 -133t99.5 -90.5t147 -32.5q115 0 201 46l58 -100q-62 -35 -122 -50.5t-137 -15.5q-119 0 -212 47.5zM474.5 315.5q19.5 19.5 19.5 45.5v79h-36
q-47 0 -72.5 -19.5t-25.5 -56.5q0 -28 20 -48t48 -20q27 0 46.5 19.5z" />
    <glyph glyph-name="ampersand" unicode="&#x26;" horiz-adv-x="671" 
d="M133.5 8.5q-49.5 24.5 -77.5 69t-28 100.5q0 128 139 193q-67 73 -67 145q0 48 27 88t76 63t113 23t112.5 -21.5t75.5 -60.5t27 -90q0 -58 -35 -106.5t-96 -73.5q17 -20 26 -33l41 -49q39 35 79 88l100 -95q-39 -65 -93 -113l118 -136h-201l-43 50q-82 -66 -181 -66
q-63 0 -112.5 24.5zM363 470.5q11 15.5 11 43.5q0 21 -12.5 33.5t-34.5 12.5q-52 0 -52 -46q0 -18 11.5 -35t37.5 -37q28 13 39 28.5zM326 153l-82 105q-38 -21 -38 -64q0 -28 16 -45t43 -17q40 0 61 21z" />
    <glyph glyph-name="paragraph" unicode="&#xb6;" horiz-adv-x="556" 
d="M258 355h-42q-55 0 -99 21.5t-69 59t-25 85.5t29 86t82.5 59.5t123.5 21.5h224v-688h-80v612h-63v-612h-81v355z" />
    <glyph glyph-name="section" unicode="&#xa7;" horiz-adv-x="533" 
d="M54 21l22 122q37 -13 81.5 -21.5t84.5 -8.5q46 0 46 23q0 9 -8.5 14.5t-38.5 15.5l-30 11l-39 14q-52 20 -91 50.5t-39 85.5q0 77 60 120q-60 39 -60 116q3 74 66.5 107t158.5 33q119 0 196 -37l-21 -111q-24 8 -67.5 15.5t-87.5 7.5q-47 0 -47 -19q0 -10 17 -18t58 -23
q52 -18 88.5 -35t63.5 -44.5t27 -65.5q0 -41 -16.5 -72t-46.5 -49q61 -39 61 -114q0 -83 -69.5 -118.5t-160.5 -35.5q-105 0 -208 37zM317.5 307.5q13.5 11.5 13.5 31.5q0 15 -22.5 28t-68.5 26q-20 -2 -31.5 -13.5t-11.5 -31.5q0 -33 84 -52q23 0 36.5 11.5z" />
    <glyph glyph-name="copyright" unicode="&#xa9;" horiz-adv-x="697" 
d="M189 111.5q-72 41.5 -113 113t-41 159.5q0 87 41.5 159t113 113.5t158.5 41.5q90 0 161.5 -40.5t112 -112t40.5 -161.5q0 -86 -42 -158t-114 -114t-158 -42q-87 0 -159 41.5zM471.5 166q54.5 32 85.5 89t31 129t-31 129t-85.5 89t-123.5 32t-123.5 -32t-85.5 -89
t-31 -129t31 -129t85.5 -89t123.5 -32t123.5 32zM263 219q-45 23 -70 65.5t-25 97.5q0 54 23.5 96t67.5 66t103 24q62 0 108 -26l-15 -89q-39 14 -72 14q-41 0 -64.5 -22t-23.5 -62q0 -39 24.5 -62t67.5 -23q16 0 30 3t38 11l16 -90q-49 -26 -106 -26t-102 23z" />
    <glyph glyph-name="registered" unicode="&#xae;" horiz-adv-x="697" 
d="M189 111.5q-72 41.5 -113 113t-41 159.5q0 87 41.5 159t113 113.5t158.5 41.5q90 0 161.5 -40.5t112 -112t40.5 -161.5q0 -86 -42 -158t-114 -114t-158 -42q-87 0 -159 41.5zM471.5 166q54.5 32 85.5 89t31 129t-31 129t-85.5 89t-123.5 32t-123.5 -32t-85.5 -89
t-31 -129t31 -129t85.5 -89t123.5 -32t123.5 32zM390 229.5q-26 20.5 -36 63.5l-13 58h-17v-134h-116v353h157q67 0 107 -28.5t40 -75.5q0 -68 -68 -96l8 -36q4 -19 13.5 -27t26.5 -8q10 0 28 2v-79q-25 -13 -57 -13q-47 0 -73 20.5zM356 423q18 0 30.5 11t12.5 27t-11.5 24
t-31.5 8h-32v-70h32z" />
    <glyph glyph-name="trademark" unicode="&#x2122;" horiz-adv-x="971" 
d="M134 567h-87v105h329v-105h-86v-267h-156v267zM434 672h154l86 -150l85 150h154v-372h-154v197l-55 -107h-61l-55 107v-197h-154v372z" />
    <glyph glyph-name="degree" unicode="&#xb0;" horiz-adv-x="467" 
d="M135 337q-45 24 -73 67.5t-28 98.5t27 98.5t74.5 68t105.5 24.5t101.5 -24t67 -67t23.5 -97q0 -55 -28.5 -99t-75 -69t-98.5 -25q-51 0 -96 24zM295 438q23 25 23 66t-24 65.5t-60 24.5t-60 -25.5t-24 -64.5q0 -40 24.5 -65.5t59.5 -25.5q38 0 61 25z" />
    <glyph glyph-name="bar" unicode="|" horiz-adv-x="313" 
d="M65 688h183v-688h-183v688z" />
    <glyph glyph-name="brokenbar" unicode="&#xa6;" horiz-adv-x="313" 
d="M65 688h183v-270h-183v270zM65 270h183v-270h-183v270z" />
    <glyph glyph-name="dagger" unicode="&#x2020;" horiz-adv-x="352" 
d="M144 440h-121v61h121v171h64v-171h120v-61h-120v-440h-64v440z" />
    <glyph glyph-name="daggerdbl" unicode="&#x2021;" horiz-adv-x="367" 
d="M151 198h-120v61h120v181h-120v61h120v171h65v-171h120v-61h-120v-181h120v-61h-120v-198h-65v198z" />
    <glyph glyph-name="uni2116" unicode="&#x2116;" horiz-adv-x="1217" 
d="M65 688h201l274 -371v371h179v-688h-200l-276 358v-358h-178v688zM895 359q-46 23 -71 64.5t-25 94.5q0 56 27.5 97t73.5 62t101 21q59 0 104.5 -23t71 -64t25.5 -93q0 -61 -29.5 -102t-75.5 -60.5t-97 -19.5q-59 0 -105 23zM1042.5 468.5q16.5 17.5 16.5 49.5t-16 49
t-41 17t-41.5 -17t-16.5 -49t16.5 -49.5t41.5 -17.5q24 0 40.5 17.5z" />
    <glyph glyph-name="asciicircum" unicode="^" horiz-adv-x="600" 
d="M430 60l-130 376l-130 -376h-150l196 500h168l196 -500h-150z" />
    <glyph glyph-name="minute" unicode="&#x2032;" horiz-adv-x="225" 
d="M30 749h165l-28 -298h-116z" />
    <glyph glyph-name="second" unicode="&#x2033;" horiz-adv-x="435" 
d="M30 749h165l-28 -298h-116zM240 749h165l-28 -298h-116z" />
    <glyph glyph-name="uni0308" unicode="&#x308;" 
d="M-520.5 605q-32.5 29 -32.5 71q0 43 34 72.5t78 29.5q46 0 79.5 -30.5t33.5 -71.5q0 -43 -34 -71.5t-79 -28.5q-47 0 -79.5 29zM-239 606q-32 30 -32 70q0 44 34.5 73t78.5 29q33 0 58 -15t39 -38.5t14 -48.5q0 -43 -33 -71.5t-78 -28.5q-49 0 -81 30z" />
    <glyph glyph-name="uni0307" unicode="&#x307;" 
d="M-379.5 605.5q-32.5 29.5 -32.5 72.5t34 72t78 29q46 0 79.5 -30t33.5 -71q0 -44 -34 -73t-79 -29q-47 0 -79.5 29.5z" />
    <glyph glyph-name="gravecomb" unicode="&#x300;" 
d="M-522 709l101 179l293 -205l-61 -107z" />
    <glyph glyph-name="acutecomb" unicode="&#x301;" 
d="M-472 683l293 205l101 -179l-333 -133z" />
    <glyph glyph-name="uni030B" unicode="&#x30b;" 
d="M-277 614l104 276l157 -64l-154 -250zM-470 600l61 288l166 -40l-114 -271z" />
    <glyph glyph-name="caroncomb.alt" 
d="M-300 483q42 0 59.5 10.5t20.5 34.5h-80v160h185v-87q0 -107 -42 -153t-143 -46v81z" />
    <glyph glyph-name="uni0302" unicode="&#x302;" 
d="M-393 835h185l123 -249h-166l-38 106l-12 38l-10 -38l-39 -106h-166z" />
    <glyph glyph-name="uni030C" unicode="&#x30c;" 
d="M-516 835h166l39 -107l10 -39q13 41 27 78q8 22 13.5 39t9.5 29h166l-123 -249h-185z" />
    <glyph glyph-name="uni0306" unicode="&#x306;" 
d="M-440.5 640.5q-52.5 64.5 -56.5 193.5h141q0 -133 56 -133q26 0 39.5 30.5t13.5 102.5h143q-4 -131 -56 -194.5t-140 -63.5t-140.5 64.5z" />
    <glyph glyph-name="uni030A" unicode="&#x30a;" 
d="M-424 623.5q-48 47.5 -48 122.5q0 78 48.5 125.5t123.5 47.5q53 0 91.5 -23t59 -62.5t20.5 -87.5q0 -77 -47.5 -123.5t-123.5 -46.5t-124 47.5zM-257 702q15 16 15 44t-16.5 45.5t-43.5 17.5q-26 0 -42.5 -17.5t-16.5 -45.5q0 -27 17 -43.5t44 -16.5q28 0 43 16z" />
    <glyph glyph-name="uni030A0301" 
d="M-424 623.5q-48 47.5 -48 122.5q0 78 48.5 125.5t123.5 47.5q60 0 103 -30l159 111l81 -144l-176 -70q4 -17 4 -40q0 -77 -47.5 -123.5t-123.5 -46.5t-124 47.5zM-257 702q15 16 15 44t-16.5 45.5t-43.5 17.5q-26 0 -42.5 -17.5t-16.5 -45.5q0 -27 17 -43.5t44 -16.5
q28 0 43 16z" />
    <glyph glyph-name="tildecomb" unicode="&#x303;" 
d="M-543 626q28 78 72.5 117.5t99.5 39.5q21 0 39 -6.5t41 -19.5q21 -11 35.5 -16.5t30.5 -5.5q15 0 28.5 12t30.5 37l108 -47q-28 -78 -72.5 -118t-99.5 -40q-21 0 -39 6.5t-41 19.5q-21 11 -35.5 16.5t-30.5 5.5q-15 0 -28.5 -12t-30.5 -37z" />
    <glyph glyph-name="uni0304" unicode="&#x304;" 
d="M-474 714h348v-128h-348v128z" />
    <glyph glyph-name="hookabovecomb" unicode="&#x309;" 
d="M-364 621q0 23 10 37t29 29q15 13 22 22.5t7 22.5q0 11 -10 18t-31 7q-27 0 -70 -15l-8 83q57 20 123 20q69 0 101 -24t32 -66q0 -31 -11.5 -49.5t-32.5 -38.5q-19 -18 -27.5 -31t-8.5 -33v-17h-122q-3 17 -3 35z" />
    <glyph glyph-name="uni030F" unicode="&#x30f;" 
d="M-584 826l157 64l104 -276l-107 -38zM-357 848l166 40l61 -288l-113 -23z" />
    <glyph glyph-name="uni0311" unicode="&#x311;" 
d="M-441 780.5q52 63.5 140 63.5t140.5 -64.5t56.5 -193.5h-141q0 133 -56 133q-26 0 -39.5 -30.5t-13.5 -102.5h-143q4 131 56 194.5z" />
    <glyph glyph-name="uni0312" unicode="&#x312;" 
d="M-393 673q0 107 42 153t143 46v-81q-42 0 -59.5 -10.5t-20.5 -34.5h80v-160h-185v87z" />
    <glyph glyph-name="uni031B" unicode="&#x31b;" 
d="M-335 501q37 0 53 5t23.5 24.5t7.5 63.5h117q0 -86 -20.5 -130t-62.5 -60t-118 -16v113z" />
    <glyph glyph-name="dotbelowcomb" unicode="&#x323;" 
d="M-379.5 -248.5q-32.5 29.5 -32.5 72.5t34 72t78 29q46 0 79.5 -30t33.5 -71q0 -44 -34 -73t-79 -29q-47 0 -79.5 29.5z" />
    <glyph glyph-name="uni0324" unicode="&#x324;" 
d="M-520.5 -248q-32.5 29 -32.5 71q0 43 34 72.5t78 29.5q46 0 79.5 -30.5t33.5 -71.5q0 -43 -34 -71.5t-79 -28.5q-47 0 -79.5 29zM-239 -247q-32 30 -32 70q0 44 34.5 73t78.5 29q33 0 58 -15t39 -38.5t14 -48.5q0 -43 -33 -71.5t-78 -28.5q-49 0 -81 30z" />
    <glyph glyph-name="uni0326" unicode="&#x326;" 
d="M-393 -290q42 0 59.5 10.5t20.5 34.5h-80v160h185v-87q0 -107 -42 -153t-143 -46v81z" />
    <glyph glyph-name="uni0327" unicode="&#x327;" 
d="M-415 -230l1 57q24 -8 47 -8q27 0 42 12t15 35q0 19 -16 31t-42 16l40 117h76l-25 -75q47 -12 68.5 -35.5t21.5 -59.5q0 -49 -37 -78.5t-100 -29.5q-52 0 -91 18z" />
    <glyph glyph-name="uni0328" unicode="&#x328;" 
d="M-493 -223.5q-34 24.5 -34 65.5q0 46 41 89.5t118 78.5l68 -10q-99 -82 -99 -140q0 -41 48 -41q20 0 47 9l1 -58q-43 -18 -93 -18q-63 0 -97 24.5z" />
    <glyph glyph-name="uni032E" unicode="&#x32e;" 
d="M-390 -234q-41 21 -66.5 60t-27.5 89h123q0 -31 16.5 -49.5t44.5 -18.5t43 17.5t15 50.5h125q-2 -52 -27 -90.5t-66 -59t-90 -20.5t-90 21z" />
    <glyph glyph-name="uni0331" unicode="&#x331;" 
d="M-474 -85h348v-128h-348v128z" />
    <glyph glyph-name="uni0308.case" 
d="M-520.5 792q-32.5 29 -32.5 71q0 43 34 72.5t78 29.5q46 0 79.5 -30.5t33.5 -71.5q0 -43 -34 -71.5t-79 -28.5q-47 0 -79.5 29zM-239 793q-32 30 -32 70q0 44 34.5 73t78.5 29q33 0 58 -15t39 -38.5t14 -48.5q0 -43 -33 -71.5t-78 -28.5q-49 0 -81 30z" />
    <glyph glyph-name="uni0307.case" 
d="M-379.5 792.5q-32.5 29.5 -32.5 72.5t34 72t78 29q46 0 79.5 -30t33.5 -71q0 -44 -34 -73t-79 -29q-47 0 -79.5 29.5z" />
    <glyph glyph-name="gravecomb.case" 
d="M-572 896l101 179l293 -205l-61 -107z" />
    <glyph glyph-name="acutecomb.case" 
d="M-422 870l293 205l101 -179l-333 -133z" />
    <glyph glyph-name="uni030B.case" 
d="M-277 801l104 276l157 -64l-154 -250zM-470 787l61 288l166 -40l-114 -271z" />
    <glyph glyph-name="uni0302.case" 
d="M-393 1022h185l123 -249h-166l-38 106l-12 38l-10 -38l-39 -106h-166z" />
    <glyph glyph-name="uni030C.case" 
d="M-516 1022h166l39 -107l10 -39q13 41 27 78q8 22 13.5 39t9.5 29h166l-123 -249h-185z" />
    <glyph glyph-name="uni0306.case" 
d="M-440.5 827.5q-52.5 64.5 -56.5 193.5h141q0 -133 56 -133q26 0 39.5 30.5t13.5 102.5h143q-4 -131 -56 -194.5t-140 -63.5t-140.5 64.5z" />
    <glyph glyph-name="uni030A.case" 
d="M-424 810.5q-48 47.5 -48 122.5q0 78 48.5 125.5t123.5 47.5q53 0 91.5 -23t59 -62.5t20.5 -87.5q0 -77 -47.5 -123.5t-123.5 -46.5t-124 47.5zM-257 889q15 16 15 44t-16.5 45.5t-43.5 17.5q-26 0 -42.5 -17.5t-16.5 -45.5q0 -27 17 -43.5t44 -16.5q28 0 43 16z" />
    <glyph glyph-name="tildecomb.case" 
d="M-543 813q28 78 72.5 117.5t99.5 39.5q21 0 39 -6.5t41 -19.5q21 -11 35.5 -16.5t30.5 -5.5q15 0 28.5 12t30.5 37l108 -47q-28 -78 -72.5 -118t-99.5 -40q-21 0 -39 6.5t-41 19.5q-21 11 -35.5 16.5t-30.5 5.5q-15 0 -28.5 -12t-30.5 -37z" />
    <glyph glyph-name="uni0304.case" 
d="M-474 901h348v-128h-348v128z" />
    <glyph glyph-name="uni030F.case" 
d="M-584 1013l157 64l104 -276l-107 -38zM-357 1035l166 40l61 -288l-113 -23z" />
    <glyph glyph-name="uni0311.case" 
d="M-441 967.5q52 63.5 140 63.5t140.5 -64.5t56.5 -193.5h-141q0 133 -56 133q-26 0 -39.5 -30.5t-13.5 -102.5h-143q4 131 56 194.5z" />
    <glyph glyph-name="uni0312.case" 
d="M-393 860q0 107 42 153t143 46v-81q-42 0 -59.5 -10.5t-20.5 -34.5h80v-160h-185v87z" />
    <glyph glyph-name="uni02BC" unicode="&#x2bc;" horiz-adv-x="600" 
d="M207 667q42 0 59.5 10.5t20.5 34.5h-80v160h185v-87q0 -107 -42 -153t-143 -46v81z" />
    <glyph glyph-name="uni02BA" unicode="&#x2ba;" horiz-adv-x="455" 
d="M80 749h165l-108 -298h-116zM290 749h165l-108 -298h-116z" />
    <glyph glyph-name="uni02C9" unicode="&#x2c9;" horiz-adv-x="600" 
d="M165 704h269v-118h-269v118z" />
    <glyph glyph-name="uni02B9" unicode="&#x2b9;" horiz-adv-x="245" 
d="M80 749h165l-108 -298h-116z" />
    <glyph glyph-name="acute" unicode="&#xb4;" horiz-adv-x="600" 
d="M128 683l293 205l101 -179l-333 -133z" />
    <glyph glyph-name="breve" unicode="&#x2d8;" horiz-adv-x="600" 
d="M159.5 640.5q-52.5 64.5 -56.5 193.5h141q0 -133 56 -133q26 0 39.5 30.5t13.5 102.5h143q-4 -131 -56 -194.5t-140 -63.5t-140.5 64.5z" />
    <glyph glyph-name="caron" unicode="&#x2c7;" horiz-adv-x="600" 
d="M84 835h166l39 -107l10 -39q13 41 27 78q8 22 13.5 39t9.5 29h166l-123 -249h-185z" />
    <glyph glyph-name="cedilla" unicode="&#xb8;" horiz-adv-x="600" 
d="M185 -230l1 57q24 -8 47 -8q27 0 42 12t15 35q0 19 -16 31t-42 16l40 117h76l-25 -75q47 -12 68.5 -35.5t21.5 -59.5q0 -49 -37 -78.5t-100 -29.5q-52 0 -91 18z" />
    <glyph glyph-name="circumflex" unicode="&#x2c6;" horiz-adv-x="600" 
d="M207 835h185l123 -249h-166l-38 106l-12 38l-10 -38l-39 -106h-166z" />
    <glyph glyph-name="dieresis" unicode="&#xa8;" horiz-adv-x="600" 
d="M79.5 605q-32.5 29 -32.5 71q0 43 34 72.5t78 29.5q46 0 79.5 -30.5t33.5 -71.5q0 -43 -34 -71.5t-79 -28.5q-47 0 -79.5 29zM361 606q-32 30 -32 70q0 44 34.5 73t78.5 29q33 0 58 -15t39 -38.5t14 -48.5q0 -43 -33 -71.5t-78 -28.5q-49 0 -81 30z" />
    <glyph glyph-name="dotaccent" unicode="&#x2d9;" horiz-adv-x="600" 
d="M220.5 605.5q-32.5 29.5 -32.5 72.5t34 72t78 29q46 0 79.5 -30t33.5 -71q0 -44 -34 -73t-79 -29q-47 0 -79.5 29.5z" />
    <glyph glyph-name="grave" unicode="`" horiz-adv-x="600" 
d="M78 709l101 179l293 -205l-61 -107z" />
    <glyph glyph-name="hungarumlaut" unicode="&#x2dd;" horiz-adv-x="600" 
d="M323 614l104 276l157 -64l-154 -250zM130 600l61 288l166 -40l-114 -271z" />
    <glyph glyph-name="macron" unicode="&#xaf;" horiz-adv-x="600" 
d="M126 714h348v-128h-348v128z" />
    <glyph glyph-name="ogonek" unicode="&#x2db;" horiz-adv-x="600" 
d="M107 -223.5q-34 24.5 -34 65.5q0 46 41 89.5t118 78.5l68 -10q-99 -82 -99 -140q0 -41 48 -41q20 0 47 9l1 -58q-43 -18 -93 -18q-63 0 -97 24.5z" />
    <glyph glyph-name="ring" unicode="&#x2da;" horiz-adv-x="600" 
d="M176 623.5q-48 47.5 -48 122.5q0 78 48.5 125.5t123.5 47.5q53 0 91.5 -23t59 -62.5t20.5 -87.5q0 -77 -47.5 -123.5t-123.5 -46.5t-124 47.5zM343 702q15 16 15 44t-16.5 45.5t-43.5 17.5q-26 0 -42.5 -17.5t-16.5 -45.5q0 -27 17 -43.5t44 -16.5q28 0 43 16z" />
    <glyph glyph-name="tilde" unicode="&#x2dc;" horiz-adv-x="600" 
d="M57 626q28 78 72.5 117.5t99.5 39.5q21 0 39 -6.5t41 -19.5q21 -11 35.5 -16.5t30.5 -5.5q15 0 28.5 12t30.5 37l108 -47q-28 -78 -72.5 -118t-99.5 -40q-21 0 -39 6.5t-41 19.5q-21 11 -35.5 16.5t-30.5 5.5q-15 0 -28.5 -12t-30.5 -37z" />
    <glyph glyph-name="uni03060301" 
d="M-482 909l293 175l85 -161l-333 -103zM-440 629.5q-53 53.5 -57 154.5h138q1 -44 17 -66t42 -22q54 0 58 88h138q-4 -103 -56.5 -155.5t-139.5 -52.5t-140 53.5z" />
    <glyph glyph-name="uni03060300" 
d="M-496 923l85 161l293 -175l-45 -89zM-439.5 628.5q-52.5 52.5 -56.5 155.5h138q4 -88 58 -88q26 0 42 22t17 66h138q-4 -101 -57 -154.5t-140 -53.5t-139.5 52.5z" />
    </font>
</defs>
</svg>
